<?xml version="1.0" encoding="UTF-8"?>
<svg version="1.1" xmlns="http://www.w3.org/2000/svg" width="2447" height="1360">
<path d="M0 0 C376.53 0 753.06 0 1141 0 C1141 376.2 1141 752.4 1141 1140 C764.47 1140 387.94 1140 0 1140 C0 763.8 0 387.6 0 0 Z M44 44 C44 391.16 44 738.32 44 1096 C391.49 1096 738.98 1096 1097 1096 C1097 748.84 1097 401.68 1097 44 C749.51 44 402.02 44 44 44 Z " fill="#FDFDFD" transform="translate(87,110)"/>
<path d="M0 0 C41.08611599 0 41.08611599 0 47.23828125 4.22265625 C50.15055463 7.15140643 52.7022597 10.14748873 55.1875 13.4375 C56.15089273 14.68761479 57.11443868 15.93761152 58.078125 17.1875 C58.56345703 17.82171875 59.04878906 18.4559375 59.54882812 19.109375 C61.82166626 22.07048848 64.12915411 25.00403787 66.4375 27.9375 C66.88826904 28.51169678 67.33903809 29.08589355 67.8034668 29.67749023 C71.17797468 33.97128737 74.5837807 38.23934671 78 42.5 C84.62209135 50.75896492 91.15989322 59.08287533 97.67578125 67.42578125 C102.57538778 73.69073531 107.53142927 79.90247023 112.5625 86.0625 C116.4667889 90.84392621 120.31875117 95.65423148 124.0625 100.5625 C127.62883758 105.23682596 131.25606465 109.85333721 134.9375 114.4375 C140.21149028 121.00472927 145.42955279 127.61352484 150.62353516 134.24414062 C152.52254846 136.66657832 154.42571236 139.08574276 156.32861328 141.50512695 C160.90383584 147.32277941 165.46372939 153.15189129 170 159 C169.92894547 157.93166931 169.85789093 156.86333862 169.78468323 155.76263428 C168.83385004 140.14817579 168.86832799 124.53968768 168.89860606 108.90397739 C168.90495118 105.06169888 168.90545207 101.21941917 168.90663147 97.37713623 C168.90971245 90.13522956 168.91788121 82.89333839 168.92798096 75.65143847 C168.93924383 67.39236734 168.94467792 59.13329539 168.94967639 50.87421846 C168.96006737 33.9161352 168.9783715 16.95807322 169 0 C186.49 0 203.98 0 222 0 C222 84.15 222 168.3 222 255 C180.35466667 255 180.35466667 255 173.0390625 249.53515625 C168.01437241 244.30226077 163.69886997 238.54249347 159.33691406 232.76025391 C157.13164157 229.85667197 154.88010467 226.98995287 152.625 224.125 C152.1702832 223.5467749 151.71556641 222.9685498 151.24707031 222.37280273 C147.35257478 217.42973676 143.41962286 212.51781065 139.4831543 207.6081543 C133.81813805 200.53672703 128.23216648 193.40386938 122.64550781 186.27050781 C117.46230437 179.65436692 112.25762306 173.05722219 107 166.5 C101.74365357 159.94437 96.5405794 153.34861504 91.35888672 146.73388672 C89.07546705 143.82033183 86.78754555 140.91031584 84.5 138 C81.75951792 134.51343843 79.01990378 131.02621854 76.28515625 127.53515625 C70.88730238 120.64843954 65.45321639 113.79269262 59.97094727 106.97290039 C59.49584717 106.38114014 59.02074707 105.78937988 58.53125 105.1796875 C58.11423828 104.66132324 57.69722656 104.14295898 57.26757812 103.60888672 C55.81369808 101.76353434 54.40956494 99.87941993 53 98 C53 149.81 53 201.62 53 255 C35.51 255 18.02 255 0 255 C0 170.85 0 86.7 0 0 Z " fill="#FDFDFD" transform="translate(550,864)"/>
<path d="M0 0 C140.71006856 0 140.71006856 0 168.3046875 27.1171875 C182.92847695 42.75828404 185.63247139 62.03894876 185.30859375 82.51953125 C184.59793636 102.91628293 175.51502498 120.2607823 160.75 134.1875 C153.63364672 140.2657912 145.38612639 144.91380648 137 149 C137.54527344 149.38929688 138.09054687 149.77859375 138.65234375 150.1796875 C151.5735384 159.7656678 158.43054156 171.39337604 166.328125 185.13037109 C168.88309359 189.51575381 171.56025249 193.82140399 174.25 198.125 C179.83395351 207.08407825 185.32355537 216.09830372 190.78744507 225.13085938 C195.54442477 232.9936622 200.33100057 240.8344903 205.30932617 248.55981445 C208 252.78648172 208 252.78648172 208 255 C200.05442985 255.0929886 192.10908991 255.16390999 184.16310883 255.20724869 C180.47280045 255.2280571 176.78286642 255.25624919 173.09277344 255.30175781 C169.52657939 255.34545943 165.96074369 255.36918776 162.39430237 255.37950897 C160.38249888 255.39041494 158.37083804 255.42160191 156.35925293 255.45318604 C148.43245059 255.45511633 142.409731 255.07363557 136.34152222 249.46792603 C131.62900273 244.54443881 128.59811149 238.31525356 125.375 232.375 C124.13099846 230.11805389 122.88619492 227.86154967 121.640625 225.60546875 C121.02509766 224.48575684 120.40957031 223.36604492 119.77539062 222.21240234 C116.80748309 216.84225283 113.75440173 211.52189597 110.6965332 206.20263672 C108.09196312 201.66826011 105.504162 197.12552529 102.94763184 192.56391907 C101.51221741 190.00468127 100.07040735 187.44907256 98.62811279 184.89370728 C97.92518109 183.64452287 97.22512203 182.39371704 96.52813721 181.14120483 C95.54849044 179.38155229 94.5576207 177.6281625 93.56640625 175.875 C92.99865479 174.86179687 92.43090332 173.84859375 91.84594727 172.8046875 C88.82577446 168.2159102 85.91910411 165.45955205 81 163 C70.605 162.505 70.605 162.505 60 162 C60 192.69 60 223.38 60 255 C40.2 255 20.4 255 0 255 C0 170.85 0 86.7 0 0 Z M60 46 C60 70.42 60 94.84 60 120 C89.8601361 121.59156714 89.8601361 121.59156714 115.8125 109.5 C116.534375 108.675 117.25625 107.85 118 107 C118.680625 106.278125 119.36125 105.55625 120.0625 104.8125 C126.65327286 95.24524907 128.48614563 83.66498467 126.5390625 72.3125 C124.43094451 64.37605581 120.63389927 57.59000148 113.9375 52.6875 C95.61074597 42.71217818 82.42234161 46 60 46 Z " fill="#FDFDFD" transform="translate(821,864)"/>
<path d="M0 0 C19.47 0 38.94 0 59 0 C59.029729 6.92528687 59.029729 6.92528687 59.06005859 13.99047852 C59.12708964 29.2774635 59.20463016 44.56438201 59.28752708 59.8512888 C59.33751216 69.11593053 59.38395591 78.38056404 59.421875 87.64526367 C59.45495917 95.72641077 59.49487926 103.80749125 59.54279006 111.88856453 C59.56789292 116.16193338 59.5897207 120.43525896 59.60334396 124.70868111 C59.61631321 128.74291876 59.63852229 132.77700678 59.66738319 136.81116104 C59.67634433 138.28033375 59.68212183 139.74953047 59.68421364 141.21872902 C59.7149539 159.55377065 61.04929881 178.15285024 73 193 C83.21650647 203.06427376 94.68090176 206.95215991 108.8125 207.3125 C122.5261665 207.07400145 134.01649936 203.33371927 144.15234375 194.00390625 C157.23417142 179.81579294 158.29347173 160.29605554 158.31884766 142.02026367 C158.32816959 140.46171054 158.33834154 138.90316231 158.34928894 137.34461975 C158.37634801 133.15545082 158.39166596 128.96631504 158.40471697 124.7770822 C158.42045418 120.38352052 158.44721004 115.99002552 158.4727478 111.59651184 C158.51934953 103.29546735 158.55618309 94.99441004 158.58942068 86.69330245 C158.62777434 77.23485653 158.67714936 67.77647789 158.72740483 58.31808889 C158.83044765 38.87876965 158.91834268 19.43942164 159 0 C178.8 0 198.6 0 219 0 C219.0452926 20.15938625 219.08207358 40.31873077 219.10362434 60.47815514 C219.1139004 69.84027311 219.12788982 79.20235702 219.15087891 88.56445312 C219.17092595 96.73238005 219.18374305 104.90028229 219.18817699 113.06823313 C219.19076538 117.38588624 219.19677095 121.70346879 219.21146011 126.02109909 C219.35001889 168.39645342 219.35001889 168.39645342 214.875 184.625 C214.66327148 185.40439941 214.45154297 186.18379883 214.23339844 186.98681641 C207.1127399 211.63871653 190.33573178 232.53726907 168 245 C149.45649464 254.66288002 130.07413375 258.42761168 109.25 258.3125 C108.5462323 258.31034485 107.8424646 258.3081897 107.11737061 258.30596924 C76.64440561 258.15638427 49.82521661 249.12703089 27.375 227.875 C10.25508923 210.13837775 -0.13874941 185.50795517 -0.12025452 160.7802887 C-0.12110894 160.08827093 -0.12196337 159.39625316 -0.12284368 158.68326515 C-0.12448012 156.38329883 -0.11900744 154.08340677 -0.11352539 151.78344727 C-0.1132431 150.1272634 -0.11340208 148.47107942 -0.1139679 146.81489563 C-0.11425422 142.33197102 -0.10838413 137.84907329 -0.10139394 133.36615491 C-0.09513296 128.67630987 -0.09455443 123.98646418 -0.09336853 119.2966156 C-0.09026331 110.42160139 -0.08206082 101.54659953 -0.07201904 92.67159075 C-0.06083279 82.56521368 -0.05534112 72.45883602 -0.05032361 62.3524543 C-0.03987753 41.56829445 -0.0215421 20.78415152 0 0 Z " fill="#FDFDFD" transform="translate(286,864)"/>
<path d="M0 0 C18 0 18 0 22.2734375 2.5390625 C23.72558594 4.20800781 23.72558594 4.20800781 25 6 C25.46954102 6.57331055 25.93908203 7.14662109 26.42285156 7.73730469 C27.89205337 9.57405801 29.26102936 11.45903637 30.625 13.375 C34.81219647 19.10888468 39.116582 24.70234681 43.625 30.1875 C47.95500943 35.46581728 52.19949884 40.79166568 56.34130859 46.21875 C59.27872611 50.06753529 62.25294596 53.8849843 65.25 57.6875 C69.62056631 63.23727523 73.97272527 68.801109 78.3125 74.375 C79.17439941 75.48041138 79.17439941 75.48041138 80.05371094 76.6081543 C80.60961914 77.32269775 81.16552734 78.03724121 81.73828125 78.7734375 C82.22337158 79.39653809 82.70846191 80.01963867 83.20825195 80.66162109 C85.83286272 84.08695451 88.41084248 87.54778998 91 91 C91.33 60.97 91.66 30.94 92 0 C99.59 0 107.18 0 115 0 C115 44.88 115 89.76 115 136 C96 136 96 136 90.4375 131.3125 C88.90862131 129.24417185 87.42968869 127.13809299 86 125 C84.42515122 122.97254762 82.84152222 120.95189044 81.25 118.9375 C80.4178324 117.84322452 79.58850851 116.74678191 78.76171875 115.6484375 C75.5718207 111.41950383 72.31765628 107.24129203 69.0625 103.0625 C68.46429443 102.29381592 67.86608887 101.52513184 67.24975586 100.7331543 C61.85504939 93.80485278 56.43250662 86.89867755 51 80 C44.79375655 72.11876296 38.60420121 64.22473277 32.4375 56.3125 C31.5252063 55.14412598 31.5252063 55.14412598 30.59448242 53.95214844 C30.02576416 53.22157227 29.4570459 52.49099609 28.87109375 51.73828125 C28.36505615 51.08899658 27.85901855 50.43971191 27.33764648 49.77075195 C26.16781661 48.22215256 25.07655605 46.61483408 24 45 C23.67 75.03 23.34 105.06 23 136 C15.41 136 7.82 136 0 136 C0 91.12 0 46.24 0 0 Z " fill="#FDFDFD" transform="translate(1395,760)"/>
<path d="M0 0 C69.47398069 0 69.47398069 0 83.95703125 11.9453125 C91.45725503 19.48855859 94.39872798 28.81324723 94.375 39.25 C94.37338867 39.99290283 94.37177734 40.73580566 94.37011719 41.5012207 C94.11599227 52.99539023 89.36969838 62.19324426 81.21484375 70.1875 C76.87520776 73.73880705 71.91971213 76.34222448 67 79 C67.43828125 79.44085937 67.8765625 79.88171875 68.328125 80.3359375 C74.17101259 86.53509872 78.70856348 93.35749902 83.3515625 100.45703125 C88.29453976 108.01029708 93.40416546 115.45150546 98.4894104 122.90933228 C99.71661721 124.70969561 100.94237317 126.5110396 102.16796875 128.3125 C103.23954224 129.88451172 103.23954224 129.88451172 104.33276367 131.48828125 C106 134 106 134 107 136 C102.96174934 136.12406007 98.92424362 136.21455045 94.88452148 136.2746582 C93.51192898 136.29972617 92.13946898 136.33379082 90.76733398 136.37719727 C88.78949304 136.43817531 86.81065816 136.46361009 84.83203125 136.48828125 C83.04889526 136.52755737 83.04889526 136.52755737 81.22973633 136.56762695 C75.8612474 135.62411371 73.83978921 132.15351144 70.75512695 127.91650391 C69.99357782 126.77378918 69.23822677 125.62692581 68.48828125 124.4765625 C68.07515182 123.85333099 67.6620224 123.23009949 67.2363739 122.58798218 C65.92289959 120.60390116 64.61752405 118.61464669 63.3125 116.625 C62.45692491 115.32906731 61.60080878 114.03349164 60.74414062 112.73828125 C57.21820166 107.40342309 53.69679977 102.06577179 50.19677734 96.71386719 C49.29150136 95.33778521 48.38607035 93.96180521 47.48046875 92.5859375 C47.06017899 91.93936188 46.63988922 91.29278625 46.2068634 90.62661743 C44.12071175 87.27246361 44.12071175 87.27246361 41 85 C36.05 84.67 31.1 84.34 26 84 C26 101.16 26 118.32 26 136 C17.42 136 8.84 136 0 136 C0 91.12 0 46.24 0 0 Z M26 21 C26 35.52 26 50.04 26 65 C46.51352817 65.73358058 46.51352817 65.73358058 63.52734375 56.62109375 C67.68025694 52.20335711 68.95853693 47.34814256 69.03125 41.4765625 C68.5979193 34.26160639 66.38417987 30.3311981 61.1875 25.25 C53.98139459 20.16333736 46.57939135 20.75008486 38.0625 20.875 C32.0915625 20.936875 32.0915625 20.936875 26 21 Z " fill="#FDFDFD" transform="translate(1647,984)"/>
<path d="M0 0 C8.91 0 17.82 0 27 0 C27.0093457 2.70429199 27.01869141 5.40858398 27.02832031 8.19482422 C27.06217142 17.1555727 27.11776558 26.11609285 27.18390274 35.07665825 C27.22331847 40.50652098 27.25553596 45.93622296 27.27099609 51.36621094 C27.28620147 56.61190877 27.32071606 61.85716451 27.36830902 67.10266495 C27.38308281 69.0983609 27.3910387 71.09411999 27.39188385 73.08987045 C27.14388984 87.57769162 27.14388984 87.57769162 32 101 C32.37827942 101.67610321 32.75655884 102.35220642 33.14630127 103.04879761 C36.41833519 108.59134571 41.84919046 111.63380063 47.86328125 113.61328125 C58.86047519 115.60363262 68.03266415 113.82810224 77.3125 107.875 C84.34651846 100.35023606 86.13666251 92.17183473 86.20532227 82.19238281 C86.21522186 81.30422379 86.22512146 80.41606476 86.23532104 79.50099182 C86.26688188 76.56839657 86.2916721 73.63578512 86.31640625 70.703125 C86.33698045 68.66859519 86.35797705 66.63406961 86.37937927 64.59954834 C86.43455179 59.2468 86.48398235 53.8940134 86.53222656 48.54119873 C86.58247676 43.07821246 86.63814446 37.6152817 86.69335938 32.15234375 C86.80088203 21.43494152 86.90183944 10.71749208 87 0 C95.91 0 104.82 0 114 0 C114.04533691 11.13613954 114.08196551 22.27221693 114.10362434 33.40842819 C114.1140239 38.58042605 114.12811256 43.75235703 114.15087891 48.92431641 C114.17274457 53.92343038 114.18459735 58.92248035 114.18975449 63.92163849 C114.19342575 65.8208339 114.20059422 67.72002615 114.21146011 69.61919403 C114.32301375 89.9406285 112.66580523 107.77289705 97.97265625 123.1171875 C86.03568403 134.55768528 71.06031834 138.5445524 54.87792969 138.41967773 C38.96584191 137.89700565 24.22541711 132.57742306 13.10546875 120.7890625 C3.01912544 107.4279324 -0.19104765 92.61579441 -0.11352539 76.17553711 C-0.11367142 75.34516937 -0.11381744 74.51480164 -0.1139679 73.65927124 C-0.11327815 70.948601 -0.10553028 68.2380018 -0.09765625 65.52734375 C-0.09578873 63.63448626 -0.0943664 61.74162829 -0.09336853 59.84877014 C-0.08956966 54.89224895 -0.07976211 49.93575755 -0.06866455 44.97924805 C-0.05839361 39.91129967 -0.05385878 34.84334643 -0.04882812 29.77539062 C-0.03813724 19.85024529 -0.02056202 9.9251298 0 0 Z " fill="#FCFCFC" transform="translate(1393,535)"/>
<path d="M0 0 C7.92 0 15.84 0 24 0 C24 46.2 24 92.4 24 140 C17.73 140 11.46 140 5 140 C2.60236815 137.60236815 2.65719414 136.66726502 2.375 133.375 C2.26285156 132.14910156 2.26285156 132.14910156 2.1484375 130.8984375 C2.09945313 130.27195312 2.05046875 129.64546875 2 129 C1.14277344 129.61488281 0.28554687 130.22976563 -0.59765625 130.86328125 C-1.75236466 131.68002622 -2.90732622 132.49641337 -4.0625 133.3125 C-4.62388672 133.71662109 -5.18527344 134.12074219 -5.76367188 134.53710938 C-14.96788212 141.00635429 -23.81456096 142.77140959 -35 142 C-43.87033496 140.34120519 -51.40735621 135.55496712 -56.8125 128.375 C-66.73723916 112.89056899 -67.73416591 92.63868929 -64 75 C-61.66466302 66.41899436 -58.07603002 59.49779349 -52 53 C-51.47792969 52.43667969 -50.95585938 51.87335938 -50.41796875 51.29296875 C-42.27197009 43.46408926 -32.46563484 41.31876837 -21.52563477 41.4699707 C-13.35146054 41.82794466 -7.5345709 44.09907182 -1 49 C-0.67 32.83 -0.34 16.66 0 0 Z M-32.01171875 64.66796875 C-39.86472559 72.91609543 -41.32333997 83.51096175 -41.15234375 94.51171875 C-40.5858961 103.76369705 -39.19637172 112.30993749 -32.875 119.375 C-27.67899829 122.31187053 -21.86712814 123.66220711 -15.9375 122.5 C-9.827857 120.58763207 -3.1943899 116.64913733 0 111 C0.47388161 107.86944243 0.46802826 104.75949183 0.46875 101.59765625 C0.47636353 100.68294052 0.48397705 99.76822479 0.49182129 98.82579041 C0.50261493 96.89340949 0.50547838 94.96097027 0.50097656 93.02856445 C0.50000444 90.0759936 0.54162872 87.12602368 0.5859375 84.17382812 C0.59114487 82.29427624 0.59383269 80.41471534 0.59375 78.53515625 C0.61014526 77.65481216 0.62654053 76.77446808 0.64343262 75.8674469 C0.59357204 71.43306582 0.47016122 69.5926919 -2.36914062 66.01342773 C-11.10100887 59.3308259 -22.99979252 57.19594448 -32.01171875 64.66796875 Z " fill="#FDFDFD" transform="translate(1452,980)"/>
<path d="M0 0 C7.92 0 15.84 0 24 0 C24 46.2 24 92.4 24 140 C18.06 140 12.12 140 6 140 C2.23452331 136.23452331 2.08651531 134.09826415 1 129 C0.55011719 129.44730469 0.10023438 129.89460937 -0.36328125 130.35546875 C-9.47389993 138.91835484 -19.41774245 142.42561127 -31.8046875 142.2734375 C-40.86104823 141.49844331 -47.95484571 137.6961709 -54 131 C-65.50097736 117.12411084 -66.12961173 99.20272467 -65 82 C-63.79874233 72.69269461 -60.44479847 64.59406102 -55 57 C-54.278125 55.948125 -53.55625 54.89625 -52.8125 53.8125 C-45.29998602 46.29998602 -36.52172741 41.84222099 -25.84643555 41.62036133 C-25.13398682 41.62189209 -24.42153809 41.62342285 -23.6875 41.625 C-22.94346924 41.62588623 -22.19943848 41.62677246 -21.43286133 41.62768555 C-13.27324359 41.80246479 -7.51290741 44.11531944 -1 49 C-0.67 32.83 -0.34 16.66 0 0 Z M-34.4375 67.625 C-39.33806715 75.37595438 -40.49495187 83.47695374 -40.375 92.5 C-40.38660156 93.37269531 -40.39820312 94.24539063 -40.41015625 95.14453125 C-40.37201587 103.72611698 -38.70088033 112.3218259 -33 119 C-27.48439411 122.55450157 -21.9961607 123.52083118 -15.5625 122.4375 C-10.48950793 121.17141993 -6.86121433 118.43316116 -3 115 C-2.47837784 114.56203094 -1.95675568 114.12406189 -1.41932678 113.67282104 C0.37499898 111.55802554 0.39444651 110.44715955 0.43579102 107.69970703 C0.46450035 106.40288498 0.46450035 106.40288498 0.49378967 105.0798645 C0.49712814 104.14858734 0.50046661 103.21731018 0.50390625 102.2578125 C0.51389145 101.29728973 0.52387665 100.33676697 0.53416443 99.34713745 C0.54935511 97.31463938 0.55638993 95.2820665 0.5559082 93.24951172 C0.56246214 90.14294737 0.61691194 87.03959122 0.67382812 83.93359375 C0.68263181 81.95834426 0.68858494 79.98307959 0.69140625 78.0078125 C0.7129628 77.0805838 0.73451935 76.1533551 0.75672913 75.19802856 C0.78068337 70.43390758 0.78068337 70.43390758 -1.29995728 66.30970764 C-6.16986519 62.15074504 -11.71960919 60.48856884 -17.9375 59.5625 C-24.43338215 60.49048316 -30.20401186 62.40968045 -34.4375 67.625 Z " fill="#FDFDFD" transform="translate(2136,531)"/>
<path d="M0 0 C7.92 0 15.84 0 24 0 C24 46.2 24 92.4 24 140 C18.06 140 12.12 140 6 140 C3.09591658 136.12788877 2.14920536 133.59682146 1 129 C0.5153125 129.45890625 0.030625 129.9178125 -0.46875 130.390625 C-9.58897029 138.73913434 -18.77932571 142.53812443 -31.19921875 142.24609375 C-40.39924451 141.43772329 -47.33153627 137.9333411 -53.65234375 131.25390625 C-64.40594493 118.09237401 -66.46876994 100.42819177 -65 84 C-62.9748731 69.73973145 -57.46429177 57.13474769 -46 48 C-35.75479185 41.71145814 -25.80182242 40.92213305 -14 42 C-10.61804649 42.88721378 -7.93049761 44.12372851 -5 46 C-3.35 46.99 -1.7 47.98 0 49 C0 32.83 0 16.66 0 0 Z M-34.52734375 68.8125 C-41.44451905 79.08734926 -41.0159062 92.64906461 -39.57421875 104.5 C-38.16187328 111.29312179 -35.82263051 116.91673452 -30 121 C-23.68137926 123.56421822 -17.75016859 123.4526354 -11.3671875 121.19921875 C-7.30986479 119.14377639 -4.16697836 116.22486047 -1 113 C-0.67 112.67 -0.34 112.34 0 112 C0.12377399 110.64611693 0.18050714 109.28599373 0.20874023 107.92675781 C0.22803085 107.06205872 0.24732147 106.19735962 0.26719666 105.30645752 C0.32477513 101.33780842 0.37423568 97.36934586 0.4050293 93.40039062 C0.42660435 91.3071238 0.46070125 89.21394706 0.50756836 87.12109375 C0.57450421 84.10636011 0.60201965 81.09349653 0.62109375 78.078125 C0.64892441 77.14462219 0.67675507 76.21111938 0.70542908 75.24932861 C0.77288088 70.45637586 0.77288088 70.45637586 -1.3044281 66.30525208 C-6.1222822 62.20889575 -11.29740236 60.28956403 -17.5 59.625 C-25.1510491 60.44475526 -29.65215954 62.77126945 -34.52734375 68.8125 Z " fill="#FDFDFD" transform="translate(2337,531)"/>
<path d="M0 0 C9.89463293 7.21993534 15.14504038 17.38660108 17.73828125 29.296875 C19.94235935 44.76185275 18.40869497 61.17043311 9.18359375 74.21484375 C0.87908873 84.31180629 -9.72417204 90.26174086 -22.7890625 91.61328125 C-38.35243712 92.65083956 -51.50326169 89.89660101 -63.5390625 79.80078125 C-72.69374787 71.25110118 -77.52541674 59.11854315 -77.9921875 46.609375 C-78.25976636 31.16770361 -76.0606254 16.2717473 -65.2890625 4.30078125 C-47.54438844 -12.04479351 -19.75122206 -12.87984222 0 0 Z M-46.4765625 17.17578125 C-54.46389598 27.01857936 -53.64930436 39.54358806 -52.7890625 51.61328125 C-51.76896859 59.22263039 -48.58007822 64.57183332 -42.7890625 69.61328125 C-36.86707149 73.32904032 -30.58561075 73.41765997 -23.7890625 72.61328125 C-17.88469092 70.89440992 -14.27325459 67.69024686 -10.7890625 62.61328125 C-5.13090822 51.09489574 -4.87482435 35.97373478 -8.87890625 23.8125 C-11.31447649 17.92740968 -14.28654469 14.77430212 -19.7890625 11.61328125 C-23.21897788 10.46997612 -25.9877041 10.40946474 -29.6015625 10.36328125 C-30.80425781 10.3375 -32.00695313 10.31171875 -33.24609375 10.28515625 C-38.85852441 10.80494035 -42.74463398 13.00889602 -46.4765625 17.17578125 Z " fill="#FCFCFC" transform="translate(1838.7890625,806.38671875)"/>
<path d="M0 0 C1.25683594 0.47566406 1.25683594 0.47566406 2.5390625 0.9609375 C13.43345328 5.71669323 20.14805043 13.91342903 24.84375 24.62890625 C27.38405468 32.03526754 28.36553339 38.99462042 28.3125 46.8125 C28.30686035 47.6883374 28.3012207 48.5641748 28.29541016 49.46655273 C28.0496623 62.63596116 24.44194447 74.29323099 15.5 84.25 C4.68900179 94.33473153 -8.86775313 97.47961595 -23.21875 97.25 C-35.99626223 96.4052058 -48.29941933 91.61939199 -57 82 C-66.96918823 68.5000576 -69.72753159 52.77285166 -67.50390625 36.33203125 C-65.07367004 23.74148546 -60.15588119 12.93862255 -49.54296875 5.2109375 C-34.89311864 -3.92552816 -16.27672079 -6.31557305 0 0 Z M-36.8125 22.8125 C-44.09305856 33.42131391 -44.61383237 47.55977877 -42.3125 60 C-40.51958238 66.60349238 -36.81262403 72.31394574 -31 76 C-25.17841279 78.77218438 -18.15618053 78.9943759 -11.91015625 77.5 C-5.25787022 74.93806928 -1.81846714 70.20475287 1.203125 64.0625 C4.99794609 54.24061013 4.68807014 38.73587163 0.96875 28.97265625 C-1.79505067 23.3447557 -4.66779995 19.23908752 -10.5625 16.66015625 C-20.59003898 13.94436444 -29.51250575 15.51250575 -36.8125 22.8125 Z " fill="#FCFCFC" transform="translate(1820,1025)"/>
<path d="M0 0 C1.051875 0.721875 2.10375 1.44375 3.1875 2.1875 C14.17766656 13.17766656 17.36054116 25.97532663 17.5 41 C17.36852015 56.4222312 13.85694398 67.76627235 3.25 79.25 C-6.96009824 88.97666556 -20.62301901 91.60704348 -34.32421875 91.28515625 C-47.66095269 90.25053183 -58.51742251 85.54058097 -67.734375 75.81640625 C-77.0649603 64.21752349 -79.94753153 49.49811525 -78.84082031 34.90039062 C-77.45023626 22.85622999 -73.39123132 10.20221276 -64 2 C-57.79758246 -2.62766044 -51.53734561 -6.15121711 -44 -8 C-43.25621094 -8.18304687 -42.51242188 -8.36609375 -41.74609375 -8.5546875 C-26.78340099 -10.98107011 -12.48965247 -8.72257596 0 0 Z M-48.3125 17.4375 C-54.74691454 26.88749846 -55.06071027 39.39824306 -53.53125 50.359375 C-51.91729501 58.69814247 -49.30799171 64.82029183 -42.375 69.9375 C-36.3735406 72.62236341 -29.28597139 73.08546017 -22.90234375 71.46875 C-16.7122777 68.9655145 -12.59111611 65.48123957 -9.8515625 59.4453125 C-5.67143939 47.44183971 -5.45136452 32.71269196 -10.83984375 21.0859375 C-13.50323005 16.29722274 -16.40964618 12.43701113 -21.78515625 10.47265625 C-32.02821328 8.28674814 -41.29866179 9.34592567 -48.3125 17.4375 Z " fill="#FCFCFC" transform="translate(2233,1031)"/>
<path d="M0 0 C7.64601791 6.11681432 11.8762384 13.62431135 13.8125 23.25 C13.90031752 25.54192467 13.93015058 27.83628006 13.92602539 30.12988281 C13.92617142 30.81321686 13.92631744 31.4965509 13.9264679 32.20059204 C13.92577315 34.45146904 13.91800132 36.70226252 13.91015625 38.953125 C13.90829051 40.5168249 13.90686734 42.08052538 13.90586853 43.64422607 C13.90205562 47.75416689 13.8922358 51.86407221 13.88116455 55.97399902 C13.87092407 60.17016113 13.86636526 64.36632899 13.86132812 68.5625 C13.85061242 76.79168475 13.83302555 85.02083387 13.8125 93.25 C5.8925 93.25 -2.0275 93.25 -10.1875 93.25 C-10.20208252 91.29255859 -10.21666504 89.33511719 -10.23168945 87.31835938 C-10.28347652 80.82825186 -10.3487986 74.33838913 -10.42321491 67.84850311 C-10.46781399 63.9162758 -10.50709258 59.9841496 -10.53393555 56.05175781 C-10.56007372 52.25197039 -10.60054884 48.45257425 -10.65068626 44.6530304 C-10.66728432 43.20832715 -10.67884236 41.76355634 -10.68511391 40.31877136 C-10.73496866 29.44653238 -10.73496866 29.44653238 -14.1875 19.25 C-18.27981255 15.28557222 -22.78809428 14.79996581 -28.27734375 14.82421875 C-34.35795923 15.71386585 -40.83095801 18.89345801 -45.1875 23.25 C-45.52061876 26.28576169 -45.52061876 26.28576169 -45.50634766 29.90283203 C-45.51639328 30.58587402 -45.5264389 31.26891602 -45.53678894 31.97265625 C-45.5677237 34.23436629 -45.58468423 36.49595744 -45.6015625 38.7578125 C-45.62026592 40.32438182 -45.6398387 41.89094099 -45.6602478 43.45748901 C-45.71166252 47.58382183 -45.75123803 51.71018734 -45.78839111 55.83666992 C-45.82837241 60.0461441 -45.87949146 64.25548118 -45.9296875 68.46484375 C-46.02655737 76.72647596 -46.10989742 84.98816432 -46.1875 93.25 C-54.4375 93.25 -62.6875 93.25 -71.1875 93.25 C-71.1875 61.24 -71.1875 29.23 -71.1875 -3.75 C-55.1875 -3.75 -55.1875 -3.75 -50.1875 -0.75 C-48.875 2.9375 -48.875 2.9375 -48.1875 6.25 C-47.36958984 5.66992188 -47.36958984 5.66992188 -46.53515625 5.078125 C-32.01252575 -4.9511788 -16.27287989 -8.93413013 0 0 Z " fill="#FCFCFC" transform="translate(1598.1875,577.75)"/>
<path d="M0 0 C1.23877155 1.04839192 2.44797208 2.13273288 3.625 3.25 C4.23988281 3.82492187 4.85476563 4.39984375 5.48828125 4.9921875 C13.73020842 13.49884467 16.75539414 24.29393119 16.8125 35.875 C16.82667969 37.18726563 16.84085938 38.49953125 16.85546875 39.8515625 C16.625 43.25 16.625 43.25 14.625 46.25 C11.99276733 46.61076355 11.99276733 46.61076355 8.61474609 46.59057617 C7.35358978 46.59034958 6.09243347 46.59012299 4.7930603 46.58988953 C3.41151579 46.57456844 2.02997487 46.55892044 0.6484375 46.54296875 C-0.76117503 46.53737433 -2.17079338 46.5331035 -3.58041382 46.53010559 C-7.29268464 46.51864454 -11.004604 46.48916704 -14.71673584 46.45599365 C-18.50381719 46.4253196 -22.29095526 46.41160599 -26.078125 46.39648438 C-33.510577 46.36429811 -40.94273928 46.3130871 -48.375 46.25 C-47.61187484 48.8298032 -46.8383746 51.40569959 -46.05859375 53.98046875 C-45.84473022 54.70745972 -45.6308667 55.43445068 -45.41052246 56.18347168 C-43.28423571 63.1488938 -40.55660159 67.34103905 -34.25 71.125 C-25.16172489 74.68128157 -16.78535338 73.91781461 -7.80859375 70.33984375 C-5.87570809 69.47423364 -3.98971387 68.5040767 -2.125 67.5 C1.5729285 65.81912341 3.60668927 65.47453653 7.625 66.25 C11.56364467 69.56222007 14.717623 73.08493091 15.625 78.25 C4.32236926 89.2053432 -8.31336115 93.25571372 -24 93.625 C-36.69883194 93.32233354 -48.58933379 89.98707559 -58.0625 81.25 C-69.41730767 69.07121514 -73.08386793 53.93818927 -72.66015625 37.59765625 C-71.44558109 23.33887663 -65.73843467 12.03865594 -55.375 2.25 C-40.60926408 -9.55129563 -15.54848108 -10.90180858 0 0 Z M-42.125 18.0625 C-45.05710717 22.21631849 -47.375 26.03196629 -47.375 31.25 C-33.515 31.25 -19.655 31.25 -5.375 31.25 C-5.7812481 23.49154707 -5.7812481 23.49154707 -9.0625 17.875 C-9.77986328 16.93527344 -9.77986328 16.93527344 -10.51171875 15.9765625 C-16.08842365 10.80904978 -21.77516215 10.72685919 -29.0234375 10.90234375 C-35.05875289 11.52838462 -37.87230659 13.71315447 -42.125 18.0625 Z " fill="#FCFCFC" transform="translate(1843.375,579.75)"/>
<path d="M0 0 C8.64304258 7.87368084 13.8009585 17.89242433 14.3671875 29.5703125 C14.46970326 34.03814366 14.46564259 38.42558689 14.0625 42.87890625 C12.0625 44.87890625 12.0625 44.87890625 9.4682312 45.11941528 C7.82275803 45.11275345 7.82275803 45.11275345 6.14404297 45.10595703 C4.90290741 45.10580597 3.66177185 45.10565491 2.38302612 45.10549927 C1.0235783 45.09528525 -0.3358679 45.08485325 -1.6953125 45.07421875 C-3.08250729 45.07048909 -4.46970471 45.0676419 -5.85690308 45.06564331 C-9.50990051 45.05800309 -13.16273917 45.03835141 -16.81567383 45.01623535 C-20.54245862 44.99578521 -24.26926904 44.98664338 -27.99609375 44.9765625 C-35.30996825 44.95510576 -42.62371189 44.92096528 -49.9375 44.87890625 C-49.63042896 46.4831751 -49.31955751 48.08671684 -49.00708008 49.68994141 C-48.83437088 50.58298981 -48.66166168 51.47603821 -48.48371887 52.39614868 C-47.23540952 58.07015528 -44.6144851 63.11127331 -40.625 67.31640625 C-33.53890762 71.4362274 -27.16872593 72.90780949 -18.9375 71.87890625 C-13.89622664 70.51132677 -9.28203098 68.60288447 -4.6875 66.12890625 C-0.93050132 64.42117958 0.97641209 64.03350875 5.0625 64.87890625 C8.2343657 67.51298157 10.94703673 70.32962898 13.0625 73.87890625 C12.94575795 76.40520428 12.39730521 77.47857342 10.78515625 79.40625 C-1.96037781 90.23245657 -17.50360975 93.16224692 -33.9375 91.87890625 C-45.58101092 90.18735503 -56.52436536 85.2291414 -63.9375 75.87890625 C-73.50867223 62.79368045 -76.32632456 46.98489451 -74.25 31.06640625 C-71.86712149 18.17361323 -65.92108677 6.45966063 -54.9375 -1.12109375 C-37.9215157 -10.48609533 -16.33399292 -11.98026319 0 0 Z M-44.45703125 16.48828125 C-48.02811047 20.97528569 -48.39771672 23.71977311 -49.9375 29.87890625 C-35.7475 29.87890625 -21.5575 29.87890625 -6.9375 29.87890625 C-8.9517637 20.81471959 -10.38627637 16.10667645 -17.9375 10.87890625 C-27.73890423 7.61177151 -37.37748126 8.99014604 -44.45703125 16.48828125 Z " fill="#FDFDFD" transform="translate(1566.9375,1030.12109375)"/>
<path d="M0 0 C7.05873143 5.48648499 10.56897104 13.29747432 12.3125 21.875 C12.71027169 27.38217279 12.66354227 32.86446981 12.60546875 38.3828125 C12.59986233 39.96035353 12.59559719 41.53789984 12.59260559 43.115448 C12.58123898 47.23529896 12.55184404 51.35482452 12.51849365 55.47454834 C12.48761461 59.69132081 12.47406243 63.90814667 12.45898438 68.125 C12.42696494 76.3751648 12.37426569 84.62500423 12.3125 92.875 C4.3925 92.875 -3.5275 92.875 -11.6875 92.875 C-11.70208252 90.84649902 -11.71666504 88.81799805 -11.73168945 86.72802734 C-11.78210075 80.0143913 -11.84870724 73.3009856 -11.92321491 66.58757591 C-11.96787978 62.51852792 -12.00714426 58.44957914 -12.03393555 54.38037109 C-12.06000758 50.45092069 -12.10043704 46.52185291 -12.15068626 42.59263992 C-12.16732873 41.09604285 -12.17885932 39.59937963 -12.18511391 38.10270309 C-12.19478401 36.00084384 -12.22287527 33.89995763 -12.25512695 31.79833984 C-12.27178154 30.0063063 -12.27178154 30.0063063 -12.28877258 28.17807007 C-12.84008723 23.61096276 -14.25533458 20.17289992 -17.6875 17.0625 C-22.64409409 14.11952226 -28.28580976 14.07939289 -33.80859375 15.37109375 C-35.85297637 16.07646553 -37.73259393 16.9517773 -39.6875 17.875 C-40.30722183 18.11103439 -40.92694366 18.34706879 -41.56544495 18.59025574 C-43.90404687 19.7680344 -45.12784502 20.74661544 -46.6875 22.875 C-47.76636498 28.12016276 -47.64284104 33.3479887 -47.58984375 38.67578125 C-47.59923153 40.2380735 -47.611691 41.80035005 -47.62709045 43.3625946 C-47.65929933 47.46464213 -47.64988106 51.56557105 -47.63171387 55.66766357 C-47.62055086 59.85734267 -47.64886413 64.04673608 -47.67382812 68.23632812 C-47.71696269 76.44953963 -47.71246056 84.66171285 -47.6875 92.875 C-55.6075 92.875 -63.5275 92.875 -71.6875 92.875 C-71.6875 60.865 -71.6875 28.855 -71.6875 -4.125 C-56.6875 -4.125 -56.6875 -4.125 -51.6875 -2.125 C-50.54296875 -0.1796875 -50.54296875 -0.1796875 -49.875 2 C-49.64167969 2.72445312 -49.40835937 3.44890625 -49.16796875 4.1953125 C-49.00941406 4.74960937 -48.85085938 5.30390625 -48.6875 5.875 C-48.21441406 5.48828125 -47.74132813 5.1015625 -47.25390625 4.703125 C-33.62044992 -6.03355406 -15.36795664 -9.63414202 0 0 Z " fill="#FDFDFD" transform="translate(1945.6875,803.125)"/>
<path d="M0 0 C8.63258959 7.11127257 11.05495538 16.71085545 12.6875 27.375 C13.04316544 32.5020923 13.04161488 37.60634627 12.98046875 42.7421875 C12.97485364 44.15706933 12.97059264 45.57195711 12.96760559 46.98684692 C12.95630706 50.65949427 12.9269751 54.33176934 12.89349365 58.00427246 C12.86246357 61.77232837 12.84903088 65.54044612 12.83398438 69.30859375 C12.802086 76.66422979 12.7510788 84.01956218 12.6875 91.375 C9.91563012 91.48287818 7.14794463 91.56223327 4.375 91.625 C3.58931641 91.65851563 2.80363281 91.69203125 1.99414062 91.7265625 C-3.81545261 91.82544919 -3.81545261 91.82544919 -6.3125 89.5625 C-7.54936084 86.85686691 -7.97777361 84.32059226 -8.3125 81.375 C-9.19550781 81.98988281 -10.07851562 82.60476563 -10.98828125 83.23828125 C-22.68521255 91.19960347 -32.8425728 94.86962358 -47.3125 93.375 C-54.21707946 91.71073177 -60.71063845 89.41903623 -64.6796875 83.25 C-68.6181713 76.12957732 -70.30989231 69.18184868 -68.625 61.125 C-65.87141729 53.25762082 -61.03812481 48.01359808 -53.8359375 43.9921875 C-40.54840647 37.59732386 -26.80365931 36.50928552 -12.3125 35.375 C-11.84186428 28.26317127 -11.76323821 22.19349157 -16.3125 16.375 C-20.66636495 12.9768615 -25.15265321 12.87031666 -30.5 13.015625 C-36.0542589 13.72533586 -40.53997681 16.34102814 -45.3125 19.125 C-49.36618232 20.8140343 -52.98593681 21.2584776 -57.3125 20.375 C-59.6875 18.1875 -59.6875 18.1875 -61.3125 15.375 C-61.89 14.50875 -62.4675 13.6425 -63.0625 12.75 C-64.3125 10.375 -64.3125 10.375 -64.3125 7.375 C-47.58044525 -7.94154469 -19.33294296 -12.74381259 0 0 Z M-44.296875 59.6015625 C-46.31722601 63.12940618 -46.34632534 66.50350236 -45.3125 70.375 C-42.78281526 73.65675318 -41.23518669 75.06743777 -37.3125 76.375 C-30.78957245 76.97747288 -25.10100627 76.54599447 -19.3125 73.375 C-18.56226563 72.96894531 -17.81203125 72.56289063 -17.0390625 72.14453125 C-14.45252089 70.37933005 -12.95644157 69.05924834 -11.3125 66.375 C-10.64077914 61.27936751 -10.8395161 56.47928454 -11.3125 51.375 C-21.62413167 50.58851962 -36.67487353 51.69875045 -44.296875 59.6015625 Z " fill="#FCFCFC" transform="translate(2041.3125,804.625)"/>
<path d="M0 0 C8.63258959 7.11127257 11.05495538 16.71085545 12.6875 27.375 C13.04316544 32.5020923 13.04161488 37.60634627 12.98046875 42.7421875 C12.97485364 44.15706933 12.97059264 45.57195711 12.96760559 46.98684692 C12.95630706 50.65949427 12.9269751 54.33176934 12.89349365 58.00427246 C12.86246357 61.77232837 12.84903088 65.54044612 12.83398438 69.30859375 C12.802086 76.66422979 12.7510788 84.01956218 12.6875 91.375 C9.91563012 91.48287818 7.14794463 91.56223327 4.375 91.625 C3.58931641 91.65851563 2.80363281 91.69203125 1.99414062 91.7265625 C-3.81545261 91.82544919 -3.81545261 91.82544919 -6.3125 89.5625 C-7.54936084 86.85686691 -7.97777361 84.32059226 -8.3125 81.375 C-9.19550781 81.98988281 -10.07851562 82.60476563 -10.98828125 83.23828125 C-22.68521255 91.19960347 -32.8425728 94.86962358 -47.3125 93.375 C-54.21811992 91.71048098 -60.75121333 89.42183294 -64.6796875 83.21484375 C-69.02180145 75.27883323 -70.35367962 68.23828593 -68.03125 59.4375 C-65.57614813 52.39242507 -60.20077014 47.54605305 -53.8359375 43.9921875 C-40.54840647 37.59732386 -26.80365931 36.50928552 -12.3125 35.375 C-11.84186428 28.26317127 -11.76323821 22.19349157 -16.3125 16.375 C-20.66636495 12.9768615 -25.15265321 12.87031666 -30.5 13.015625 C-36.0542589 13.72533586 -40.53997681 16.34102814 -45.3125 19.125 C-49.36618232 20.8140343 -52.98593681 21.2584776 -57.3125 20.375 C-59.6875 18.1875 -59.6875 18.1875 -61.3125 15.375 C-61.89 14.50875 -62.4675 13.6425 -63.0625 12.75 C-64.3125 10.375 -64.3125 10.375 -64.3125 7.375 C-47.58044525 -7.94154469 -19.33294296 -12.74381259 0 0 Z M-44.296875 59.6015625 C-46.31722601 63.12940618 -46.34632534 66.50350236 -45.3125 70.375 C-42.78281526 73.65675318 -41.23518669 75.06743777 -37.3125 76.375 C-30.78957245 76.97747288 -25.10100627 76.54599447 -19.3125 73.375 C-18.56226563 72.96894531 -17.81203125 72.56289063 -17.0390625 72.14453125 C-14.45252089 70.37933005 -12.95644157 69.05924834 -11.3125 66.375 C-10.64077914 61.27936751 -10.8395161 56.47928454 -11.3125 51.375 C-21.62413167 50.58851962 -36.67487353 51.69875045 -44.296875 59.6015625 Z " fill="#FCFCFC" transform="translate(1595.3125,804.625)"/>
<path d="M0 0 C7.64897977 6.40920302 10.84004159 12.47022229 13.26171875 22.01171875 C13.50222778 25.51097107 13.50222778 25.51097107 13.48876953 29.23217773 C13.48906158 29.91594986 13.48935364 30.59972198 13.48965454 31.30421448 C13.48827378 33.5388814 13.47277268 35.77320465 13.45703125 38.0078125 C13.45329664 39.56722329 13.45045179 41.12663643 13.44845581 42.68605042 C13.44085457 46.77133776 13.42123661 50.85648074 13.39904785 54.94171143 C13.37851345 59.11802213 13.36943792 63.29435638 13.359375 67.47070312 C13.33798708 75.65110759 13.30389399 83.83139516 13.26171875 92.01171875 C10.65692992 92.09265005 8.05465222 92.15217309 5.44921875 92.19921875 C4.71123047 92.22435547 3.97324219 92.24949219 3.21289062 92.27539062 C-2.21980828 92.34913767 -2.21980828 92.34913767 -4.70703125 90.73046875 C-6.34994172 87.99228463 -6.44286019 85.14318204 -6.73828125 82.01171875 C-7.62128906 82.62660156 -8.50429687 83.24148438 -9.4140625 83.875 C-21.11822913 91.84124682 -31.26194132 95.49225352 -45.73828125 94.01171875 C-53.01815958 92.31914704 -59.82612994 89.63358469 -63.94921875 83.08984375 C-67.49096986 76.40824236 -68.90132848 69.50685014 -67.3125 62 C-64.98047264 54.7177796 -60.08759523 49.14109837 -53.55078125 45.26171875 C-39.97982569 38.43023773 -25.70652692 36.85312901 -10.73828125 36.01171875 C-10.27608815 28.61662911 -10.9172921 22.44979927 -15.73828125 16.57421875 C-20.36897961 12.95648565 -26.14816557 13.47097553 -31.73828125 14.01171875 C-36.29917622 15.31115568 -40.38386364 17.08675063 -44.30078125 19.76171875 C-48.09908139 21.70956497 -51.597063 22.16165281 -55.73828125 21.01171875 C-59.93073877 17.4032418 -61.90328936 13.42967749 -62.73828125 8.01171875 C-45.31257204 -4.70047895 -19.60712219 -14.23684051 0 0 Z M-42.73828125 60.01171875 C-44.79431494 63.13688996 -44.74170918 64.81632651 -44.67578125 68.57421875 C-43.55634668 72.67881217 -42.2733729 73.76995331 -38.73828125 76.01171875 C-34.20286789 78.27942543 -28.03136588 77.64367121 -23.2578125 76.328125 C-20.95902729 75.37458415 -18.87981945 74.27735577 -16.73828125 73.01171875 C-16.04089844 72.65722656 -15.34351562 72.30273438 -14.625 71.9375 C-12.27733993 70.44610072 -11.11983395 69.44898625 -9.73828125 67.01171875 C-9.15280059 61.93932725 -9.33114504 57.09122763 -9.73828125 52.01171875 C-20.81191596 51.40153888 -34.15955621 52.11459104 -42.73828125 60.01171875 Z " fill="#FCFCFC" transform="translate(2242.73828125,578.98828125)"/>
<path d="M0 0 C7.14583581 5.74338205 11.59290009 12.62276032 13.77734375 21.4921875 C14.01785278 25.02940369 14.01785278 25.02940369 14.00439453 28.80444336 C14.00468658 29.49796906 14.00497864 30.19149475 14.00527954 30.90603638 C14.00389849 33.17316691 13.98839597 35.43995892 13.97265625 37.70703125 C13.96892175 39.28886231 13.96607684 40.8706957 13.96408081 42.45252991 C13.95647876 46.59700003 13.93686008 50.7413279 13.91467285 54.88574219 C13.89414022 59.12237626 13.88506329 63.35903353 13.875 67.59570312 C13.85361064 75.89459622 13.81951655 84.19337411 13.77734375 92.4921875 C11.1720727 92.60011587 8.57126064 92.67943628 5.96484375 92.7421875 C5.22685547 92.77570313 4.48886719 92.80921875 3.72851562 92.84375 C-1.73340606 92.94260831 -1.73340606 92.94260831 -4.19140625 90.6796875 C-5.46655357 87.97482955 -5.8863204 85.45194299 -6.22265625 82.4921875 C-7.10566406 83.10707031 -7.98867187 83.72195313 -8.8984375 84.35546875 C-20.60260413 92.32171557 -30.74631632 95.97272227 -45.22265625 94.4921875 C-52.58902403 92.77950699 -58.91130045 90.07467666 -63.43359375 83.81640625 C-67.11993624 77.50256433 -67.92130941 70.1768408 -66.8515625 63.00390625 C-64.80279234 55.63596886 -60.52558859 50.53705504 -54.07421875 46.54296875 C-39.96548592 39.11486107 -25.88517923 37.7181607 -10.22265625 36.4921875 C-10.18860603 34.91812161 -10.16452608 33.34383841 -10.14453125 31.76953125 C-10.1300293 30.89288818 -10.11552734 30.01624512 -10.10058594 29.11303711 C-10.32717109 24.24825387 -11.648267 20.01737709 -15.22265625 16.5546875 C-20.99502123 13.4881186 -27.78534516 13.51286897 -33.9921875 15.28125 C-37.51424749 16.66472784 -40.65588028 18.10512098 -43.78515625 20.2421875 C-47.52084473 22.15792518 -51.12019778 22.31575796 -55.22265625 21.4921875 C-57.59765625 19.3046875 -57.59765625 19.3046875 -59.22265625 16.4921875 C-59.80015625 15.6259375 -60.37765625 14.7596875 -60.97265625 13.8671875 C-62.22265625 11.4921875 -62.22265625 11.4921875 -62.22265625 8.4921875 C-46.79198949 -5.63306494 -18.24490284 -12.37703426 0 0 Z M-41.22265625 59.4921875 C-43.6934981 63.46050926 -44.33688672 65.52938781 -43.78515625 70.1796875 C-41.79476544 74.39931601 -40.50660014 75.61326474 -36.22265625 77.4921875 C-29.47959865 78.39812501 -23.19658974 77.82450334 -17.22265625 74.4921875 C-16.47371094 74.08613281 -15.72476562 73.68007812 -14.953125 73.26171875 C-12.36316201 71.49727812 -10.86779195 70.17838563 -9.22265625 67.4921875 C-8.55093539 62.39655501 -8.74967235 57.59647204 -9.22265625 52.4921875 C-19.86690243 51.90566781 -32.59863352 52.59296932 -41.22265625 59.4921875 Z " fill="#FDFDFD" transform="translate(2007.22265625,1027.5078125)"/>
<path d="M0 0 C3.3956697 -0.08745946 6.79104773 -0.14054444 10.1875 -0.1875 C11.14720703 -0.21263672 12.10691406 -0.23777344 13.09570312 -0.26367188 C14.02705078 -0.27333984 14.95839844 -0.28300781 15.91796875 -0.29296875 C16.77156982 -0.3086792 17.6251709 -0.32438965 18.50463867 -0.34057617 C21.68229766 0.09312252 23.45675803 1.05466546 26 3 C27.29418945 5.1159668 27.29418945 5.1159668 28.30078125 7.76171875 C28.71279785 8.83212402 29.12481445 9.9025293 29.54931641 11.00537109 C30.0350711 12.33611543 30.51839668 13.66774764 31 15 C31.29453064 15.80407288 31.58906128 16.60814575 31.89251709 17.43658447 C33.99808344 23.19427657 36.05985255 28.96681668 38.10327148 34.74682617 C39.19165299 37.82424265 40.28588481 40.89953339 41.38085938 43.97460938 C42.08107405 45.94779431 42.78095564 47.92109749 43.48046875 49.89453125 C43.80444138 50.80507767 44.128414 51.71562408 44.46220398 52.65376282 C46.13748456 57.40159804 47.67874998 62.14135634 49 67 C51.07523054 63.22151421 52.36703408 59.19075012 53.75 55.125 C57.16686455 45.24806572 60.71270319 35.4184153 64.30041504 25.60247803 C64.93237029 23.8705112 65.56185615 22.13764132 66.18884277 20.40386963 C67.08284714 17.93345135 67.98564302 15.46641462 68.890625 13 C69.15919312 12.25281708 69.42776123 11.50563416 69.70446777 10.73580933 C71.05129876 7.09518642 72.29327038 3.83241817 75 1 C77.88265149 0.03911617 79.67662271 -0.11670941 82.66796875 -0.09765625 C83.56064453 -0.09443359 84.45332031 -0.09121094 85.37304688 -0.08789062 C86.76620117 -0.07532227 86.76620117 -0.07532227 88.1875 -0.0625 C89.12787109 -0.05798828 90.06824219 -0.05347656 91.03710938 -0.04882812 C93.35813712 -0.03704626 95.67903644 -0.02059558 98 0 C97.41903068 4.18257345 96.45150698 7.80018002 94.8737793 11.71289062 C94.43208908 12.81685181 93.99039886 13.92081299 93.5353241 15.05822754 C93.05315933 16.24557495 92.57099457 17.43292236 92.07421875 18.65625 C91.56577381 19.92080521 91.05787635 21.18558066 90.55049133 22.45056152 C89.20742067 25.79488811 87.85717328 29.13627043 86.50531006 32.47705078 C85.17848924 35.75909788 83.85792955 39.04365949 82.53710938 42.328125 C80.96277985 46.24205953 79.38751778 50.15560701 77.80783081 54.06738281 C75.04367731 60.91341874 72.29300437 67.76449363 69.56494141 74.625 C69.0065035 76.02779466 68.44805738 77.43058605 67.88960266 78.83337402 C66.82674991 81.50358483 65.76723099 84.17508796 64.70939636 86.84729004 C64.2365773 88.03528198 63.76375824 89.22327393 63.27661133 90.44726562 C62.85986649 91.49837524 62.44312164 92.54948486 62.01374817 93.63244629 C61 96 61 96 60 97 C58.36527118 97.08700342 56.72685945 97.10701063 55.08984375 97.09765625 C54.10048828 97.09443359 53.11113281 97.09121094 52.09179688 97.08789062 C51.05087891 97.07951172 50.00996094 97.07113281 48.9375 97.0625 C47.89271484 97.05798828 46.84792969 97.05347656 45.77148438 97.04882812 C43.1809334 97.03699913 40.59049441 97.02051689 38 97 C33.21173737 86.97961493 29.23621201 76.64568954 25.1875 66.3125 C23.68389824 62.48504423 22.17823734 58.6584013 20.671875 54.83203125 C20.09789223 53.3732103 20.09789223 53.3732103 19.51231384 51.88491821 C16.81497326 45.03966016 14.08176226 38.20950688 11.328125 31.38671875 C10.95597366 30.46321121 10.58382233 29.53970367 10.20039368 28.58821106 C8.03920845 23.22582359 8.03920845 23.22582359 5.86776733 17.86758423 C4.87485016 15.42390814 3.88805087 12.97784134 2.90234375 10.53125 C2.60632263 9.80826218 2.31030151 9.08527435 2.00531006 8.34037781 C0.82622346 5.40076077 0 3.19926626 0 0 Z " fill="#FCFCFC" transform="translate(1670,574)"/>
<path d="M0 0 C1.70703125 1.46484375 1.70703125 1.46484375 3.70703125 4.46484375 C2.56242126 6.1115281 1.41630867 7.75716809 0.26953125 9.40234375 C-0.36855469 10.31886719 -1.00664063 11.23539063 -1.6640625 12.1796875 C-3.29296875 14.46484375 -3.29296875 14.46484375 -4.29296875 15.46484375 C-9.08583462 15.2034147 -12.67786944 14.39096735 -17.04296875 12.40234375 C-23.08595946 9.85645415 -30.10513441 8.76428104 -36.3515625 11.30078125 C-38.60896292 12.7407537 -40.0896138 14.05813385 -41.29296875 16.46484375 C-41.79339021 19.38022404 -41.79339021 19.38022404 -41.29296875 22.46484375 C-37.61039711 26.07727117 -33.52078336 27.7445102 -28.73046875 29.40234375 C-27.30158742 29.92050951 -25.87320555 30.44005455 -24.4453125 30.9609375 C-23.7426123 31.21472168 -23.03991211 31.46850586 -22.31591797 31.72998047 C-2.82720422 38.80951563 -2.82720422 38.80951563 2.14453125 47.08984375 C5.89462678 55.19005009 5.41443838 62.80718328 2.609375 71.18359375 C-0.27976947 78.4877512 -5.85946099 84.19335521 -12.82421875 87.76171875 C-25.68024597 93.1054891 -41.22181467 93.35749949 -54.29296875 88.46484375 C-59.19193749 86.13348172 -63.7815963 83.47242538 -68.29296875 80.46484375 C-66.92836282 75.37858529 -64.7040066 71.43345509 -61.29296875 67.46484375 C-58.46234224 66.0495305 -56.44236263 66.2269399 -53.29296875 66.46484375 C-50.22265625 67.7421875 -50.22265625 67.7421875 -47.16796875 69.40234375 C-40.7033758 72.88138041 -34.6928324 74.92194982 -27.32421875 72.93359375 C-23.63148317 71.49405276 -21.04259256 70.06701043 -19.29296875 66.46484375 C-18.63948111 62.62560387 -18.88104778 61.06141894 -21.10546875 57.83984375 C-25.5142611 54.55486121 -30.10449091 53.17593751 -35.29296875 51.46484375 C-58.23099743 43.66683752 -58.23099743 43.66683752 -64.29296875 31.46484375 C-66.56305906 24.65457282 -66.41236512 16.09726823 -63.60546875 9.46484375 C-58.79460074 0.44446623 -52.19798169 -3.91891218 -42.79296875 -7.34765625 C-28.1012309 -11.32333648 -12.41639778 -8.68456765 0 0 Z " fill="#FCFCFC" transform="translate(1926.29296875,1030.53515625)"/>
<path d="M0 0 C1.70703125 1.46484375 1.70703125 1.46484375 3.70703125 4.46484375 C2.75157759 5.92506538 1.79256447 7.38295843 0.83203125 8.83984375 C0.29835938 9.65195312 -0.2353125 10.4640625 -0.78515625 11.30078125 C-2.29296875 13.46484375 -2.29296875 13.46484375 -4.29296875 15.46484375 C-8.80530218 15.27282956 -12.30886135 14.09630571 -16.48046875 12.40234375 C-22.92110796 9.98045049 -29.6639443 8.97757163 -36.34765625 11.125 C-39.48677284 12.85977496 -40.32304726 14.55191312 -41.48046875 17.90234375 C-41.63711295 21.54302635 -41.63711295 21.54302635 -39.25390625 24 C-35.94877594 26.75136837 -32.74620596 28.12498497 -28.73046875 29.46484375 C-27.30158095 29.97385232 -25.87319907 30.48428323 -24.4453125 30.99609375 C-23.7426123 31.24359375 -23.03991211 31.49109375 -22.31591797 31.74609375 C-2.93338719 38.63266998 -2.93338719 38.63266998 2.14453125 47.08984375 C5.83127633 55.05321313 5.72889997 63.65082908 2.93359375 71.9453125 C-1.73316643 81.53149184 -9.63641479 86.73448772 -19.36328125 90.203125 C-34.15077749 94.33575228 -49.85779662 91.30800021 -63.015625 84.0625 C-65.35516812 82.42120817 -66.7295888 80.83810577 -68.29296875 78.46484375 C-67.36381118 76.83505927 -66.42432341 75.211161 -65.48046875 73.58984375 C-64.95839844 72.68492187 -64.43632813 71.78 -63.8984375 70.84765625 C-62.29296875 68.46484375 -62.29296875 68.46484375 -59.29296875 66.46484375 C-54.39444609 65.92586981 -51.44581088 67.07742955 -47.16796875 69.40234375 C-40.7033758 72.88138041 -34.6928324 74.92194982 -27.32421875 72.93359375 C-23.63148317 71.49405276 -21.04259256 70.06701043 -19.29296875 66.46484375 C-18.62616507 63.50763747 -18.62616507 63.50763747 -19.29296875 60.46484375 C-24.17568809 53.62903667 -32.7955846 51.94139587 -40.41796875 49.46484375 C-49.16336109 46.58334909 -57.67189061 43.17802321 -62.60546875 34.90234375 C-66.02960899 27.92724327 -66.51574911 20.22305428 -64.57421875 12.66796875 C-61.47804474 4.42815083 -57.3097945 -0.63901784 -49.29296875 -4.34765625 C-48.6896875 -4.64607422 -48.08640625 -4.94449219 -47.46484375 -5.25195312 C-32.45186793 -12.48102735 -13.31190989 -9.3109277 0 0 Z " fill="#FCFCFC" transform="translate(2007.29296875,581.53515625)"/>
<path d="M0 0 C1.01695502 0.9827525 2.02301481 1.97750308 3 3 C1.54410902 7.80444022 -1.26904357 11.67962729 -5 15 C-6.828125 15.88671875 -6.828125 15.88671875 -9 16 C-11.7421875 14.78515625 -11.7421875 14.78515625 -14.875 13.0625 C-22.71220962 9.28053945 -29.960488 8.52624348 -38.44921875 10.59765625 C-44.11938531 12.91972446 -47.4471537 17.56910405 -50 23 C-51.67749027 28.53629042 -52.35828405 33.54370993 -52.3125 39.3125 C-52.30758545 40.05161621 -52.3026709 40.79073242 -52.29760742 41.55224609 C-52.10864177 50.44622939 -50.66513068 59.56228848 -44 66 C-38.60899567 70.30255928 -32.84853178 70.60476287 -26.12890625 70.39453125 C-20.80863494 69.72368555 -16.98331294 67.68281098 -12.9375 64.25 C-9.65247285 62.13062764 -7.82095157 62.23580969 -4 63 C-0.82404127 65.62837964 1.88495355 68.45142207 4 72 C3.87654598 74.47822507 3.34270296 75.57633485 1.79296875 77.4921875 C-10.59837795 88.16502627 -24.05443432 90.88065991 -40 90 C-52.11822056 88.67835075 -61.42495265 82.35433308 -69 73 C-78.21145557 58.97919499 -79.87014923 42.09872499 -76.875 25.875 C-73.85594566 13.39344663 -68.17933069 3.07118503 -57.0703125 -3.81640625 C-38.99071437 -13.36225005 -16.31983171 -13.24661665 0 0 Z " fill="#FCFCFC" transform="translate(1701,808)"/>
<path d="M0 0 C7.92 0 15.84 0 24 0 C24 46.2 24 92.4 24 140 C16.08 140 8.16 140 0 140 C0 93.8 0 47.6 0 0 Z " fill="#FDFDFD" transform="translate(2075,756)"/>
<path d="M0 0 C1.22589844 -0.01417969 2.45179687 -0.02835938 3.71484375 -0.04296875 C6.81893812 0.17073203 8.47612551 0.54751818 11.0625 2.1875 C11.33809055 19.27411417 11.33809055 19.27411417 8.0625 24.1875 C5.45506617 24.30385002 3.03070507 24.26971663 0.4375 24.125 C-5.92852663 23.97315889 -10.84296927 23.95489571 -15.9375 28.1875 C-22.54351704 35.22406181 -22.8078963 42.10472024 -22.7421875 51.41015625 C-22.75345849 52.76495204 -22.76734818 54.11972832 -22.78372192 55.47447205 C-22.81953117 59.01081231 -22.82016316 62.54628409 -22.81304932 66.08276367 C-22.81213169 69.70311702 -22.84506147 73.32315298 -22.875 76.94335938 C-22.92864627 84.0248435 -22.94193578 91.10577902 -22.9375 98.1875 C-31.1875 98.1875 -39.4375 98.1875 -47.9375 98.1875 C-47.9375 66.1775 -47.9375 34.1675 -47.9375 1.1875 C-31.9375 1.1875 -31.9375 1.1875 -26.9375 3.1875 C-26.01171875 5.5703125 -26.01171875 5.5703125 -25.625 8.3125 C-25.48449219 9.22257813 -25.34398437 10.13265625 -25.19921875 11.0703125 C-25.11285156 11.76898437 -25.02648438 12.46765625 -24.9375 13.1875 C-24.2775 13.1875 -23.6175 13.1875 -22.9375 13.1875 C-21.33901938 11.53012726 -21.33901938 11.53012726 -19.6875 9.4375 C-13.95200646 2.68634614 -8.99762773 0.04720686 0 0 Z " fill="#FCFCFC" transform="translate(1923.9375,572.8125)"/>
<path d="M0 0 C1.1034375 -0.00515625 2.206875 -0.0103125 3.34375 -0.015625 C6.46392334 0.24696385 8.68304814 0.92561218 11.5 2.25 C11.3859425 5.16747073 11.25919732 8.08344495 11.125 11 C11.0940625 11.825 11.063125 12.65 11.03125 13.5 C10.99257812 14.29921875 10.95390625 15.0984375 10.9140625 15.921875 C10.8826416 16.6550293 10.8512207 17.38818359 10.81884766 18.14355469 C10.46227477 20.49922918 9.66337117 22.18450591 8.5 24.25 C7.42621094 24.21519531 6.35242187 24.18039062 5.24609375 24.14453125 C3.80991161 24.11637082 2.37371238 24.08907309 0.9375 24.0625 C-0.11920898 24.02479492 -0.11920898 24.02479492 -1.19726562 23.98632812 C-6.39379173 23.91448675 -9.89023373 24.81054605 -14.5 27.25 C-19.72830502 32.59713013 -22.85136724 37.79742636 -22.93237305 45.34716797 C-22.95216721 46.52793915 -22.97196136 47.70871033 -22.99235535 48.92526245 C-23.00194023 50.81464035 -23.00194023 50.81464035 -23.01171875 52.7421875 C-23.02966995 54.04326447 -23.04762115 55.34434143 -23.06611633 56.68484497 C-23.11344821 60.12722787 -23.14336555 63.569546 -23.16955566 67.012146 C-23.19944672 70.5316649 -23.24594743 74.05096101 -23.29101562 77.5703125 C-23.37685702 84.4634293 -23.44274994 91.35658702 -23.5 98.25 C-31.42 98.25 -39.34 98.25 -47.5 98.25 C-47.5 66.24 -47.5 34.23 -47.5 1.25 C-31.5 1.25 -31.5 1.25 -26.5 4.25 C-25.57421875 6.73046875 -25.57421875 6.73046875 -25.1875 9.4375 C-25.04699219 10.33855469 -24.90648438 11.23960938 -24.76171875 12.16796875 C-24.67535156 12.85503906 -24.58898438 13.54210938 -24.5 14.25 C-23.84 13.569375 -23.18 12.88875 -22.5 12.1875 C-20.21921911 9.91967809 -17.88445672 7.72115589 -15.5 5.5625 C-14.860625 4.98113281 -14.22125 4.39976563 -13.5625 3.80078125 C-9.20230891 0.52238 -5.38436357 -0.02516058 0 0 Z " fill="#FDFDFD" transform="translate(2089.5,1021.75)"/>
<path d="M0 0 C7.92 0 15.84 0 24 0 C25.89977088 1.89977088 25.12012643 4.68939065 25.12442017 7.21670532 C25.12082489 8.11078094 25.11722961 9.00485657 25.11352539 9.92602539 C25.11367142 10.86251419 25.11381744 11.79900299 25.1139679 12.76387024 C25.11326837 15.87515539 25.10547415 18.98638149 25.09765625 22.09765625 C25.09579221 24.24857043 25.09436824 26.39948503 25.09336853 28.55039978 C25.08954225 34.22381758 25.07971102 39.89720995 25.06866455 45.57061768 C25.0584528 51.35501766 25.05387142 57.13942173 25.04882812 62.92382812 C25.03808885 74.28256507 25.02049116 85.64127645 25 97 C16.75 97 8.5 97 0 97 C0 64.99 0 32.98 0 0 Z " fill="#FCFCFC" transform="translate(1719,799)"/>
<path d="M0 0 C7.92 0 15.84 0 24 0 C24 32.01 24 64.02 24 97 C16.08 97 8.16 97 0 97 C0 64.99 0 32.98 0 0 Z " fill="#FDFDFD" transform="translate(2113,1023)"/>
<path d="M0 0 C7.92 0 15.84 0 24 0 C24 32.01 24 64.02 24 97 C16.08 97 8.16 97 0 97 C0 64.99 0 32.98 0 0 Z " fill="#FDFDFD" transform="translate(2029,574)"/>
<path d="M0 0 C7.92 0 15.84 0 24 0 C24 32.01 24 64.02 24 97 C16.08 97 8.16 97 0 97 C0 64.99 0 32.98 0 0 Z " fill="#FDFDFD" transform="translate(1634,574)"/>
<path d="M0 0 C4.38939674 1.75733478 6.54729453 4.2643536 9 8.25 C10.23271136 12.87266759 10.46231167 16.4191673 9 21 C6.80653952 24.64654156 4.25973491 27.23752887 0.625 29.4375 C-5.13962191 30.67277612 -9.17736943 30.81070884 -14.3125 27.875 C-17.8596296 25.38713111 -19.67638765 23.21901436 -21 19 C-21.75699047 13.60373937 -21.05163869 9.6300725 -18 5 C-12.21202717 -0.22329255 -7.677605 -0.9213126 0 0 Z " fill="#FBFBFB" transform="translate(1737,757)"/>
<path d="M0 0 C3.58407713 3.24273645 6.22035241 5.83975896 7.0078125 10.7734375 C7.1996503 15.0322367 6.86957528 17.84671739 5.0625 21.75 C1.14924457 25.96427508 -2.5664276 28.55430752 -8.4375 28.8125 C-13.89438419 28.20617953 -16.99713553 26.90182279 -20.6875 22.8125 C-23.96593137 18.07698802 -23.97675494 14.03658168 -23.375 8.375 C-22.09721969 4.43213505 -20.11127061 1.91843783 -16.75 -0.5625 C-10.84353586 -2.42194242 -5.64159396 -2.71632302 0 0 Z " fill="#FBFBFB" transform="translate(2133.375,982.625)"/>
<path d="M0 0 C4.65702344 2.45552145 8.31667974 4.95003921 10 10 C10.52759548 15.02513073 10.56992466 18.88050512 8.25 23.4375 C4.2511073 27.99179446 1.34328285 29.84634211 -4.8125 30.25 C-8.87306094 30.18294487 -11.56188674 29.2660292 -15 27 C-19.44726052 22.07195456 -20.34539026 19.04882495 -20.2890625 12.54296875 C-19.74301802 7.73925309 -16.65200867 4.01687673 -13 1 C-8.65491432 -0.44836189 -4.54108905 -0.52342771 0 0 Z " fill="#FCFCFC" transform="translate(2046,532)"/>
<path d="M0 0 C4.85857844 2.29678253 7.63468979 5.17840611 10 10 C10.95594564 15.34549195 10.34177886 19.9393775 7.32421875 24.4921875 C4.4608395 27.75255443 1.26656543 29.61420163 -3.01953125 30.34375 C-7.74115922 30.56042126 -11.09214812 29.57562965 -15 27 C-19.67053735 21.8245397 -20.35288022 18.60631056 -20.28125 11.765625 C-19.78356676 6.87173983 -17.45468158 4.3224378 -13.9375 1.125 C-9.3098552 -0.6472895 -4.8864149 -0.63954548 0 0 Z " fill="#FCFCFC" transform="translate(1651,532)"/>
</svg>
