<?xml version="1.0" encoding="UTF-8"?>
<svg version="1.1" xmlns="http://www.w3.org/2000/svg" width="150" height="150">
<path d="M0 0 C49.5 0 99 0 150 0 C150 49.5 150 99 150 150 C100.5 150 51 150 0 150 C0 100.5 0 51 0 0 Z " fill="#273850" transform="translate(0,0)"/>
<path d="M0 0 C3.46464111 0.27173656 4.68165104 0.93690865 7.1875 3.25 C6.7839716 9.51704315 4.62678476 13.46976414 1.25 18.6875 C0.75274414 19.47753418 0.25548828 20.26756836 -0.25683594 21.08154297 C-1.28003016 22.70544912 -2.30818872 24.32623802 -3.34130859 25.94384766 C-5.04770146 28.61868784 -6.72505678 31.31066044 -8.39941406 34.00561523 C-9.59595216 35.92876641 -10.79930034 37.84751813 -12.00390625 39.765625 C-14.18919117 43.24854869 -16.35978215 46.74039511 -18.52734375 50.234375 C-19.1831543 51.28931152 -19.83896484 52.34424805 -20.51464844 53.43115234 C-21.80258876 55.50307012 -23.0885189 57.57623934 -24.37207031 59.65087891 C-34.52888972 75.96638972 -34.52888972 75.96638972 -38.8125 80.25 C-42.3125 80.5625 -42.3125 80.5625 -45.8125 80.25 C-48.21972323 76.63916515 -48.37208334 75.51868001 -47.8125 71.25 C-46.39769887 68.11960715 -44.58800462 65.27230603 -42.75 62.375 C-41.95384277 61.08517212 -41.95384277 61.08517212 -41.14160156 59.76928711 C-39.37855841 56.92100086 -37.59610964 54.08544583 -35.8125 51.25 C-34.52645858 49.18674939 -33.24131796 47.12293705 -31.95703125 45.05859375 C-29.38844321 40.93488512 -26.81100653 36.81691287 -24.2265625 32.703125 C-21.59481501 28.51007435 -19.00400647 24.29570191 -16.4375 20.0625 C-4.39057805 0.3902736 -4.39057805 0.3902736 0 0 Z " fill="#F28B26" transform="translate(93.8125,34.75)"/>
<path d="M0 0 C2.21730379 2.57493343 2.94003414 4.18046665 3.1875 7.5625 C1.25051113 11.53842452 -2.02603212 12.60689115 -6 14 C-19.54489974 18 -19.54489974 18 -25 18 C-25 18.66 -25 19.32 -25 20 C-24.42765625 20.27457031 -23.8553125 20.54914063 -23.265625 20.83203125 C-19.47285221 22.78727101 -15.97275319 24.90777446 -13 28 C-12.30937868 31.7042416 -12.22464974 33.66467456 -14.125 36.9375 C-16.88476865 38.5013689 -18.85764719 38.26990549 -22 38 C-24.85253906 36.57885742 -24.85253906 36.57885742 -27.765625 34.60546875 C-28.82007812 33.89712891 -29.87453125 33.18878906 -30.9609375 32.45898438 C-32.04632813 31.70939453 -33.13171875 30.95980469 -34.25 30.1875 C-35.36121218 29.44091444 -36.47318515 28.69545993 -37.5859375 27.95117188 C-45.7075776 22.4386336 -45.7075776 22.4386336 -48 19 C-48.33957563 14.92509248 -48.31332486 13.46998729 -46 10 C-44.14672852 9.18798828 -44.14672852 9.18798828 -41.87890625 8.5703125 C-41.03465088 8.33449463 -40.19039551 8.09867676 -39.32055664 7.85571289 C-38.41039795 7.61457764 -37.50023926 7.37344238 -36.5625 7.125 C-35.16342407 6.74299438 -35.16342407 6.74299438 -33.73608398 6.35327148 C-31.79281066 5.8246001 -29.84819878 5.30082677 -27.90234375 4.78173828 C-25.12532016 4.03375464 -22.3591824 3.25445819 -19.59375 2.46484375 C-17.91689426 1.99658007 -16.23982036 1.5290967 -14.5625 1.0625 C-13.78914307 0.83900879 -13.01578613 0.61551758 -12.21899414 0.38525391 C-7.82893213 -0.80407404 -4.48892441 -1.33582796 0 0 Z " fill="#F38F21" transform="translate(54,53)"/>
<path d="M0 0 C5.4178717 0.16269043 9.32472126 3.67642918 13.53515625 6.765625 C15.18226762 7.93753379 16.8294025 9.10940955 18.4765625 10.28125 C19.24758301 10.84005859 20.01860352 11.39886719 20.81298828 11.97460938 C22.68062063 13.30724508 24.57074796 14.57197885 26.5 15.8125 C28.97265625 17.515625 28.97265625 17.515625 29.97265625 19.515625 C30.28515625 22.453125 30.28515625 22.453125 29.97265625 25.515625 C26.64427426 28.91281075 22.31187957 29.74525572 17.84765625 30.890625 C16.23290335 31.31837083 14.618325 31.74677599 13.00390625 32.17578125 C12.17503906 32.39379395 11.34617188 32.61180664 10.4921875 32.83642578 C8.00575628 33.50670211 5.53594512 34.21935704 3.06640625 34.94921875 C2.27508301 35.18012207 1.48375977 35.41102539 0.66845703 35.64892578 C-0.83538052 36.08903477 -2.3371799 36.53619393 -3.83642578 36.99169922 C-8.71701771 38.39666665 -12.9423969 38.85756286 -18.02734375 38.515625 C-20.47438288 36.45093573 -20.9056318 35.12418473 -21.52734375 32.015625 C-21.02734375 29.515625 -21.02734375 29.515625 -19.09375 27.53125 C-15.06293452 24.88169486 -11.1167333 23.89228218 -6.46484375 22.765625 C-5.61470703 22.54519531 -4.76457031 22.32476562 -3.88867188 22.09765625 C-0.07860113 21.13542662 3.00194687 20.515625 6.97265625 20.515625 C4.74615962 18.1178594 2.66389274 16.31398352 -0.08984375 14.515625 C-4.54347278 11.48336694 -4.54347278 11.48336694 -6.02734375 8.515625 C-5.73035715 3.56584832 -5.25545125 0.89512202 0 0 Z " fill="#FA9116" transform="translate(114.02734375,55.484375)"/>
<path d="M0 0 C3.46464111 0.27173656 4.68165104 0.93690865 7.1875 3.25 C6.79356797 9.59482012 4.53275257 13.65058455 1.125 18.9375 C0.63056396 19.72116943 0.13612793 20.50483887 -0.37329102 21.31225586 C-1.3722498 22.88929559 -2.37697837 24.46269662 -3.38769531 26.03222656 C-4.67038827 28.02879662 -5.92869542 30.0381791 -7.1796875 32.0546875 C-7.86289063 33.12976563 -8.54609375 34.20484375 -9.25 35.3125 C-10.14525391 36.72208984 -10.14525391 36.72208984 -11.05859375 38.16015625 C-12.96678204 40.43383272 -13.90817519 40.93722656 -16.8125 41.25 C-16.8125 42.57 -16.8125 43.89 -16.8125 45.25 C-17.4725 45.25 -18.1325 45.25 -18.8125 45.25 C-18.8125 45.91 -18.8125 46.57 -18.8125 47.25 C-19.4725 47.25 -20.1325 47.25 -20.8125 47.25 C-20.87308594 46.57453125 -20.93367188 45.8990625 -20.99609375 45.203125 C-21.12177734 43.86507812 -21.12177734 43.86507812 -21.25 42.5 C-21.33121094 41.61828125 -21.41242188 40.7365625 -21.49609375 39.828125 C-21.77488465 37.55649548 -22.20040577 35.45148177 -22.8125 33.25 C-22.1525 33.25 -21.4925 33.25 -20.8125 33.25 C-20.91884766 31.95255859 -20.91884766 31.95255859 -21.02734375 30.62890625 C-20.76737128 26.54024833 -19.59445479 24.60970028 -17.375 21.1875 C-17.02171631 20.63674805 -16.66843262 20.08599609 -16.30444336 19.51855469 C-15.15915323 17.74917532 -13.99063637 15.99766427 -12.8125 14.25 C-12.40128906 13.63979004 -11.99007812 13.02958008 -11.56640625 12.40087891 C-3.36437894 0.29905591 -3.36437894 0.29905591 0 0 Z " fill="#F59318" transform="translate(93.8125,34.75)"/>
<path d="M0 0 C0.33 0.66 0.66 1.32 1 2 C0.01 3.485 0.01 3.485 -1 5 C-1.39013716 6.9896995 -1.73202649 8.99019869 -2 11 C-0.68 11.33 0.64 11.66 2 12 C2 12.99 2 13.98 2 15 C2.99 14.67 3.98 14.34 5 14 C5.33 13.01 5.66 12.02 6 11 C5.34 11 4.68 11 4 11 C5.13304992 7.60085025 6.12518475 6.94745549 9 5 C9.99 5.66 10.98 6.32 12 7 C9.90191193 10.27476989 7.79549478 13.54410001 5.6875 16.8125 C5.09259766 17.74126953 4.49769531 18.67003906 3.88476562 19.62695312 C3.30791016 20.51962891 2.73105469 21.41230469 2.13671875 22.33203125 C1.34334106 23.56530151 1.34334106 23.56530151 0.53393555 24.82348633 C-0.87344423 26.82042898 -2.10017399 28.46719619 -4 30 C-7.5625 30.375 -7.5625 30.375 -11 30 C-13.43916672 26.34124992 -13.62195428 25.33409085 -13 21 C-11.28215427 17.39680543 -9.19213192 14.05961865 -7.0625 10.6875 C-6.49853516 9.76904297 -5.93457031 8.85058594 -5.35351562 7.90429688 C-1.24173504 1.24173504 -1.24173504 1.24173504 0 0 Z " fill="#F18434" transform="translate(59,85)"/>
<path d="M0 0 C1.299375 0.2475 1.299375 0.2475 2.625 0.5 C2.625 1.49 2.625 2.48 2.625 3.5 C3.285 3.5 3.945 3.5 4.625 3.5 C4.625 5.48 4.625 7.46 4.625 9.5 C3.635 9.995 3.635 9.995 2.625 10.5 C1.90340576 12.14363134 1.23148579 13.81050386 0.625 15.5 C-0.035 15.5 -0.695 15.5 -1.375 15.5 C-1.705 17.15 -2.035 18.8 -2.375 20.5 C-4.025 20.83 -5.675 21.16 -7.375 21.5 C-7.705 20.18 -8.035 18.86 -8.375 17.5 C-9.035 17.5 -9.695 17.5 -10.375 17.5 C-10.34575495 11.1830691 -9.10683591 6.89576789 -5.07421875 1.96484375 C-3.375 0.5 -3.375 0.5 0 0 Z " fill="#F8990D" transform="translate(94.375,34.5)"/>
<path d="M0 0 C2.4375 0.75 2.4375 0.75 5 2 C5.33 3.32 5.66 4.64 6 6 C2.37 6.66 -1.26 7.32 -5 8 C-5 8.66 -5 9.32 -5 10 C-6.485 10.4021875 -6.485 10.4021875 -8 10.8125 C-9.33441954 11.20465595 -10.66767071 11.60080021 -12 12 C-12.72960937 12.20625 -13.45921875 12.4125 -14.2109375 12.625 C-16.66705397 13.35456465 -16.66705397 13.35456465 -20 15 C-21.13440778 17.57080135 -21.13440778 17.57080135 -21 20 C-17.23786404 20.99213851 -14.97424396 20.96457103 -11.3125 19.6875 C-7.03046664 18.28772684 -2.81659314 17.29773269 1.609375 16.4765625 C3.90226555 16.01948301 6.12318127 15.4380052 8.375 14.8125 C11.78499486 14.04819081 12.8525731 14.02249517 16 15 C11.91692246 16.14674618 7.83349433 17.29223897 3.75 18.4375 C2.01169922 18.92573242 2.01169922 18.92573242 0.23828125 19.42382812 C-0.87675781 19.73642578 -1.99179688 20.04902344 -3.140625 20.37109375 C-4.16704102 20.65911865 -5.19345703 20.94714355 -6.25097656 21.24389648 C-11.4593147 22.67642075 -15.5684793 23.43107307 -21 23 C-23.44703913 20.93531073 -23.87828805 19.60855973 -24.5 16.5 C-24 14 -24 14 -22.06640625 12.015625 C-18.03559077 9.36606986 -14.08938955 8.37665718 -9.4375 7.25 C-8.58736328 7.02957031 -7.73722656 6.80914062 -6.86132812 6.58203125 C-3.05125738 5.61980162 0.02929062 5 4 5 C2.68 3.35 1.36 1.7 0 0 Z " fill="#D88942" transform="translate(117,71)"/>
<path d="M0 0 C5.4178717 0.16269043 9.32472126 3.67642918 13.53515625 6.765625 C15.18226762 7.93753379 16.8294025 9.10940955 18.4765625 10.28125 C19.24758301 10.84005859 20.01860352 11.39886719 20.81298828 11.97460938 C22.68062063 13.30724508 24.57074796 14.57197885 26.5 15.8125 C28.97265625 17.515625 28.97265625 17.515625 29.97265625 19.515625 C30.28515625 22.453125 30.28515625 22.453125 29.97265625 25.515625 C27.14012609 28.67498557 24.07568783 29.04937141 19.97265625 29.515625 C20.93171875 29.1753125 20.93171875 29.1753125 21.91015625 28.828125 C24.22919366 27.67648807 24.22919366 27.67648807 24.66015625 25.015625 C24.76328125 24.190625 24.86640625 23.365625 24.97265625 22.515625 C25.30265625 21.855625 25.63265625 21.195625 25.97265625 20.515625 C25.31265625 20.185625 24.65265625 19.855625 23.97265625 19.515625 C22.95161074 18.53712305 21.95204415 17.53582073 20.97265625 16.515625 C20.31265625 15.855625 19.65265625 15.195625 18.97265625 14.515625 C18.41578125 13.896875 17.85890625 13.278125 17.28515625 12.640625 C14.39654252 9.9862232 11.42415988 8.37412695 7.97265625 6.515625 C7.97265625 5.855625 7.97265625 5.195625 7.97265625 4.515625 C4.46488841 2.91207399 1.82910746 2.29525636 -2.02734375 2.515625 C-2.35734375 4.825625 -2.68734375 7.135625 -3.02734375 9.515625 C-2.03734375 10.134375 -1.04734375 10.753125 -0.02734375 11.390625 C0.96265625 12.091875 1.95265625 12.793125 2.97265625 13.515625 C2.97265625 14.175625 2.97265625 14.835625 2.97265625 15.515625 C-1.41597653 14.17465387 -3.67844861 12.49067831 -6.02734375 8.515625 C-5.833001 3.55988483 -5.22203984 0.8894313 0 0 Z " fill="#E59825" transform="translate(114.02734375,55.484375)"/>
<path d="M0 0 C-6.17428356 3.14298156 -12.18867815 4.87002075 -18.984375 6.19140625 C-22.13584194 7.03642394 -24.38168371 8.05908297 -27 10 C-27.41780879 12.62694422 -27.41780879 12.62694422 -27 15 C-25.68 15 -24.36 15 -23 15 C-22.67 14.34 -22.34 13.68 -22 13 C-21.34 13 -20.68 13 -20 13 C-20.268125 13.721875 -20.53625 14.44375 -20.8125 15.1875 C-20.874375 16.115625 -20.93625 17.04375 -21 18 C-18.72926391 20.68743506 -18.72926391 20.68743506 -16 23 C-15.34 23.99 -14.68 24.98 -14 26 C-17.53086549 24.69389223 -20.55718156 23.15115051 -23.6875 21.0625 C-24.45449219 20.55847656 -25.22148437 20.05445312 -26.01171875 19.53515625 C-28 18 -28 18 -30 15 C-30.33957563 10.92509248 -30.31332486 9.46998729 -28 6 C-25.92456055 5.12451172 -25.92456055 5.12451172 -23.38671875 4.4296875 C-22.46826172 4.17316406 -21.54980469 3.91664062 -20.60351562 3.65234375 C-19.64123047 3.39582031 -18.67894531 3.13929687 -17.6875 2.875 C-16.73681641 2.61074219 -15.78613281 2.34648438 -14.80664062 2.07421875 C-2.58279349 -1.29139674 -2.58279349 -1.29139674 0 0 Z " fill="#D78146" transform="translate(36,57)"/>
<path d="M0 0 C0.66 0.33 1.32 0.66 2 1 C1.69707031 1.48355957 1.39414062 1.96711914 1.08203125 2.46533203 C-0.2925949 4.67689402 -1.64631396 6.90056456 -3 9.125 C-3.47695313 9.88554688 -3.95390625 10.64609375 -4.4453125 11.4296875 C-7.05770683 15.7587981 -8.74284003 18.78464393 -8 24 C-7.67 24.99 -7.34 25.98 -7 27 C-2.33600356 26.87229353 -2.33600356 26.87229353 1.578125 24.59765625 C2.78844931 23.11953029 3.90220903 21.56352047 5 20 C5.33 21.32 5.66 22.64 6 24 C5.34 24 4.68 24 4 24 C3.67 25.32 3.34 26.64 3 28 C1.58566794 28.2236337 0.16832382 28.42826476 -1.25 28.625 C-2.43335938 28.79902344 -2.43335938 28.79902344 -3.640625 28.9765625 C-6.4092972 29.00406587 -7.75369527 28.61298534 -10 27 C-11.34337978 24.03177038 -11.3882139 21.20761735 -11 18 C-9.69860542 15.21420223 -8.19450141 12.78787297 -6.4453125 10.26171875 C-5.06917235 8.10824537 -4.44500401 6.49316349 -4 4 C-3.34 4 -2.68 4 -2 4 C-2 3.01 -2 2.02 -2 1 C-1.34 0.67 -0.68 0.34 0 0 Z " fill="#4B3935" transform="translate(55,88)"/>
<path d="M0 0 C6.34257749 0.46982055 6.34257749 0.46982055 8.9375 2.5625 C9.288125 3.036875 9.63875 3.51125 10 4 C9.01 4 8.02 4 7 4 C7.33 4.99 7.66 5.98 8 7 C7 8 7 8 5 9 C5 9.66 5 10.32 5 11 C0.25 10.25 0.25 10.25 -2 8 C-1.42307692 1.42307692 -1.42307692 1.42307692 0 0 Z " fill="#F88C20" transform="translate(112,57)"/>
<path d="M0 0 C0.66 0 1.32 0 2 0 C4 3 4 3 5 5 C4.34 5 3.68 5 3 5 C3.33 6.98 3.66 8.96 4 11 C3.34 11 2.68 11 2 11 C2 10.34 2 9.68 2 9 C-0.2236068 10.9254644 -0.2236068 10.9254644 -1 14 C-1 13.34 -1 12.68 -1 12 C-2.21236328 11.87044922 -2.21236328 11.87044922 -3.44921875 11.73828125 C-13.269908 10.44702054 -13.269908 10.44702054 -16.25 7.5625 C-18 5 -18 5 -18 2 C-17.443125 2.433125 -16.88625 2.86625 -16.3125 3.3125 C-10.89628625 7.26487219 -7.70190868 8.73111731 -1 8 C-0.67 5.36 -0.34 2.72 0 0 Z " fill="#253448" transform="translate(41,82)"/>
<path d="M0 0 C2.4375 0.75 2.4375 0.75 5 2 C5.33 3.32 5.66 4.64 6 6 C2.37 6.66 -1.26 7.32 -5 8 C-5 8.66 -5 9.32 -5 10 C-6.485 10.4021875 -6.485 10.4021875 -8 10.8125 C-15.61914575 12.79123952 -15.61914575 12.79123952 -22 17 C-21.67 15.02 -21.34 13.04 -21 11 C-17.58583753 9.99131083 -14.16829771 8.99457679 -10.75 8 C-9.29787109 7.57074219 -9.29787109 7.57074219 -7.81640625 7.1328125 C-6.41455078 6.72675781 -6.41455078 6.72675781 -4.984375 6.3125 C-4.12553711 6.06113281 -3.26669922 5.80976562 -2.38183594 5.55078125 C0 5 0 5 4 5 C2.68 3.35 1.36 1.7 0 0 Z " fill="#E08B3A" transform="translate(117,71)"/>
<path d="M0 0 C1.32 0.66 2.64 1.32 4 2 C1.85980358 5.33698467 -0.28807485 8.66895369 -2.4375 12 C-3.04916016 12.95390625 -3.66082031 13.9078125 -4.29101562 14.890625 C-5.1659668 16.24414062 -5.1659668 16.24414062 -6.05859375 17.625 C-6.59798584 18.46289062 -7.13737793 19.30078125 -7.69311523 20.1640625 C-8.12438721 20.76992187 -8.55565918 21.37578125 -9 22 C-9.33 22 -9.66 22 -10 22 C-10 20.35 -10 18.7 -10 17 C-9.34 17 -8.68 17 -8 17 C-8.103125 16.236875 -8.20625 15.47375 -8.3125 14.6875 C-8.209375 13.800625 -8.10625 12.91375 -8 12 C-5.5625 10.375 -5.5625 10.375 -3 9 C-2.67 8.01 -2.34 7.02 -2 6 C-2.66 6 -3.32 6 -4 6 C-3.0022242 3.00667261 -2.2477975 2.05233685 0 0 Z " fill="#E58B31" transform="translate(67,90)"/>
<path d="M0 0 C2.9719385 1.12451727 5.33440687 2.22293791 8 4 C8 4.66 8 5.32 8 6 C7.3294458 6.16604736 6.6588916 6.33209473 5.96801758 6.50317383 C2.91400015 7.26449957 -0.13670591 8.03836329 -3.1875 8.8125 C-4.24259766 9.07353516 -5.29769531 9.33457031 -6.38476562 9.60351562 C-7.40634766 9.86455078 -8.42792969 10.12558594 -9.48046875 10.39453125 C-10.88655396 10.74801636 -10.88655396 10.74801636 -12.32104492 11.10864258 C-15.18128206 12.06031722 -17.47847909 13.36231116 -20 15 C-19.77734375 13.09765625 -19.77734375 13.09765625 -19 11 C-17.06640625 10.05859375 -17.06640625 10.05859375 -14.5625 9.4375 C-13.6653125 9.20289062 -12.768125 8.96828125 -11.84375 8.7265625 C-10.9053125 8.48679687 -9.966875 8.24703125 -9 8 C-7.18537359 7.44439809 -5.37275089 6.8821966 -3.5625 6.3125 C-0.79437426 5.4460722 1.07051466 5 4 5 C2.68 3.35 1.36 1.7 0 0 Z " fill="#4E3A2F" transform="translate(113,70)"/>
<path d="M0 0 C3.375 -0.125 3.375 -0.125 7 0 C9 2 9 2 9.125 5.625 C9.08375 6.73875 9.0425 7.8525 9 9 C6.69 9 4.38 9 2 9 C2.185625 8.4225 2.37125 7.845 2.5625 7.25 C3.04704019 4.75807903 2.89532735 3.36040848 2 1 C1.34 0.67 0.68 0.34 0 0 Z " fill="#FA9B09" transform="translate(46,54)"/>
<path d="M0 0 C-3.95523655 2.75668002 -7.22423661 3.5317879 -12 4 C-12 5.32 -12 6.64 -12 8 C-10.68 8.66 -9.36 9.32 -8 10 C-11.34419152 10 -12.06840321 9.52480606 -14.6875 7.625 C-15.31011719 7.18414062 -15.93273437 6.74328125 -16.57421875 6.2890625 C-17.04472656 5.86367187 -17.51523437 5.43828125 -18 5 C-18 4.34 -18 3.68 -18 3 C-15.75376301 2.30030318 -13.50283586 1.61564957 -11.25 0.9375 C-9.99703125 0.55464844 -8.7440625 0.17179687 -7.453125 -0.22265625 C-4.3261992 -0.92656828 -2.90533954 -1.16653785 0 0 Z " fill="#4C3B29" transform="translate(47,68)"/>
<path d="M0 0 C0.33 0.66 0.66 1.32 1 2 C-0.01553817 5.0466145 -1.20762558 7.31143836 -3 10 C-3.66 10 -4.32 10 -5 10 C-5.66 11.98 -6.32 13.96 -7 16 C-7.66 16 -8.32 16 -9 16 C-9 16.99 -9 17.98 -9 19 C-9.66 19 -10.32 19 -11 19 C-11.99 21.475 -11.99 21.475 -13 24 C-13.33 23.34 -13.66 22.68 -14 22 C-13.15136719 20.18408203 -13.15136719 20.18408203 -11.796875 18.0078125 C-11.31089844 17.22019531 -10.82492188 16.43257812 -10.32421875 15.62109375 C-9.80472656 14.79738281 -9.28523438 13.97367188 -8.75 13.125 C-7.99396484 11.90103516 -7.99396484 11.90103516 -7.22265625 10.65234375 C-4.94284408 6.9842995 -2.62910698 3.4298159 0 0 Z " fill="#4B3A24" transform="translate(92,57)"/>
<path d="M0 0 C4.19833317 0.42694914 5.70724864 1.48505929 8.6875 4.375 C8.171875 4.230625 7.65625 4.08625 7.125 3.9375 C4.00240429 3.21690099 0.86199308 2.80233561 -2.3125 2.375 C-2.6425 4.685 -2.9725 6.995 -3.3125 9.375 C-2.3225 9.99375 -1.3325 10.6125 -0.3125 11.25 C0.6775 11.95125 1.6675 12.6525 2.6875 13.375 C2.6875 14.035 2.6875 14.695 2.6875 15.375 C-1.70113278 14.03402887 -3.96360486 12.35005331 -6.3125 8.375 C-6.11068473 3.22871053 -5.46483876 0.61866099 0 0 Z " fill="#D08945" transform="translate(114.3125,55.625)"/>
<path d="M0 0 C9.83711825 -0.7752545 9.83711825 -0.7752545 14.1875 2.125 C16.26035293 5.41297361 16.44359263 7.18510342 16 11 C15.01 11.495 15.01 11.495 14 12 C13.83723958 9.98177083 13.67447917 7.96354167 13.51171875 5.9453125 C13.12606964 3.60480784 13.12606964 3.60480784 10 2 C7.2700524 2.22749563 4.69043 2.54832197 2 3 C0.66708014 3.19041712 -0.66622648 3.37815732 -2 3.5625 C-3.485 3.7790625 -3.485 3.7790625 -5 4 C-4.34 3.34 -3.68 2.68 -3 2 C-2.01 2 -1.02 2 0 2 C0 1.34 0 0.68 0 0 Z " fill="#423928" transform="translate(42,51)"/>
<path d="M0 0 C0.66 0 1.32 0 2 0 C1.731875 0.721875 1.46375 1.44375 1.1875 2.1875 C1.125625 3.115625 1.06375 4.04375 1 5 C3.27073609 7.68743506 3.27073609 7.68743506 6 10 C6.99 11.485 6.99 11.485 8 13 C3.32894208 11.44298069 -0.08705685 8.91552627 -4 6 C-3.67 4.68 -3.34 3.36 -3 2 C-2.34 2 -1.68 2 -1 2 C-0.67 1.34 -0.34 0.68 0 0 Z " fill="#E5843D" transform="translate(14,70)"/>
<path d="M0 0 C1.32 0.66 2.64 1.32 4 2 C3.83112554 9.43047616 -0.13184348 14.84932815 -4 21 C-5.03864166 17.88407501 -5.09036928 16.9737344 -4 14 C-3.34 13.67 -2.68 13.34 -2 13 C-1.27840576 11.35636866 -0.60648579 9.68949614 0 8 C0.66 8 1.32 8 2 8 C2 6.02 2 4.04 2 2 C1.34 2 0.68 2 0 2 C0 1.34 0 0.68 0 0 Z " fill="#D7972E" transform="translate(97,36)"/>
<path d="M0 0 C0.33 0.66 0.66 1.32 1 2 C0.06553465 4.03144641 -0.93224776 6.03533587 -2 8 C-1.34 8 -0.68 8 0 8 C0.33 9.32 0.66 10.64 1 12 C-1.875 12.625 -1.875 12.625 -5 13 C-5.66 12.34 -6.32 11.68 -7 11 C-4.69 7.37 -2.38 3.74 0 0 Z " fill="#3A383D" transform="translate(70,92)"/>
<path d="M0 0 C-3.36031132 3.86912817 -7.08555774 4.31261017 -12 5 C-14.69497906 5.13786197 -17.29882714 5.09822447 -20 5 C-16.6109639 2.7406426 -13.32015989 1.82999933 -9.4375 0.8125 C-8.75236328 0.62236328 -8.06722656 0.43222656 -7.36132812 0.23632812 C-2.24740751 -1.12370376 -2.24740751 -1.12370376 0 0 Z " fill="#51422A" transform="translate(142,84)"/>
<path d="M0 0 C0.96099609 0.6496875 0.96099609 0.6496875 1.94140625 1.3125 C7.22684304 4.71534455 10.67477462 6.8250294 17 6 C16.67 6.99 16.34 7.98 16 9 C7.04277232 8.80868057 7.04277232 8.80868057 2.9375 5.625 C1 3 1 3 0 0 Z " fill="#463A2E" transform="translate(22,84)"/>
<path d="M0 0 C0.99 0.495 0.99 0.495 2 1 C2 1.66 2 2.32 2 3 C3.08861328 3.39832031 3.08861328 3.39832031 4.19921875 3.8046875 C7.00170928 5.00072948 9.30479352 6.40329107 11.8125 8.125 C12.60269531 8.66382812 13.39289062 9.20265625 14.20703125 9.7578125 C14.79871094 10.16773437 15.39039063 10.57765625 16 11 C15.34 11.66 14.68 12.32 14 13 C11.06052314 11.68230348 9.25627997 10.25627997 7 8 C5.96875 7.360625 4.9375 6.72125 3.875 6.0625 C1 4 1 4 0.125 1.75 C0.08375 1.1725 0.0425 0.595 0 0 Z " fill="#4B3833" transform="translate(6,72)"/>
<path d="M0 0 C0.33 0.66 0.66 1.32 1 2 C0.01 3.485 0.01 3.485 -1 5 C-1.16699232 8.12521833 -1.16699232 8.12521833 -1 11 C-1.99 11.33 -2.98 11.66 -4 12 C-4.66 11.67 -5.32 11.34 -6 11 C-4.54955729 6.89041233 -2.48889248 3.56741255 0 0 Z " fill="#403634" transform="translate(77,81)"/>
<path d="M0 0 C-6.28453206 3.32797915 -10.88658735 4.45164525 -18 4 C-14.73277083 1.82184722 -12.24630935 1.18490885 -8.4375 0.3125 C-6.70306641 -0.09548828 -6.70306641 -0.09548828 -4.93359375 -0.51171875 C-2 -1 -2 -1 0 0 Z " fill="#C68040" transform="translate(36,57)"/>
<path d="M0 0 C0.66 0.33 1.32 0.66 2 1 C1.7525 1.86625 1.505 2.7325 1.25 3.625 C0.92677088 7.98859312 2.35542117 9.6341724 5 13 C0.125 11.25 0.125 11.25 -1 9 C-1.18704404 6.30986661 -1.08581391 3.70313823 -1 1 C-0.67 0.67 -0.34 0.34 0 0 Z " fill="#44352F" transform="translate(108,57)"/>
<path d="M0 0 C0.6875 1.8125 0.6875 1.8125 1 4 C-0.375 5.5625 -0.375 5.5625 -2 7 C-2.33 7.99 -2.66 8.98 -3 10 C-3.99 10.33 -4.98 10.66 -6 11 C-4.54955729 6.89041233 -2.48889248 3.56741255 0 0 Z " fill="#DF9437" transform="translate(79,53)"/>
<path d="M0 0 C0.33 0 0.66 0 1 0 C1.309375 1.11375 1.61875 2.2275 1.9375 3.375 C2.82326483 6.7945155 2.82326483 6.7945155 4 9 C3.01 9 2.02 9 1 9 C0.34 8.34 -0.32 7.68 -1 7 C-1.99 7.495 -1.99 7.495 -3 8 C-2.690625 7.236875 -2.38125 6.47375 -2.0625 5.6875 C-1.32106407 3.81210323 -0.63771783 1.91315348 0 0 Z " fill="#39343C" transform="translate(92,85)"/>
<path d="M0 0 C2.9719385 1.12451727 5.33440687 2.22293791 8 4 C8 4.66 8 5.32 8 6 C5.69 6 3.38 6 1 6 C1.99 5.67 2.98 5.34 4 5 C2.68 3.35 1.36 1.7 0 0 Z " fill="#463726" transform="translate(113,70)"/>
<path d="M0 0 C-2.16687491 2.27521866 -4.45620509 4.15794162 -7 6 C-6.625 3.0625 -6.625 3.0625 -6 0 C-3.50907189 -1.24546405 -2.58919267 -0.7767578 0 0 Z " fill="#E3813C" transform="translate(102,82)"/>
<path d="M0 0 C0.66 0.66 1.32 1.32 2 2 C1.19185349 3.33597652 0.37836819 4.668725 -0.4375 6 C-0.88996094 6.7425 -1.34242187 7.485 -1.80859375 8.25 C-2.20175781 8.8275 -2.59492187 9.405 -3 10 C-3.33 10 -3.66 10 -4 10 C-4 8.35 -4 6.7 -4 5 C-3.01 5 -2.02 5 -1 5 C-0.67 3.35 -0.34 1.7 0 0 Z " fill="#E08A42" transform="translate(61,102)"/>
<path d="M0 0 C1 2 1 2 0.25 4.4375 C-0.93098981 6.85852911 -1.9831559 8.25818009 -4 10 C-3.5205537 5.78087253 -2.83374881 3.20336822 0 0 Z " fill="#3B3732" transform="translate(92,57)"/>
<path d="M0 0 C0.66 0 1.32 0 2 0 C2 2.64 2 5.28 2 8 C1.01 8 0.02 8 -1 8 C-0.67 5.36 -0.34 2.72 0 0 Z " fill="#55452D" transform="translate(41,82)"/>
</svg>
