<?xml version="1.0" encoding="UTF-8"?>
<svg version="1.1" xmlns="http://www.w3.org/2000/svg" width="433" height="577">
<path d="M0 0 C0 0.66 0 1.32 0 2 C0.66 2 1.32 2 2 2 C3.6608577 5.32171541 3.58354557 8.42286567 3 12 C-0.04567044 20.15091309 -5.52906877 26.09317848 -11.4375 32.25 C-13.54371642 34.51032982 -15.33570486 36.70092147 -17.0625 39.25 C-18.0215625 40.61125 -18.0215625 40.61125 -19 42 C-19.66 42 -20.32 42 -21 42 C-21.24363281 42.57363281 -21.48726562 43.14726562 -21.73828125 43.73828125 C-23.22317803 46.40006217 -24.97359537 48.0955316 -27.1875 50.1875 C-30.18674991 53.11045738 -32.88129041 56.01181298 -35.375 59.375 C-38.56111716 63.63058306 -42.21618144 67.27931816 -46.01416016 70.97509766 C-49.26444843 74.17142058 -51.99124219 77.47482873 -54.62109375 81.18359375 C-56.05800924 83.07641444 -57.60216015 84.664496 -59.3125 86.3125 C-63.12013035 89.99460407 -66.36190096 94.05385323 -69.6796875 98.17578125 C-71.88328406 100.85793666 -74.16043825 103.43626421 -76.5 106 C-80.47228711 110.36050365 -84.218669 114.87004594 -87.92578125 119.45703125 C-89.70305441 121.63594806 -91.51952004 123.76295985 -93.375 125.875 C-95.58501207 128.4226528 -97.37930125 131.02871896 -99 134 C-98.34 134 -97.68 134 -97 134 C-96.78542851 137.14704859 -96.66467631 139.34798172 -98.125 142.1875 C-100 144 -100 144 -102.8125 145.125 C-106.94631014 147.55665302 -108.25643799 150.42993139 -110.41015625 154.625 C-112.30029941 157.44860452 -113.93053236 158.57972882 -117 160 C-118.32 160 -119.64 160 -121 160 C-121 160.66 -121 161.32 -121 162 C-121.65226562 162.34546875 -122.30453125 162.6909375 -122.9765625 163.046875 C-125.36705212 165.35429742 -125.3215176 165.93534767 -125.4609375 169.140625 C-125.45606404 170.84398392 -125.4259582 172.54739652 -125.375 174.25 C-125.35993408 175.14009766 -125.34486816 176.03019531 -125.3293457 176.94726562 C-125.38884225 191.3144553 -125.38884225 191.3144553 -120 204 C-120 205.32 -120 206.64 -120 208 C-121.65 208 -123.3 208 -125 208 C-128.72063018 200.16139078 -130.07106819 192.58528557 -131 184 C-131.16822266 182.45699219 -131.16822266 182.45699219 -131.33984375 180.8828125 C-131.57695782 178.58962709 -131.79891681 176.29658165 -132 174 C-133.14888283 175.12188559 -134.29401137 176.24761684 -135.4375 177.375 C-136.07558594 178.00148438 -136.71367187 178.62796875 -137.37109375 179.2734375 C-139.07882176 180.91723061 -139.07882176 180.91723061 -140 183 C-140.66 183 -141.32 183 -142 183 C-142.268125 183.7425 -142.53625 184.485 -142.8125 185.25 C-143.97059859 187.93191253 -144.97489986 189.89701139 -147 192 C-148.32 192 -149.64 192 -151 192 C-150.47942846 187.4072156 -148.67588943 184.80966718 -145.875 181.1875 C-145.47337646 180.66486572 -145.07175293 180.14223145 -144.65795898 179.60375977 C-141.71761106 175.81399094 -138.63717491 172.16852561 -135.41015625 168.62109375 C-132.34215751 165.09416999 -131.69782079 162.79987365 -131.40234375 158.23046875 C-131.32306641 157.09416016 -131.24378906 155.95785156 -131.16210938 154.78710938 C-131.08798828 153.59923828 -131.01386719 152.41136719 -130.9375 151.1875 C-130.78235449 148.84749545 -130.62487807 146.50764404 -130.46484375 144.16796875 C-130.36610962 142.60985474 -130.36610962 142.60985474 -130.26538086 141.02026367 C-129.99776354 137.97454712 -129.54182311 135.00797495 -129 132 C-130.15811388 133.05270463 -130.15811388 133.05270463 -131 135 C-131.66 135 -132.32 135 -133 135 C-133.26296875 135.57234375 -133.5259375 136.1446875 -133.796875 136.734375 C-135.0767023 139.14443939 -136.54804648 141.11872488 -138.25 143.25 C-140.53682101 146.14160012 -142.79939875 149.04220262 -145 152 C-146 153.33333333 -147 154.66666667 -148 156 C-148.61359375 156.825 -149.2271875 157.65 -149.859375 158.5 C-150.48328125 159.325 -151.1071875 160.15 -151.75 161 C-152.32234375 161.763125 -152.8946875 162.52625 -153.484375 163.3125 C-153.98453125 163.869375 -154.4846875 164.42625 -155 165 C-155.66 165 -156.32 165 -157 165 C-157.37125 165.804375 -157.37125 165.804375 -157.75 166.625 C-160.58651701 172.01438233 -164.26122255 176.61960494 -168.25 181.1875 C-172.64773878 186.27989085 -176.63193323 191.49892972 -180.44140625 197.05078125 C-181.21291016 198.01564453 -181.21291016 198.01564453 -182 199 C-182.66 199 -183.32 199 -184 199 C-184.26425781 199.58394531 -184.52851563 200.16789063 -184.80078125 200.76953125 C-186.04592111 203.08541027 -187.41462104 204.75234379 -189.1875 206.6875 C-190.4822293 208.10351542 -191.74738293 209.54659913 -193 211 C-193.58217285 211.58644287 -194.1643457 212.17288574 -194.76416016 212.77709961 C-200.8507131 219.4816359 -201.04790352 225.38240262 -201 234.1875 C-201.01601376 235.59239248 -201.03422626 236.99726133 -201.05444336 238.40209961 C-201.26236338 258.59617573 -200.58747948 278.81654967 -200 299 C-201.65 299.33 -203.3 299.66 -205 300 C-205.95300008 297.14099977 -206.15042441 295.25313537 -206.20532227 292.27929688 C-206.2352401 290.84003845 -206.2352401 290.84003845 -206.26576233 289.3717041 C-206.28247482 288.33122925 -206.29918732 287.29075439 -206.31640625 286.21875 C-206.33718735 285.13605835 -206.35796844 284.0533667 -206.37937927 282.93786621 C-206.42268759 280.63456191 -206.46372398 278.33121396 -206.50268555 276.02783203 C-206.56132627 272.56922627 -206.62666938 269.11080264 -206.69335938 265.65234375 C-206.93325544 252.76689604 -207.06147166 239.88758219 -207 227 C-208.13148667 227.93542767 -209.2581703 228.87666695 -210.3828125 229.8203125 C-211.01074707 230.34383301 -211.63868164 230.86735352 -212.28564453 231.40673828 C-214.20595743 233.06271518 -214.20595743 233.06271518 -215.875 235.875 C-219.9752211 241.90473691 -226.05690692 247.53134468 -233 250 C-236.375 250.1875 -236.375 250.1875 -239 250 C-239.625 248.1875 -239.625 248.1875 -240 246 C-239.34 245.01 -238.68 244.02 -238 243 C-237.195625 243.37125 -237.195625 243.37125 -236.375 243.75 C-232.76408663 244.13009614 -230.70528313 242.16986251 -228 240 C-224.84187589 237.07191388 -221.82543692 234.01397006 -218.8125 230.9375 C-217.60303711 229.71450195 -217.60303711 229.71450195 -216.36914062 228.46679688 C-214.87634696 226.95663072 -213.38562422 225.44441246 -211.89770508 223.92944336 C-210.72939821 222.74159707 -209.53159202 221.58100722 -208.28979492 220.47021484 C-203.42488609 214.92478971 -205.66465008 200.1363509 -205.5 192.8125 C-205.25810628 182.17708873 -204.87578938 171.60619205 -204 161 C-204.37511719 161.96679688 -204.75023437 162.93359375 -205.13671875 163.9296875 C-212.99681817 183.99681817 -212.99681817 183.99681817 -216 187 C-217.66617115 187.04063832 -219.33388095 187.042721 -221 187 C-219.61706734 183.35827733 -217.96236226 179.99446422 -216.125 176.5625 C-213.26187459 170.91287785 -211.48792415 165.29540009 -209.8671875 159.1875 C-209.17099929 156.62853794 -208.40160599 154.21493079 -207.4375 151.75 C-204.6652119 144.54807766 -202.81592118 137.70674208 -201.98046875 130 C-201.89527985 129.22161774 -201.81009094 128.44323547 -201.72232056 127.64126587 C-200.71292309 117.90852018 -200.30010688 108.14725277 -199.875 98.375 C-199.78829353 96.48174634 -199.7010565 94.58851691 -199.61328125 92.6953125 C-199.40276697 88.13046302 -199.19932952 83.56535098 -199 79 C-200.093125 79.020625 -201.18625 79.04125 -202.3125 79.0625 C-206 79 -206 79 -209 78 C-209.75 76.0625 -209.75 76.0625 -210 74 C-209.67 73.34 -209.34 72.68 -209 72 C-205.37 72.66 -201.74 73.32 -198 74 C-197.96261719 73.18917969 -197.92523438 72.37835938 -197.88671875 71.54296875 C-197.30631654 61.76717465 -196.50878384 51.76854845 -190 44 C-189.34 44 -188.68 44 -188 44 C-187.67 43.01 -187.34 42.02 -187 41 C-184.1875 40.3125 -184.1875 40.3125 -181 40 C-179.3203125 41.171875 -179.3203125 41.171875 -178 43 C-176.78964061 50.5875218 -178.54480384 58.55511252 -180 66 C-171.72035656 62.86001546 -164.01455773 58.97558183 -156.21923828 54.80419922 C-150.0537877 51.51783427 -143.81234218 48.50426171 -137.45703125 45.60546875 C-133.03490012 43.55180107 -128.71025595 41.32654102 -124.390625 39.06640625 C-122 38 -122 38 -119 38 C-118.01 35.03 -118.01 35.03 -117 32 C-116.41734375 31.98582031 -115.8346875 31.97164062 -115.234375 31.95703125 C-110.3177504 31.6710012 -106.20867239 30.8648742 -101.68359375 28.89453125 C-100.63768066 28.44456787 -99.59176758 27.99460449 -98.51416016 27.53100586 C-97.3544873 27.02577393 -96.19481445 26.52054199 -95 26 C-92.31026977 24.84763141 -89.61776771 23.70177395 -86.92578125 22.5546875 C-85.50187559 21.94679616 -84.07804828 21.33872127 -82.65429688 20.73046875 C-81.94007568 20.42544434 -81.22585449 20.12041992 -80.48999023 19.80615234 C-79.03249442 19.18288864 -77.57546608 18.55853068 -76.11889648 17.93310547 C-68.49849161 14.66271366 -60.92533815 11.46995339 -53 9 C-50.25039769 8.00689171 -47.51172225 6.98861688 -44.7734375 5.96484375 C-41.54703479 4.84241914 -38.29022649 3.91828519 -35 3 C-33.81664062 2.64679688 -32.63328125 2.29359375 -31.4140625 1.9296875 C-22.56579104 -0.53323342 -8.71295389 -4.35647695 0 0 Z M-49.1875 12.1875 C-49.8976828 12.42477814 -50.6078656 12.66205627 -51.33956909 12.90652466 C-64.9950639 17.48257321 -78.36595862 22.61450464 -91.23046875 29.125 C-94.96588885 31.01467223 -98.78018367 32.51717005 -102.703125 33.97265625 C-107.13347461 35.85630747 -107.13347461 35.85630747 -109.68359375 39.77661133 C-110.32831005 42.12998595 -110.8636355 44.48908626 -111.375 46.875 C-111.7920532 48.68571012 -112.21275012 50.4955841 -112.63671875 52.3046875 C-112.85505371 53.24151367 -113.07338867 54.17833984 -113.29833984 55.14355469 C-114.44379278 59.80667208 -115.82487127 64.39670458 -117.1875 69 C-121.62202212 84.3732871 -122.52404407 99.04967209 -123 115 C-119.57906012 112.41960033 -116.9242053 109.87718112 -114.375 106.4375 C-112.37466986 103.75379916 -110.36491436 101.35895739 -108 99 C-106.59188391 97.28082079 -105.19743407 95.55040842 -103.8125 93.8125 C-100.3777174 89.58164947 -96.80980869 85.68612897 -92.8984375 81.8984375 C-90.98830429 79.98830429 -89.24514719 77.99851094 -87.5 75.9375 C-84.56439949 72.51374724 -81.36424825 69.65009695 -77.93359375 66.734375 C-74.99999612 64.10302683 -72.25667584 61.23969752 -70 58 C-70 57.34 -70 56.68 -70 56 C-69.01 55.67 -68.02 55.34 -67 55 C-67 54.34 -67 53.68 -67 53 C-66.43796875 52.7525 -65.8759375 52.505 -65.296875 52.25 C-62.60907431 50.78725133 -60.53594518 49.03195127 -58.25 47 C-57.45078125 46.29875 -56.6515625 45.5975 -55.828125 44.875 C-53.76729995 43.19778572 -53.76729995 43.19778572 -54 41 C-53.41428223 40.73195557 -52.82856445 40.46391113 -52.22509766 40.18774414 C-49.97592276 38.98714771 -48.30131167 37.68475925 -46.3984375 35.99609375 C-45.74359375 35.42052734 -45.08875 34.84496094 -44.4140625 34.25195312 C-43.74117188 33.65318359 -43.06828125 33.05441406 -42.375 32.4375 C-41.03027366 31.24685689 -39.68399178 30.05796763 -38.3359375 28.87109375 C-37.74345215 28.34443115 -37.1509668 27.81776855 -36.54052734 27.27514648 C-35 26 -35 26 -33 25 C-33 24.34 -33 23.68 -33 23 C-32.443125 22.731875 -31.88625 22.46375 -31.3125 22.1875 C-28.93031489 21.00517661 -28.93031489 21.00517661 -26.5 19.4375 C-24.2578444 18.14826053 -22.51921187 17.46652072 -20 17 C-20 18.32 -20 19.64 -20 21 C-20.67804688 21.20496094 -21.35609375 21.40992188 -22.0546875 21.62109375 C-26.02551038 23.48011295 -28.88626599 26.14387102 -32.125 29.0625 C-33.45581787 30.24225559 -34.78785866 31.42063304 -36.12109375 32.59765625 C-36.77577637 33.17660645 -37.43045898 33.75555664 -38.10498047 34.35205078 C-41.55354578 37.35099639 -45.13853756 40.17500957 -48.73046875 43 C-51.15865692 45.13981471 -53.00116918 47.46116247 -55 50 C-56.23907979 51.15988087 -57.50972795 52.28714554 -58.8125 53.375 C-61.61996279 55.78214914 -64.35258346 58.22952361 -67 60.8125 C-67.5775 61.37582031 -68.155 61.93914062 -68.75 62.51953125 C-70.21504284 63.93175829 -70.21504284 63.93175829 -70 66 C-70.66 66 -71.32 66 -72 66 C-72 66.66 -72 67.32 -72 68 C-72.55042969 68.22429687 -73.10085938 68.44859375 -73.66796875 68.6796875 C-76.72583148 70.41093976 -78.84821826 72.62237725 -81.3125 75.125 C-82.04315674 75.86641235 -82.04315674 75.86641235 -82.78857422 76.62280273 C-86.06498235 79.97251466 -89.21071695 83.40741576 -92.25390625 86.96875 C-94.31779311 89.36969221 -96.43788144 91.71516768 -98.5625 94.0625 C-100.04267801 95.70742385 -101.5219024 97.35320648 -103 99 C-103.6290625 99.69996094 -104.258125 100.39992188 -104.90625 101.12109375 C-107.94368151 104.11555698 -107.94368151 104.11555698 -109 108 C-109.66 108 -110.32 108 -111 108 C-112.3337216 109.68113694 -113.59271116 111.42195478 -114.8125 113.1875 C-116.92315068 116.23712486 -118.75646516 118.79092633 -121.57763672 121.21289062 C-124.66738665 124.76787804 -124.72146589 126.82617627 -124.92578125 131.48828125 C-124.9630986 132.19147995 -125.00041595 132.89467865 -125.03886414 133.6191864 C-125.15219071 135.84988558 -125.23280693 138.0803717 -125.3125 140.3125 C-125.38390727 141.83148331 -125.45745263 143.35036771 -125.53320312 144.86914062 C-125.71356071 148.57860439 -125.86463042 152.28859098 -126 156 C-125.34 156 -124.68 156 -124 156 C-122.20460444 153.9102773 -120.52938558 151.82157918 -118.875 149.625 C-118.40707031 149.02171875 -117.93914062 148.4184375 -117.45703125 147.796875 C-114.86385761 144.74265059 -114.86385761 144.74265059 -114 141 C-113.34 141 -112.68 141 -112 141 C-110.09515114 139.42642921 -108.95772549 137.92621413 -107.7265625 135.77734375 C-105.6971581 132.51284934 -103.31544383 129.65245052 -100.8125 126.75 C-100.32346191 126.17717285 -99.83442383 125.6043457 -99.33056641 125.01416016 C-95.92807638 121.04105929 -92.45465947 117.13519198 -88.9609375 113.2421875 C-86.74540788 110.70889268 -84.62082436 108.11302933 -82.5 105.5 C-79.06798654 101.27190094 -75.53825837 97.16312146 -71.8984375 93.11328125 C-70.08118537 91.09037302 -68.28692342 89.04970628 -66.5 87 C-63.34699442 83.38837542 -60.1635189 79.8047553 -56.97265625 76.2265625 C-55.10990482 74.12405098 -53.27262419 72.00160924 -51.4375 69.875 C-49.25582753 67.3682928 -47.01248024 64.9981418 -44.625 62.6875 C-40.83426917 58.97309261 -37.60491658 54.86283409 -34.2890625 50.7265625 C-31.53326175 47.4440558 -28.55763824 44.48776607 -25.43359375 41.55859375 C-23.77434113 40.1076054 -23.77434113 40.1076054 -24 38 C-23.34 38 -22.68 38 -22 38 C-20.73071202 36.57279591 -19.53461407 35.08016224 -18.375 33.5625 C-15.65253757 30.04948586 -12.86049058 26.7330678 -9.8125 23.5 C-5.96514941 19.21164875 -2.68567436 14.56364651 -1 9 C-1.27235176 5.68107766 -1.27235176 5.68107766 -3 3 C-19.02972068 1.52960457 -34.21019304 7.14540956 -49.1875 12.1875 Z M-116 42 C-115 45 -115 45 -115 45 Z M-129 47 C-130.80036877 47.67891769 -132.61460325 48.32162308 -134.4375 48.9375 C-141.97155073 51.74564618 -148.80742266 55.62531621 -155.81176758 59.54663086 C-162.17650919 63.0841831 -168.52039292 66.12513764 -175.3203125 68.71875 C-178.38329156 70.18326477 -179.9691178 71.2666397 -182 74 C-182.97341553 76.76201033 -183.52219616 79.56335879 -184.0625 82.4375 C-184.39402237 84.05999989 -184.72605708 85.68239519 -185.05859375 87.3046875 C-185.2169873 88.10229492 -185.37538086 88.89990234 -185.53857422 89.72167969 C-186.17217975 92.85014891 -186.8941521 95.95547827 -187.625 99.0625 C-188.41655391 102.45186649 -189.17373707 105.84108298 -189.875 109.25 C-190.49499017 112.13453052 -191.2768382 114.87975092 -192.1640625 117.69921875 C-192.49108154 118.74190918 -192.49108154 118.74190918 -192.82470703 119.80566406 C-193.25123073 121.15215899 -193.69066417 122.49469342 -194.14794922 123.83105469 C-198.67577049 138.19301051 -198.4479393 154.38194073 -199.125 169.3125 C-199.18853668 170.65041092 -199.18853668 170.65041092 -199.25335693 172.01535034 C-199.86909387 185.01445173 -200.29030196 197.98479562 -200 211 C-196.13427153 207.23357464 -192.56325487 203.29369459 -189.0625 199.1875 C-188.53180908 198.56657471 -188.00111816 197.94564941 -187.4543457 197.3059082 C-183.78951858 192.99166086 -180.33161579 188.57618491 -177 184 C-170.8529599 175.8316359 -170.8529599 175.8316359 -167.5 172.5625 C-164.50975361 169.49749745 -162.24478205 166.15407338 -159.828125 162.62890625 C-155.63830884 156.60380737 -151.18664395 151.18664395 -146 146 C-143.04042062 142.34815827 -143.04042062 142.34815827 -142 138 C-141.01 137.67 -140.02 137.34 -139 137 C-137.42736464 135.14246693 -135.93721097 133.21418832 -134.5 131.25 C-133.33984375 129.67992187 -133.33984375 129.67992187 -132.15625 128.078125 C-131.4446875 127.06234375 -130.733125 126.0465625 -130 125 C-129.41605469 124.21753906 -128.83210938 123.43507813 -128.23046875 122.62890625 C-126.53104555 118.99807511 -126.67596244 115.60507767 -126.8125 111.6875 C-126.82603516 110.94693359 -126.83957031 110.20636719 -126.85351562 109.44335938 C-126.88864021 107.62858925 -126.94244028 105.81419712 -127 104 C-128.485 104.495 -128.485 104.495 -130 105 C-130 105.99 -130 106.98 -130 108 C-131.485 108.495 -131.485 108.495 -133 109 C-133.433125 109.9075 -133.86625 110.815 -134.3125 111.75 C-136.28887345 115.55634887 -138.72824721 117.2851413 -142 120 C-142.350625 120.886875 -142.70125 121.77375 -143.0625 122.6875 C-144 125 -144 125 -146.625 126.3125 C-147.40875 126.539375 -148.1925 126.76625 -149 127 C-149 127.66 -149 128.32 -149 129 C-149.66 129 -150.32 129 -151 129 C-151.66 130.11375 -152.32 131.2275 -153 132.375 C-153.556875 133.31472656 -153.556875 133.31472656 -154.125 134.2734375 C-155.15068348 135.97472667 -155.15068348 135.97472667 -155 138 C-155.66 138 -156.32 138 -157 138 C-157.38671875 138.74765625 -157.7734375 139.4953125 -158.171875 140.265625 C-158.69265625 141.25046875 -159.2134375 142.2353125 -159.75 143.25 C-160.51570313 144.71179688 -160.51570313 144.71179688 -161.296875 146.203125 C-162.9746116 148.95830712 -164.69274999 150.76994423 -167 153 C-168.65639192 155.06638992 -170.27820697 157.13903225 -171.875 159.25 C-172.53145508 160.11008667 -172.53145508 160.11008667 -173.20117188 160.98754883 C-176.11167955 164.80678406 -178.99584924 168.6455279 -181.84375 172.51171875 C-184.61596887 176.08001398 -186.5967118 176.42565806 -191 177 C-191 176.01 -191 175.02 -191 174 C-190.10087891 173.84724609 -190.10087891 173.84724609 -189.18359375 173.69140625 C-183.17600583 171.78918253 -178.77286461 163.33715092 -176 158 C-176 157.34 -176 156.68 -176 156 C-175.34 156 -174.68 156 -174 156 C-172.52198889 153.95902172 -172.52198889 153.95902172 -171 151.3125 C-168.21414744 146.78767059 -165.22619022 142.59683483 -161.9375 138.4375 C-154.55539749 130.02598052 -154.55539749 130.02598052 -151 120 C-150.34 120 -149.68 120 -149 120 C-147.63823078 118.35648543 -146.31037934 116.68477344 -145 115 C-143.700625 113.7315625 -143.700625 113.7315625 -142.375 112.4375 C-139.96835464 110.23287036 -139.96835464 110.23287036 -139 107.875 C-138 106 -138 106 -135.625 104.6875 C-128.40408344 100.04548221 -126.75163951 89.87593152 -125 82 C-123.96686524 76.16284345 -123.37315656 70.26700886 -122.75 64.375 C-122.57656178 62.83451786 -122.40208723 61.29415204 -122.2265625 59.75390625 C-121.31865809 51.89738223 -121.31865809 51.89738223 -121 44 C-124.64325418 44 -125.92735557 45.12202145 -129 47 Z M-185.875 46.375 C-188.96873256 50.19666963 -189.8261987 54.28408066 -191 59 C-191.32871094 60.24330078 -191.32871094 60.24330078 -191.6640625 61.51171875 C-192.63841436 65.44160457 -193.23679143 68.05993586 -192 72 C-188.25332798 70.3672149 -188.25332798 70.3672149 -185 68 C-184.40393782 65.08460674 -183.86838377 62.1828924 -183.375 59.25 C-183.22804688 58.43789062 -183.08109375 57.62578125 -182.9296875 56.7890625 C-182.2184431 52.58998501 -181.72973171 49.16647999 -183 45 C-184.25312157 44.90143939 -184.25312157 44.90143939 -185.875 46.375 Z M-194 78 C-194.73093363 80.42738754 -194.73093363 80.42738754 -194.828125 83.19140625 C-194.90546875 84.21943359 -194.9828125 85.24746094 -195.0625 86.30664062 C-195.124375 87.38107422 -195.18625 88.45550781 -195.25 89.5625 C-195.32734375 90.60986328 -195.4046875 91.65722656 -195.484375 92.73632812 C-195.93183217 99.16452974 -196.09705334 105.55763534 -196 112 C-194.41277863 109.08077405 -193.4881005 106.35569698 -192.74609375 103.12109375 C-192.53146484 102.20005859 -192.31683594 101.27902344 -192.09570312 100.33007812 C-191.87849609 99.37552734 -191.66128906 98.42097656 -191.4375 97.4375 C-190.9998352 95.54010189 -190.56108044 93.64295478 -190.12109375 91.74609375 C-189.9295874 90.90747803 -189.73808105 90.0688623 -189.54077148 89.20483398 C-189 87 -189 87 -188 84 C-187.93259135 82.43881572 -187.91485544 80.8749748 -187.9375 79.3125 C-187.94652344 78.50425781 -187.95554687 77.69601563 -187.96484375 76.86328125 C-187.97644531 76.24839844 -187.98804688 75.63351563 -188 75 C-190.88431003 75 -191.93115619 76.0409947 -194 78 Z M-102 135 C-102 138 -102 138 -102 138 Z M-105 138 C-105 138.66 -105 139.32 -105 140 C-104.34 140 -103.68 140 -103 140 C-103 139.34 -103 138.68 -103 138 C-103.66 138 -104.32 138 -105 138 Z " fill="#5D5B6E" transform="translate(333,140)"/>
<path d="M0 0 C0.33 0 0.66 0 1 0 C1.495 4.455 1.495 4.455 2 9 C2.99 9 3.98 9 5 9 C4.74438677 11.3431213 4.40729228 13.67843403 4 16 C3.01 16.495 3.01 16.495 2 17 C2 16.34 2 15.68 2 15 C1.34 15 0.68 15 0 15 C0.10828125 16.00353516 0.10828125 16.00353516 0.21875 17.02734375 C1.82618819 33.6598639 0.78730552 50.26913591 -0.14550781 66.90795898 C-0.85006952 79.62002566 -1.12270575 92.2684268 -1 105 C3.31233628 99.74580379 7.62228301 94.49016164 11.875 89.1875 C12.51953125 88.38441406 13.1640625 87.58132813 13.828125 86.75390625 C15.48630867 84.65135321 17.11699022 82.53592706 18.734375 80.40234375 C19.21277832 79.77755127 19.69118164 79.15275879 20.18408203 78.5090332 C21.11981826 77.28553669 22.04833648 76.05647342 22.96826172 74.82104492 C25.92989478 70.96544757 28.75893945 68.41158345 33 66 C33.66 66 34.32 66 35 66 C34.5239583 70.76041705 32.55922133 73.08863782 29.4375 76.625 C25.14489307 81.55963701 21.30872564 86.62586525 17.59375 92.015625 C17.0678125 92.67046875 16.541875 93.3253125 16 94 C15.34 94 14.68 94 14 94 C13.73574219 94.58394531 13.47148437 95.16789062 13.19921875 95.76953125 C11.95407889 98.08541027 10.58537896 99.75234379 8.8125 101.6875 C7.5177707 103.10351542 6.25261707 104.54659913 5 106 C4.41782715 106.58644287 3.8356543 107.17288574 3.23583984 107.77709961 C-2.8507131 114.4816359 -3.04790352 120.38240262 -3 129.1875 C-3.01601376 130.59239248 -3.03422626 131.99726133 -3.05444336 133.40209961 C-3.26236338 153.59617573 -2.58747948 173.81654967 -2 194 C-3.65 194.33 -5.3 194.66 -7 195 C-7.95300008 192.14099977 -8.15042441 190.25313537 -8.20532227 187.27929688 C-8.2352401 185.84003845 -8.2352401 185.84003845 -8.26576233 184.3717041 C-8.28247482 183.33122925 -8.29918732 182.29075439 -8.31640625 181.21875 C-8.33718735 180.13605835 -8.35796844 179.0533667 -8.37937927 177.93786621 C-8.42268759 175.63456191 -8.46372398 173.33121396 -8.50268555 171.02783203 C-8.56132627 167.56922627 -8.62666938 164.11080264 -8.69335938 160.65234375 C-8.93325544 147.76689604 -9.06147166 134.88758219 -9 122 C-10.13148667 122.93542767 -11.2581703 123.87666695 -12.3828125 124.8203125 C-13.01074707 125.34383301 -13.63868164 125.86735352 -14.28564453 126.40673828 C-16.20595743 128.06271518 -16.20595743 128.06271518 -17.875 130.875 C-21.9752211 136.90473691 -28.05690692 142.53134468 -35 145 C-38.375 145.1875 -38.375 145.1875 -41 145 C-41.625 143.1875 -41.625 143.1875 -42 141 C-41.34 140.01 -40.68 139.02 -40 138 C-39.195625 138.37125 -39.195625 138.37125 -38.375 138.75 C-34.76408663 139.13009614 -32.70528313 137.16986251 -30 135 C-26.84187589 132.07191388 -23.82543692 129.01397006 -20.8125 125.9375 C-20.00619141 125.12216797 -19.19988281 124.30683594 -18.36914062 123.46679688 C-16.87634696 121.95663072 -15.38562422 120.44441246 -13.89770508 118.92944336 C-12.72939821 117.74159707 -11.53159202 116.58100722 -10.28979492 115.47021484 C-5.42488609 109.92478971 -7.66465008 95.1363509 -7.5 87.8125 C-7.25810628 77.17708873 -6.87578938 66.60619205 -6 56 C-6.37511719 56.96679688 -6.75023437 57.93359375 -7.13671875 58.9296875 C-14.99681817 78.99681817 -14.99681817 78.99681817 -18 82 C-19.66617115 82.04063832 -21.33388095 82.042721 -23 82 C-21.61706734 78.35827733 -19.96236226 74.99446422 -18.125 71.5625 C-15.26187459 65.91287785 -13.48792415 60.29540009 -11.8671875 54.1875 C-11.17099929 51.62853794 -10.40160599 49.21493079 -9.4375 46.75 C-4.36021371 33.56009323 -3.23433612 20.19079385 -2.34375 6.1640625 C-1.96672539 3.79052122 -1.17857497 2.08151548 0 0 Z " fill="#56546B" transform="translate(135,245)"/>
<path d="M0 0 C0.1546875 0.9590625 0.1546875 0.9590625 0.3125 1.9375 C0.6528125 2.9584375 0.6528125 2.9584375 1 4 C1.99 4.33 2.98 4.66 4 5 C3.01 5.33 2.02 5.66 1 6 C1 6.99 1 7.98 1 9 C0.34 9.33 -0.32 9.66 -1 10 C-1.61875 11.36125 -1.61875 11.36125 -2.25 12.75 C-4.28300334 16.52557763 -6.72969541 18.27474617 -10 21 C-10.53625 22.0725 -11.0725 23.145 -11.625 24.25 C-13 27 -13 27 -15.125 27.75 C-16.053125 27.87375 -16.053125 27.87375 -17 28 C-17.33 28.66 -17.66 29.32 -18 30 C-18.66 30 -19.32 30 -20 30 C-20.433125 31.11375 -20.433125 31.11375 -20.875 32.25 C-21.82302644 34.56739797 -22.84845911 36.77917115 -24 39 C-24.66 39 -25.32 39 -26 39 C-26.268125 39.70125 -26.53625 40.4025 -26.8125 41.125 C-30.11246885 49.11439826 -30.11246885 49.11439826 -32.796875 51.79296875 C-35.42167166 54.4224193 -37.6387333 57.29378336 -39.875 60.25 C-40.31336182 60.82411621 -40.75172363 61.39823242 -41.20336914 61.98974609 C-44.08629758 65.77162936 -46.93860023 69.57575793 -49.74609375 73.4140625 C-51.08343296 75.1055258 -52.35045895 76.60584475 -54 78 C-57.1875 78.1875 -57.1875 78.1875 -60 78 C-60 77.01 -60 76.02 -60 75 C-58.35666496 73.96210419 -56.68756133 72.96432076 -55 72 C-54.34 71.01 -53.68 70.02 -53 69 C-52.34 69 -51.68 69 -51 69 C-50.7525 68.13375 -50.505 67.2675 -50.25 66.375 C-48.92199976 62.78939936 -47.31369152 60.03672013 -45 57 C-44.34 57 -43.68 57 -43 57 C-42.74734375 56.28457031 -42.4946875 55.56914062 -42.234375 54.83203125 C-40.89329972 51.75519715 -39.25668029 49.37474047 -37.25 46.6875 C-36.53457031 45.72070312 -35.81914062 44.75390625 -35.08203125 43.7578125 C-33.86090994 42.14034225 -32.63242831 40.52829783 -31.38671875 38.9296875 C-27.56413635 34.00463524 -24.51829626 28.80807067 -21.515625 23.34375 C-21.01546875 22.5703125 -20.5153125 21.796875 -20 21 C-19.34 21 -18.68 21 -18 21 C-17.773125 20.443125 -17.54625 19.88625 -17.3125 19.3125 C-15.64123288 16.3678865 -13.39147596 14.39147596 -11 12 C-10.34 10.96875 -9.68 9.9375 -9 8.875 C-6.88749347 5.83827186 -5.18333359 4.75921067 -2 3 C-1.34 2.01 -0.68 1.02 0 0 Z " fill="#5F5D72" transform="translate(202,239)"/>
<path d="M0 0 C0 0.66 0 1.32 0 2 C-4.62 3.32 -9.24 4.64 -14 6 C-14 6.66 -14 7.32 -14 8 C-14.98057373 8.31638428 -15.96114746 8.63276855 -16.97143555 8.95874023 C-46.68243141 18.53178809 -46.68243141 18.53178809 -75.21484375 31.1171875 C-78.19480214 32.62299014 -81.18824488 33.9390786 -84.3125 35.125 C-89.21982101 36.98931976 -91.5387686 38.07753719 -94 43 C-94.66 39.7 -95.32 36.4 -96 33 C-94.9186377 32.7071814 -94.9186377 32.7071814 -93.81542969 32.40844727 C-83.55830481 29.45701455 -73.98926077 25.25906699 -64.25 20.9375 C-61.79204956 19.85097253 -59.33319062 18.76665136 -56.87225342 17.68690491 C-55.35547492 17.02103832 -53.84039175 16.35128947 -52.32745361 15.67674255 C-47.9410644 13.74661614 -43.5284033 12.10327162 -38.96615601 10.63504028 C-35.52781559 9.52450548 -32.15715359 8.22992679 -28.7734375 6.96484375 C-22.86987241 4.91106829 -16.80701348 3.40055377 -10.75 1.875 C-9.69039062 1.60236328 -9.69039062 1.60236328 -8.609375 1.32421875 C-5.66021091 0.58134219 -3.05420646 0 0 0 Z " fill="#73727D" transform="translate(317,139)"/>
<path d="M0 0 C0.33 0 0.66 0 1 0 C1.05416188 1.60379341 1.09286638 3.20811406 1.125 4.8125 C1.14820313 5.70582031 1.17140625 6.59914063 1.1953125 7.51953125 C1 10 1 10 -1 13 C-0.01 13 0.98 13 2 13 C1.67 14.98 1.34 16.96 1 19 C1.66 18.67 2.32 18.34 3 18 C3 15.03 3 12.06 3 9 C4.32 8.67 5.64 8.34 7 8 C6.67 8.66 6.34 9.32 6 10 C5.08294638 21.52096769 3.68028013 39.53449924 11 49 C11 50.32 11 51.64 11 53 C9.35 53 7.7 53 6 53 C2.27936982 45.16139078 0.92893181 37.58528557 0 29 C-0.11214844 27.97132813 -0.22429687 26.94265625 -0.33984375 25.8828125 C-0.57695782 23.58962709 -0.79891681 21.29658165 -1 19 C-2.14888283 20.12188559 -3.29401137 21.24761684 -4.4375 22.375 C-5.07558594 23.00148438 -5.71367187 23.62796875 -6.37109375 24.2734375 C-8.07882176 25.91723061 -8.07882176 25.91723061 -9 28 C-9.66 28 -10.32 28 -11 28 C-11.268125 28.7425 -11.53625 29.485 -11.8125 30.25 C-12.97059859 32.93191253 -13.97489986 34.89701139 -16 37 C-17.32 37 -18.64 37 -20 37 C-19.47942846 32.4072156 -17.67588943 29.80966718 -14.875 26.1875 C-14.47337646 25.66486572 -14.07175293 25.14223145 -13.65795898 24.60375977 C-10.71761106 20.81399094 -7.63717491 17.16852561 -4.41015625 13.62109375 C-1.70417342 10.51033786 -0.72561127 8.34452962 -0.375 4.3125 C-0.30023438 3.50425781 -0.22546875 2.69601562 -0.1484375 1.86328125 C-0.09945312 1.24839844 -0.05046875 0.63351562 0 0 Z " fill="#626073" transform="translate(202,295)"/>
<path d="M0 0 C0.33 0 0.66 0 1 0 C1.495 4.455 1.495 4.455 2 9 C2.66 9 3.32 9 4 9 C4 11.64 4 14.28 4 17 C1 13.25 1 13.25 1 11 C0.01 11 -0.98 11 -2 11 C-2.33 12.32 -2.66 13.64 -3 15 C-3.66 15 -4.32 15 -5 15 C-5.26296875 15.57234375 -5.5259375 16.1446875 -5.796875 16.734375 C-7.0767023 19.14443939 -8.54804648 21.11872488 -10.25 23.25 C-12.53682101 26.14160012 -14.79939875 29.04220262 -17 32 C-18 33.33333333 -19 34.66666667 -20 36 C-20.61359375 36.825 -21.2271875 37.65 -21.859375 38.5 C-22.48328125 39.325 -23.1071875 40.15 -23.75 41 C-24.32234375 41.763125 -24.8946875 42.52625 -25.484375 43.3125 C-25.98453125 43.869375 -26.4846875 44.42625 -27 45 C-27.66 45 -28.32 45 -29 45 C-29.268125 45.556875 -29.53625 46.11375 -29.8125 46.6875 C-31.10122647 49.19712523 -32.52926478 51.59334236 -34 54 C-34.495 52.515 -34.495 52.515 -35 51 C-36.65 51.99 -38.3 52.98 -40 54 C-35.93670265 45.36056195 -29.46154142 36.98143555 -23 30 C-22.34 30 -21.68 30 -21 30 C-20.71769531 29.42121094 -20.43539062 28.84242188 -20.14453125 28.24609375 C-17.1325698 22.3352479 -13.75639861 17.64315103 -9 13 C-5.57672243 8.88612631 -2.24857923 4.88484454 0 0 Z " fill="#636172" transform="translate(205,260)"/>
<path d="M0 0 C0.66 0 1.32 0 2 0 C2 0.66 2 1.32 2 2 C2.99 2.33 3.98 2.66 5 3 C4.67 4.65 4.34 6.3 4 8 C3.01 8 2.02 8 1 8 C-2.35810878 10.42927018 -4.56547371 12.32573507 -6.8125 15.8125 C-10.95998441 21.85597728 -17.01405715 27.51610921 -24 30 C-27.375 30.1875 -27.375 30.1875 -30 30 C-30.625 28.1875 -30.625 28.1875 -31 26 C-30.01 24.515 -30.01 24.515 -29 23 C-28.46375 23.2475 -27.9275 23.495 -27.375 23.75 C-23.76332382 24.13017644 -21.70784139 22.1680006 -19 20 C-15.79892471 17.05251827 -12.74062171 13.97464081 -9.6875 10.875 C-8.86443359 10.05128906 -8.04136719 9.22757812 -7.19335938 8.37890625 C-3.12212199 4.54526935 -3.12212199 4.54526935 0 0 Z " fill="#4F4C5F" transform="translate(124,360)"/>
<path d="M0 0 C0 8.25 0 16.5 0 25 C1.65 24.67 3.3 24.34 5 24 C5 24.99 5 25.98 5 27 C4.34 27 3.68 27 3 27 C2.67 28.98 2.34 30.96 2 33 C0.02 33.495 0.02 33.495 -2 34 C-2 36.97 -2 39.94 -2 43 C-3.485 43.495 -3.485 43.495 -5 44 C-5.33 42.35 -5.66 40.7 -6 39 C-5.01 38.505 -5.01 38.505 -4 38 C-4.99 38 -5.98 38 -7 38 C-6.67 37.01 -6.34 36.02 -6 35 C-5.87295316 33.01799789 -5.79827245 31.0324492 -5.75390625 29.046875 C-5.72103516 27.86996094 -5.68816406 26.69304687 -5.65429688 25.48046875 C-5.59348552 23.00919869 -5.53614871 20.53784049 -5.48242188 18.06640625 C-5.14281714 6.31480094 -5.14281714 6.31480094 -3 1 C-1 0 -1 0 0 0 Z " fill="#565369" transform="translate(208,270)"/>
<path d="M0 0 C0.66 0.33 1.32 0.66 2 1 C-0.78693137 8.74902869 -6.37045077 14.60036493 -12.234375 20.2265625 C-14.81995512 22.82358324 -17.11286752 25.65299342 -19.421875 28.49609375 C-21 30 -21 30 -24 30 C-22.74828903 23.32420814 -19.59784063 19.84782032 -15 15 C-13.55689005 13.40087817 -12.11935526 11.79670709 -10.6875 10.1875 C-10.03136719 9.45917969 -9.37523437 8.73085937 -8.69921875 7.98046875 C-6.84995118 5.90580959 -6.84995118 5.90580959 -5 3 C-2.5 1.25 -2.5 1.25 0 0 Z " fill="#5E5C69" transform="translate(284,208)"/>
<path d="M0 0 C1.34645473 3.73211948 0.64246049 6.39933919 -0.3125 10.1875 C-0.59996094 11.35152344 -0.88742188 12.51554688 -1.18359375 13.71484375 C-1.45300781 14.79894531 -1.72242188 15.88304687 -2 17 C-2.29685646 18.41558826 -2.58920758 19.83213661 -2.875 21.25 C-4.02810233 26.54244404 -5.65038838 31.70974328 -7.23583984 36.88574219 C-8.45281637 40.90906473 -9.41473283 44.8242174 -10 49 C-10.33 49 -10.66 49 -11 49 C-11.36275656 46.73052303 -11.71493186 44.45935265 -12.0625 42.1875 C-12.25972656 40.92292969 -12.45695313 39.65835938 -12.66015625 38.35546875 C-13 35 -13 35 -12 32 C-11.01 32.33 -10.02 32.66 -9 33 C-8.01 29.535 -8.01 29.535 -7 26 C-7.99 26 -8.98 26 -10 26 C-8.68 20.06 -7.36 14.12 -6 8 C-5.67 9.32 -5.34 10.64 -5 12 C-2.65085508 9.65085508 -2.26859643 8.04320554 -1.375 4.875 C-1.11460937 3.96492187 -0.85421875 3.05484375 -0.5859375 2.1171875 C-0.39257812 1.41851562 -0.19921875 0.71984375 0 0 Z " fill="#646279" transform="translate(147,228)"/>
<path d="M0 0 C0 0.66 0 1.32 0 2 C-4.62 3.32 -9.24 4.64 -14 6 C-14 6.66 -14 7.32 -14 8 C-18.03700012 9.34775764 -22.08027578 10.67562127 -26.125 12 C-27.83816406 12.57234375 -27.83816406 12.57234375 -29.5859375 13.15625 C-30.69453125 13.5171875 -31.803125 13.878125 -32.9453125 14.25 C-33.96125488 14.58515625 -34.97719727 14.9203125 -36.02392578 15.265625 C-39.12716514 16.03137922 -41.81669938 16.13281046 -45 16 C-45 15.34 -45 14.68 -45 14 C-43.35 14 -41.7 14 -40 14 C-40 13.34 -40 12.68 -40 12 C-30.69473794 7.11473742 -20.89802615 4.43093942 -10.75 1.875 C-9.69039063 1.60236328 -9.69039063 1.60236328 -8.609375 1.32421875 C-5.66021091 0.58134219 -3.05420646 0 0 0 Z " fill="#6A6972" transform="translate(317,139)"/>
<path d="M0 0 C0.99 0.66 1.98 1.32 3 2 C1.59448102 5.54619098 0.173617 9.08603987 -1.25 12.625 C-1.64574219 13.62402344 -2.04148437 14.62304688 -2.44921875 15.65234375 C-6.50293527 25.6869535 -6.50293527 25.6869535 -10 30 C-12.75 30.375 -12.75 30.375 -15 30 C-13.57986184 26.27638414 -11.89995366 22.78464367 -10.0625 19.25 C-7.52955409 14.24603839 -5.60997754 9.36659179 -4 4 C-2.68 4.33 -1.36 4.66 0 5 C0 3.35 0 1.7 0 0 Z " fill="#706E79" transform="translate(127,297)"/>
<path d="M0 0 C0.33 0 0.66 0 1 0 C0.44175138 17.00594015 -0.17735674 34.00454037 -1 51 C-1.33 51 -1.66 51 -2 51 C-2 44.4 -2 37.8 -2 31 C-2.99 31 -3.98 31 -5 31 C-5 32.98 -5 34.96 -5 37 C-5.66 36.67 -6.32 36.34 -7 36 C-6.34 31.38 -5.68 26.76 -5 22 C-4.34 22.33 -3.68 22.66 -3 23 C-3 21.02 -3 19.04 -3 17 C-3.66 17 -4.32 17 -5 17 C-5 14.69 -5 12.38 -5 10 C-4.01 10 -3.02 10 -2 10 C-2 9.01 -2 8.02 -2 7 C-1.34 7 -0.68 7 0 7 C0 4.69 0 2.38 0 0 Z " fill="#626480" transform="translate(135,279)"/>
<path d="M0 0 C-0.25561323 2.3431213 -0.59270772 4.67843403 -1 7 C-1.99 7.495 -1.99 7.495 -3 8 C-3.36871088 9.65919896 -3.69595322 11.32774271 -4 13 C-4.63437344 14.6792238 -5.29289322 16.35008418 -6 18 C-7.98 17.67 -9.96 17.34 -12 17 C-12.33 17.66 -12.66 18.32 -13 19 C-13.99 19.66 -14.98 20.32 -16 21 C-15.42655063 18.13275314 -15.1385485 17.1385485 -13 15 C-12.35232207 12.42938689 -12.35232207 12.42938689 -12 10 C-11.34 10 -10.68 10 -10 10 C-9.67 9.01 -9.34 8.02 -9 7 C-8.34 7 -7.68 7 -7 7 C-6.896875 6.401875 -6.79375 5.80375 -6.6875 5.1875 C-5.47470998 1.32862265 -4.05869208 0 0 0 Z " fill="#514F63" transform="translate(231,271)"/>
<path d="M0 0 C0.99 0 1.98 0 3 0 C3 7.26 3 14.52 3 22 C2.34 22 1.68 22 1 22 C0.67 21.34 0.34 20.68 0 20 C-0.33 27.26 -0.66 34.52 -1 42 C-1.66 42 -2.32 42 -3 42 C-2.67 30.12 -2.34 18.24 -2 6 C-1.34 6 -0.68 6 0 6 C0 4.02 0 2.04 0 0 Z " fill="#676577" transform="translate(130,310)"/>
<path d="M0 0 C0.33 0.66 0.66 1.32 1 2 C1.99 1.67 2.98 1.34 4 1 C3.125 5.75 3.125 5.75 2 8 C2.66 8 3.32 8 4 8 C4.21457149 11.14704859 4.33532369 13.34798172 2.875 16.1875 C0.50746059 18.47612143 -2.03133923 19.61041411 -5 21 C-5.66 21.66 -6.32 22.32 -7 23 C-7 21.35 -7 19.7 -7 18 C-6.34 18 -5.68 18 -5 18 C-5 16.35 -5 14.7 -5 13 C-4.01 13.33 -3.02 13.66 -2 14 C-1.06576355 10.98968256 -0.95550089 10.13349732 -2 7 C-1.67 6.34 -1.34 5.68 -1 5 C-1.99 4.67 -2.98 4.34 -4 4 C-2.68 2.68 -1.36 1.36 0 0 Z " fill="#6A657A" transform="translate(232,266)"/>
<path d="M0 0 C0.33 0.99 0.66 1.98 1 3 C-0.32 3.99 -1.64 4.98 -3 6 C-2.34 6.33 -1.68 6.66 -1 7 C-0.67 6.34 -0.34 5.68 0 5 C0 6.32 0 7.64 0 9 C-1.0828125 8.9071875 -1.0828125 8.9071875 -2.1875 8.8125 C-5.61348911 9.04089927 -7.10441963 10.18184489 -10 12 C-13.71192238 13.61895239 -16.92013376 15 -21 15 C-21 14.34 -21 13.68 -21 13 C-21.99 12.67 -22.98 12.34 -24 12 C-23.47043701 11.76812988 -22.94087402 11.53625977 -22.39526367 11.29736328 C-19.99137496 10.24284584 -17.58942866 9.18397389 -15.1875 8.125 C-14.35412109 7.76019531 -13.52074219 7.39539063 -12.66210938 7.01953125 C-11.45844727 6.48779297 -11.45844727 6.48779297 -10.23046875 5.9453125 C-9.49207764 5.62062988 -8.75368652 5.29594727 -7.99291992 4.96142578 C-5.76561139 3.94346144 -5.76561139 3.94346144 -3 2 C-2.01 2 -1.02 2 0 2 C0 1.34 0 0.68 0 0 Z " fill="#686678" transform="translate(214,176)"/>
<path d="M0 0 C1.32 0.33 2.64 0.66 4 1 C2.19036627 9.04281656 -4.27558935 14.44905634 -10 20 C-10.33 19.01 -10.66 18.02 -11 17 C-10.34 16.34 -9.68 15.68 -9 15 C-9 13.68 -9 12.36 -9 11 C-7.03125 8.203125 -7.03125 8.203125 -4.5 5.25 C-3.6646875 4.26515625 -2.829375 3.2803125 -1.96875 2.265625 C-0.99421875 1.14414062 -0.99421875 1.14414062 0 0 Z " fill="#565363" transform="translate(145,336)"/>
<path d="M0 0 C0.33 0 0.66 0 1 0 C1.33 2.97 1.66 5.94 2 9 C2.66 9 3.32 9 4 9 C4 11.64 4 14.28 4 17 C1 13.25 1 13.25 1 11 C0.01 11 -0.98 11 -2 11 C-2.33 12.32 -2.66 13.64 -3 15 C-3.66 15 -4.32 15 -5 15 C-5.33 15.66 -5.66 16.32 -6 17 C-7.65 16.67 -9.3 16.34 -11 16 C-7.96177443 11.26036811 -5.0717331 6.92092817 -1 3 C-0.67 2.01 -0.34 1.02 0 0 Z " fill="#646272" transform="translate(205,260)"/>
<path d="M0 0 C0.33 0 0.66 0 1 0 C1.33 2.97 1.66 5.94 2 9 C2.99 9 3.98 9 5 9 C4.74438677 11.3431213 4.40729228 13.67843403 4 16 C3.34 16.33 2.68 16.66 2 17 C2 16.34 2 15.68 2 15 C1.34 15 0.68 15 0 15 C0 19.62 0 24.24 0 29 C-0.33 29 -0.66 29 -1 29 C-2.30033449 24.01711825 -2.18381468 19.04904042 -2.1875 13.9375 C-2.19974609 13.03966797 -2.21199219 12.14183594 -2.22460938 11.21679688 C-2.22654297 10.34990234 -2.22847656 9.48300781 -2.23046875 8.58984375 C-2.23457764 7.80472412 -2.23868652 7.01960449 -2.24291992 6.21069336 C-1.97310575 3.75524885 -1.22414635 2.12777681 0 0 Z " fill="#46435E" transform="translate(135,245)"/>
<path d="M0 0 C0.33 0.66 0.66 1.32 1 2 C0.67 2.66 0.34 3.32 0 4 C0.66 4 1.32 4 2 4 C1.41463247 7.66060821 -0.083239 9.54535164 -2.5625 12.25 C-3.20316406 12.95640625 -3.84382812 13.6628125 -4.50390625 14.390625 C-4.99761719 14.92171875 -5.49132812 15.4528125 -6 16 C-6.33 15.01 -6.66 14.02 -7 13 C-7.66 13 -8.32 13 -9 13 C-9 13.99 -9 14.98 -9 16 C-10.65 16.66 -12.3 17.32 -14 18 C-13.505 16.515 -13.505 16.515 -13 15 C-12.34 15 -11.68 15 -11 15 C-10.76539063 14.28457031 -10.53078125 13.56914062 -10.2890625 12.83203125 C-8.77628441 9.50850363 -6.86191333 7.35204999 -4.375 4.6875 C-3.55773437 3.80449219 -2.74046875 2.92148438 -1.8984375 2.01171875 C-0.95871094 1.01591797 -0.95871094 1.01591797 0 0 Z " fill="#666370" transform="translate(235,226)"/>
<path d="M0 0 C1.32 0 2.64 0 4 0 C4.22171552 2.60365928 4.42784859 5.20696493 4.625 7.8125 C4.68945312 8.55048828 4.75390625 9.28847656 4.8203125 10.04882812 C5.2265625 15.66015625 5.2265625 15.66015625 3 19 C2.29835358 20.98799818 1.62627128 22.98698517 1 25 C0.67 25 0.34 25 0 25 C0 20.71 0 16.42 0 12 C-0.99 12 -1.98 12 -3 12 C-2.67 10.68 -2.34 9.36 -2 8 C-2 8.99 -2 9.98 -2 11 C-1.01 10.67 -0.02 10.34 1 10 C1 8.02 1 6.04 1 4 C0.34 4.66 -0.32 5.32 -1 6 C-0.67 4.02 -0.34 2.04 0 0 Z " fill="#4B4965" transform="translate(206,231)"/>
<path d="M0 0 C0.33 0 0.66 0 1 0 C1.36520833 11.11856481 0.23223906 21.96485916 -1 33 C-1.33 33 -1.66 33 -2 33 C-2.33 31.35 -2.66 29.7 -3 28 C-3.66 28.66 -4.32 29.32 -5 30 C-5 25.05 -5 20.1 -5 15 C-4.67 15 -4.34 15 -4 15 C-3.67 16.65 -3.34 18.3 -3 20 C-2.01 13.4 -1.02 6.8 0 0 Z " fill="#6A697C" transform="translate(138,219)"/>
<path d="M0 0 C0 0.66 0 1.32 0 2 C-0.99 2.66 -1.98 3.32 -3 4 C-2.67 4.66 -2.34 5.32 -2 6 C-3.6037331 6.64690922 -5.20800306 7.29248764 -6.8125 7.9375 C-7.70582031 8.29714844 -8.59914062 8.65679687 -9.51953125 9.02734375 C-11.3270909 9.73613486 -13.15807409 10.3860247 -15 11 C-15.33 11.66 -15.66 12.32 -16 13 C-16.33 12.01 -16.66 11.02 -17 10 C-16.34 10 -15.68 10 -15 10 C-15.20625 9.236875 -15.4125 8.47375 -15.625 7.6875 C-16 5 -16 5 -14 2 C-14 2.99 -14 3.98 -14 5 C-13.15695313 4.6390625 -12.31390625 4.278125 -11.4453125 3.90625 C-10.34960938 3.4421875 -9.25390625 2.978125 -8.125 2.5 C-7.03445312 2.0359375 -5.94390625 1.571875 -4.8203125 1.09375 C-2 0 -2 0 0 0 Z " fill="#656476" transform="translate(167,201)"/>
<path d="M0 0 C0.66 0 1.32 0 2 0 C1.67 1.32 1.34 2.64 1 4 C1.66 4 2.32 4 3 4 C3 3.01 3 2.02 3 1 C4.32 1.33 5.64 1.66 7 2 C5.88200014 3.33920838 4.75538103 4.67122556 3.625 6 C2.68527344 7.11375 2.68527344 7.11375 1.7265625 8.25 C1.15679687 8.8275 0.58703125 9.405 0 10 C-0.66 10 -1.32 10 -2 10 C-2 10.66 -2 11.32 -2 12 C-3.051875 11.566875 -3.051875 11.566875 -4.125 11.125 C-6.96737996 10.69434336 -6.96737996 10.69434336 -8.66796875 12.26953125 C-10.17706479 13.80013459 -11.61434662 15.35721507 -13 17 C-13.66 16.67 -14.32 16.34 -15 16 C-13.88121617 14.82737096 -12.75476949 13.66204862 -11.625 12.5 C-10.99851563 11.8503125 -10.37203125 11.200625 -9.7265625 10.53125 C-8 9 -8 9 -6 9 C-5.67 8.01 -5.34 7.02 -5 6 C-4.34 6 -3.68 6 -3 6 C-2.690625 5.38125 -2.38125 4.7625 -2.0625 4.125 C-1.375 2.75 -0.6875 1.375 0 0 Z " fill="#6D6C77" transform="translate(263,196)"/>
<path d="M0 0 C0.99 0.66 1.98 1.32 3 2 C1.96975278 7.15123612 0.54380022 10.30754265 -3.3359375 13.91015625 C-5.89149089 15.58386375 -8.05471434 15.42075509 -11 15 C-11 14.01 -11 13.02 -11 12 C-9.35666496 10.96210419 -7.68756133 9.96432076 -6 9 C-5.34 8.01 -4.68 7.02 -4 6 C-3.34 6 -2.68 6 -2 6 C-1.34 4.02 -0.68 2.04 0 0 Z " fill="#5A5864" transform="translate(153,302)"/>
<path d="M0 0 C0.66 0 1.32 0 2 0 C3.1875 1.625 3.1875 1.625 4 4 C3.03863929 6.01885749 2.02930047 8.01492052 1 10 C0.17324342 13.3070263 -0.435429 16.63914202 -1 20 C-1.33 20 -1.66 20 -2 20 C-2.33 17.69 -2.66 15.38 -3 13 C-3.66 13 -4.32 13 -5 13 C-4.56744475 7.59305933 -3.41778487 4.24633878 0 0 Z " fill="#626071" transform="translate(143,184)"/>
<path d="M0 0 C2 2 2 2 2.22705078 4.24658203 C2.21657715 5.15778809 2.20610352 6.06899414 2.1953125 7.0078125 C2.18886719 7.99394531 2.18242187 8.98007812 2.17578125 9.99609375 C2.15902344 11.02863281 2.14226562 12.06117188 2.125 13.125 C2.11597656 14.16527344 2.10695312 15.20554687 2.09765625 16.27734375 C2.07403747 18.85179092 2.04110149 21.42578212 2 24 C1.01 23.67 0.02 23.34 -1 23 C-1.02887512 19.35418313 -1.04675585 15.70839537 -1.0625 12.0625 C-1.07087891 11.02158203 -1.07925781 9.98066406 -1.08789062 8.90820312 C-1.09272461 7.42416992 -1.09272461 7.42416992 -1.09765625 5.91015625 C-1.10289307 4.99371338 -1.10812988 4.07727051 -1.11352539 3.13305664 C-1 1 -1 1 0 0 Z " fill="#47455F" transform="translate(128,393)"/>
<path d="M0 0 C2 3 2 3 2 5 C2.66 5 3.32 5 4 5 C4 7.31 4 9.62 4 12 C3.34 12 2.68 12 2 12 C2.33 16.62 2.66 21.24 3 26 C2.01 26 1.02 26 0 26 C0 17.42 0 8.84 0 0 Z " fill="#46415F" transform="translate(129,327)"/>
<path d="M0 0 C0.33 0 0.66 0 1 0 C1.1953125 6.0546875 1.1953125 6.0546875 1 8 C0.34 8.66 -0.32 9.32 -1 10 C-1 10.33 -1 10.66 -1 11 C-7.625 11.125 -7.625 11.125 -11 10 C-11.75 8.0625 -11.75 8.0625 -12 6 C-11.67 5.34 -11.34 4.68 -11 4 C-7.37 4.66 -3.74 5.32 0 6 C0 4.02 0 2.04 0 0 Z " fill="#5C5C70" transform="translate(135,208)"/>
<path d="M0 0 C0.33 0.99 0.66 1.98 1 3 C0.34 3 -0.32 3 -1 3 C-1.33 4.98 -1.66 6.96 -2 9 C-3.32 9.33 -4.64 9.66 -6 10 C-6 12.97 -6 15.94 -6 19 C-6.99 19.33 -7.98 19.66 -9 20 C-9.33 18.35 -9.66 16.7 -10 15 C-9.34 14.67 -8.68 14.34 -8 14 C-8.99 14 -9.98 14 -11 14 C-10.67 13.01 -10.34 12.02 -10 11 C-9.34 11 -8.68 11 -8 11 C-7.67 9.68 -7.34 8.36 -7 7 C-6.34 7 -5.68 7 -5 7 C-4.9175 6.21625 -4.835 5.4325 -4.75 4.625 C-4 2 -4 2 -1.9375 0.6875 C-1.298125 0.460625 -0.65875 0.23375 0 0 Z " fill="#3F3A63" transform="translate(212,294)"/>
<path d="M0 0 C1.33333333 0.66666667 2.66666667 1.33333333 4 2 C4.99323514 5.5033485 5.0692633 8.68399738 4.87890625 12.30078125 C4.83056641 13.27724609 4.78222656 14.25371094 4.73242188 15.25976562 C4.67634766 16.26716797 4.62027344 17.27457031 4.5625 18.3125 C4.51029297 19.33923828 4.45808594 20.36597656 4.40429688 21.42382812 C4.27507334 23.94956087 4.14012709 26.47485261 4 29 C3.67 29 3.34 29 3 29 C3 22.4 3 15.8 3 9 C2.01 9 1.02 9 0 9 C0 10.98 0 12.96 0 15 C-0.66 14.67 -1.32 14.34 -2 14 C-1.34 9.38 -0.68 4.76 0 0 Z " fill="#6F6D80" transform="translate(130,301)"/>
<path d="M0 0 C0.33 0.99 0.66 1.98 1 3 C0.01 4.485 0.01 4.485 -1 6 C2.465 5.505 2.465 5.505 6 5 C6.33 5.99 6.66 6.98 7 8 C6.34 8.66 5.68 9.32 5 10 C4.01 9.34 3.02 8.68 2 8 C1.67 8.66 1.34 9.32 1 10 C-1.28515625 10.8515625 -1.28515625 10.8515625 -4.0625 11.625 C-4.98160156 11.88539063 -5.90070313 12.14578125 -6.84765625 12.4140625 C-7.55792969 12.60742188 -8.26820313 12.80078125 -9 13 C-7.50923566 9.7173068 -5.61379679 7.06922559 -3.375 4.25 C-2.74335938 3.45078125 -2.11171875 2.6515625 -1.4609375 1.828125 C-0.97882813 1.22484375 -0.49671875 0.6215625 0 0 Z " fill="#5D5970" transform="translate(218,283)"/>
<path d="M0 0 C0.99 0.33 1.98 0.66 3 1 C2.49178587 4.98101068 1.8818279 8.93318801 1.125 12.875 C0.98320312 13.63554687 0.84140625 14.39609375 0.6953125 15.1796875 C0.46585938 15.78039062 0.23640625 16.38109375 0 17 C-0.99 17.33 -1.98 17.66 -3 18 C-3.37634203 11.19796625 -2.77471079 6.24309927 0 0 Z " fill="#4D485F" transform="translate(145,222)"/>
<path d="M0 0 C0.33 0 0.66 0 1 0 C1.33 13.53 1.66 27.06 2 41 C-0.475 41.495 -0.475 41.495 -3 42 C-2.67 41.01 -2.34 40.02 -2 39 C-2 39.66 -2 40.32 -2 41 C-1.34 41 -0.68 41 0 41 C-0.66 39.35 -1.32 37.7 -2 36 C-1.505 35.505 -1.505 35.505 -1 35 C-0.84003834 32.40846893 -0.74061303 29.8404798 -0.68359375 27.24609375 C-0.66281265 26.47064713 -0.64203156 25.6952005 -0.62062073 24.89625549 C-0.55504198 22.41009692 -0.49620201 19.92382955 -0.4375 17.4375 C-0.39432267 15.75584796 -0.35070864 14.07420706 -0.30664062 12.39257812 C-0.19935221 8.26183129 -0.09810868 4.13097464 0 0 Z " fill="#747386" transform="translate(131,398)"/>
<path d="M0 0 C0.33 0 0.66 0 1 0 C1.02909763 3.24998112 1.04683161 6.49992857 1.0625 9.75 C1.07087891 10.67039062 1.07925781 11.59078125 1.08789062 12.5390625 C1.09111328 13.42851562 1.09433594 14.31796875 1.09765625 15.234375 C1.10289307 16.05131836 1.10812988 16.86826172 1.11352539 17.70996094 C1.00299021 19.93968135 0.62055567 21.86133755 0 24 C-0.66 24 -1.32 24 -2 24 C-2.66 25.32 -3.32 26.64 -4 28 C-4.08082094 26.04233719 -4.13910778 24.08373272 -4.1875 22.125 C-4.22230469 21.03445313 -4.25710937 19.94390625 -4.29296875 18.8203125 C-4.19628906 17.88960938 -4.09960938 16.95890625 -4 16 C-3.01 15.34 -2.02 14.68 -1 14 C-0.41312216 10.65386488 -0.41312216 10.65386488 -0.3125 6.875 C-0.24675781 5.59367187 -0.18101562 4.31234375 -0.11328125 2.9921875 C-0.05720703 1.51105469 -0.05720703 1.51105469 0 0 Z " fill="#595575" transform="translate(207,277)"/>
<path d="M0 0 C0 1.32 0 2.64 0 4 C-2.3359375 6.140625 -2.3359375 6.140625 -5.375 8.25 C-6.37273437 8.95640625 -7.37046875 9.6628125 -8.3984375 10.390625 C-11 12 -11 12 -13 12 C-11.50948318 7.39294801 -9.21457741 4.53603516 -6 1 C-4 0 -4 0 0 0 Z " fill="#515058" transform="translate(313,157)"/>
<path d="M0 0 C0.99 0.33 1.98 0.66 3 1 C2.67 14.86 2.34 28.72 2 43 C1.67 43 1.34 43 1 43 C0.98541748 42.13721436 0.97083496 41.27442871 0.95581055 40.38549805 C0.89472246 37.18150353 0.82056451 33.97815375 0.73754883 30.7746582 C0.70431451 29.38870623 0.67627774 28.00261939 0.65356445 26.61645508 C0.61999383 24.62293157 0.56612 22.62978259 0.51171875 20.63671875 C0.48553467 19.43748779 0.45935059 18.23825684 0.43237305 17.00268555 C-0.03633007 13.74769986 -0.54744815 13.02183594 -3 11 C-3 10.34 -3 9.68 -3 9 C-2.01 9.33 -1.02 9.66 0 10 C0 6.7 0 3.4 0 0 Z " fill="#55536E" transform="translate(129,381)"/>
<path d="M0 0 C0.33 0.99 0.66 1.98 1 3 C0.67 3.66 0.34 4.32 0 5 C0.99 5.33 1.98 5.66 3 6 C0 9 -3 12 -6 15 C-6 13.35 -6 11.7 -6 10 C-6.66 9.67 -7.32 9.34 -8 9 C-7.50628906 8.51789063 -7.01257813 8.03578125 -6.50390625 7.5390625 C-5.86324219 6.90742188 -5.22257813 6.27578125 -4.5625 5.625 C-3.92441406 4.99851563 -3.28632813 4.37203125 -2.62890625 3.7265625 C-0.92117824 2.08276939 -0.92117824 2.08276939 0 0 Z " fill="#676673" transform="translate(260,233)"/>
<path d="M0 0 C0 0.66 0 1.32 0 2 C-4.62 3.32 -9.24 4.64 -14 6 C-14 6.66 -14 7.32 -14 8 C-15.98 8.33 -17.96 8.66 -20 9 C-19.67 7.35 -19.34 5.7 -19 4 C-16.39688008 3.32900016 -13.79264602 2.66304662 -11.1875 2 C-10.44951172 1.80921875 -9.71152344 1.6184375 -8.95117188 1.421875 C-5.89464659 0.64737086 -3.16626522 0 0 0 Z " fill="#71707A" transform="translate(317,139)"/>
<path d="M0 0 C0 0.33 0 0.66 0 1 C-3.74760669 1.70100082 -7.49836085 2.38343987 -11.25 3.0625 C-12.31347656 3.26166016 -13.37695312 3.46082031 -14.47265625 3.66601562 C-16.00986328 3.94155273 -16.00986328 3.94155273 -17.578125 4.22265625 C-18.52075195 4.39547119 -19.46337891 4.56828613 -20.43457031 4.74633789 C-22.95177234 4.99523139 -24.61780887 4.78671127 -27 4 C-19.06581413 -1.28945725 -9.13927594 -0.21674172 0 0 Z " fill="#585763" transform="translate(329,141)"/>
<path d="M0 0 C0.33 0.66 0.66 1.32 1 2 C0.67 2.66 0.34 3.32 0 4 C0.99 4.33 1.98 4.66 3 5 C0.69 8.3 -1.62 11.6 -4 15 C-4.33 13.68 -4.66 12.36 -5 11 C-5.2475 10.34 -5.495 9.68 -5.75 9 C-6 7 -6 7 -4.6875 4.75 C-3.8521875 3.88375 -3.8521875 3.88375 -3 3 C-2.34 3 -1.68 3 -1 3 C-0.67 2.01 -0.34 1.02 0 0 Z " fill="#6E6D77" transform="translate(160,293)"/>
<path d="M0 0 C0.99 0 1.98 0 3 0 C2.67 3.3 2.34 6.6 2 10 C1.34 10 0.68 10 0 10 C0.33 10.99 0.66 11.98 1 13 C0.67 13.66 0.34 14.32 0 15 C-0.66 15 -1.32 15 -2 15 C-1.67 15.99 -1.34 16.98 -1 18 C-1.33 18.66 -1.66 19.32 -2 20 C-2.66 20 -3.32 20 -4 20 C-4 18.02 -4 16.04 -4 14 C-3.34 14 -2.68 14 -2 14 C-2 11.03 -2 8.06 -2 5 C-1.34 5 -0.68 5 0 5 C0 3.35 0 1.7 0 0 Z " fill="#45455F" transform="translate(150,201)"/>
<path d="M0 0 C0.99 0.33 1.98 0.66 3 1 C1.52278578 4.45201639 -0.43794001 6.64961936 -3.125 9.25 C-3.84945312 9.95640625 -4.57390625 10.6628125 -5.3203125 11.390625 C-5.87460938 11.92171875 -6.42890625 12.4528125 -7 13 C-7.5534764 10.92446352 -8 9.15634036 -8 7 C-6.35546875 5.23828125 -6.35546875 5.23828125 -4.1875 3.3125 C-3.47980469 2.66925781 -2.77210938 2.02601563 -2.04296875 1.36328125 C-1.36878906 0.91339844 -0.69460937 0.46351563 0 0 Z " fill="#5A5866" transform="translate(256,206)"/>
<path d="M0 0 C1.65 0 3.3 0 5 0 C5.33 1.32 5.66 2.64 6 4 C4.68 4 3.36 4 2 4 C0.06427276 5.74449693 0.06427276 5.74449693 -1.625 8 C-2.71075021 9.36548499 -3.82851078 10.70732224 -5 12 C-5.66 12 -6.32 12 -7 12 C-6.37240135 9.07120629 -5.41377341 6.63904371 -4 4 C-3.34 4 -2.68 4 -2 4 C-1.34 2.68 -0.68 1.36 0 0 Z " fill="#58576A" transform="translate(186,256)"/>
<path d="M0 0 C1.32 0 2.64 0 4 0 C4.66 1.32 5.32 2.64 6 4 C5.01 5.485 5.01 5.485 4 7 C2.35 6.67 0.7 6.34 -1 6 C-1.33 6.66 -1.66 7.32 -2 8 C-2.99 8.66 -3.98 9.32 -5 10 C-4.3826474 5.98720812 -2.50178124 3.14509642 0 0 Z " fill="#4B4B66" transform="translate(220,282)"/>
<path d="M0 0 C0.99 0.33 1.98 0.66 3 1 C3.2493357 2.60115576 3.47378648 4.20620159 3.6875 5.8125 C3.81511719 6.70582031 3.94273437 7.59914062 4.07421875 8.51953125 C4 11 4 11 2.51953125 12.82421875 C2.01808594 13.21222656 1.51664063 13.60023438 1 14 C1 13.01 1 12.02 1 11 C0.01 11 -0.98 11 -2 11 C-1.34 7.37 -0.68 3.74 0 0 Z " fill="#626077" transform="translate(139,243)"/>
<path d="M0 0 C-1.485 1.485 -1.485 1.485 -3 3 C-2.67 3.66 -2.34 4.32 -2 5 C-3.175625 5.61875 -3.175625 5.61875 -4.375 6.25 C-7.38502449 7.94315075 -7.38502449 7.94315075 -9 12 C-9.66 8.7 -10.32 5.4 -11 2 C-2.25 -1.125 -2.25 -1.125 0 0 Z " fill="#868591" transform="translate(232,170)"/>
<path d="M0 0 C0 2.31 0 4.62 0 7 C-0.66 7 -1.32 7 -2 7 C-2 8.98 -2 10.96 -2 13 C-1.34 13 -0.68 13 0 13 C0 11.35 0 9.7 0 8 C0.66 8 1.32 8 2 8 C2.33 7.34 2.66 6.68 3 6 C2.39174965 10.34464536 1.73832608 14.67551867 1 19 C0.71125 18.360625 0.4225 17.72125 0.125 17.0625 C-0.82823451 14.84793921 -0.82823451 14.84793921 -3 14 C-3 11.36 -3 8.72 -3 6 C-2.34 6 -1.68 6 -1 6 C-1 5.34 -1 4.68 -1 4 C-1.99 3.67 -2.98 3.34 -4 3 C-1.125 0 -1.125 0 0 0 Z " fill="#68697C" transform="translate(148,208)"/>
<path d="M0 0 C-0.125 1.8125 -0.125 1.8125 -1 4 C-4.18976724 6.10234659 -6.03465831 7.10492845 -9.875 6.6875 C-10.57625 6.460625 -11.2775 6.23375 -12 6 C-11 3 -11 3 -9.25 1.875 C-6.19976086 0.68879589 -3.2789053 0 0 0 Z " fill="#5B5964" transform="translate(185,193)"/>
<path d="M0 0 C-0.52320367 3.76706644 -1.27388801 6.27388801 -4 9 C-5.32 9 -6.64 9 -8 9 C-7.70100785 5.41209425 -7.23013399 4.21833224 -4.5625 1.6875 C-2 0 -2 0 0 0 Z " fill="#616068" transform="translate(190,323)"/>
<path d="M0 0 C0.99 0 1.98 0 3 0 C2.67 4.62 2.34 9.24 2 14 C1.01 14 0.02 14 -1 14 C-1.33 11.36 -1.66 8.72 -2 6 C-1.34 6 -0.68 6 0 6 C0 4.02 0 2.04 0 0 Z " fill="#484560" transform="translate(130,310)"/>
<path d="M0 0 C0.33 0.66 0.66 1.32 1 2 C1.66 2 2.32 2 3 2 C2.7834375 3.2684375 2.7834375 3.2684375 2.5625 4.5625 C1.9941203 8.03593149 1.48797607 11.51445662 1 15 C0.34 15 -0.32 15 -1 15 C-1 16.32 -1 17.64 -1 19 C-1.66 19 -2.32 19 -3 19 C-2.522244 14.90494857 -2.02974474 10.99026087 -1 7 C-0.6503582 4.66905466 -0.31445513 2.33595238 0 0 Z " fill="#4B4B67" transform="translate(218,183)"/>
<path d="M0 0 C0.99 0 1.98 0 3 0 C3 1.32 3 2.64 3 4 C3.66 4 4.32 4 5 4 C4.40984815 9.50808397 3.43336231 14.64878069 2 20 C1.67 20 1.34 20 1 20 C0.80705592 15.17639811 1.24252386 11.50353262 3 7 C2.34 7 1.68 7 1 7 C-0.0625 4.625 -0.0625 4.625 -1 2 C-0.67 1.34 -0.34 0.68 0 0 Z " fill="#6B6B82" transform="translate(218,178)"/>
<path d="M0 0 C0 0.99 0 1.98 0 3 C-8.42857143 6.42857143 -8.42857143 6.42857143 -13 6 C-12 3 -12 3 -9.3125 1.3125 C-5.91018714 -0.03558623 -3.61672729 -0.25833766 0 0 Z " fill="#626169" transform="translate(240,168)"/>
<path d="M0 0 C-1.2824977 2.86095641 -2.45343989 5.11365918 -5 7 C-7.6875 7.1875 -7.6875 7.1875 -10 7 C-9.02640613 3.72518425 -8.30933359 2.23794891 -5.5625 0.125 C-3 -1 -3 -1 0 0 Z " fill="#545262" transform="translate(199,276)"/>
<path d="M0 0 C0.33 0.66 0.66 1.32 1 2 C1.66 2 2.32 2 3 2 C2.8125 4.875 2.8125 4.875 2 8 C-0.4375 9.25 -0.4375 9.25 -3 10 C-3.66 10.66 -4.32 11.32 -5 12 C-4.53981898 7.85837086 -4.14493915 5.75182176 -1 3 C-0.67 2.01 -0.34 1.02 0 0 Z " fill="#6C6B7D" transform="translate(188,257)"/>
<path d="M0 0 C0 0.66 0 1.32 0 2 C0.99 2.66 1.98 3.32 3 4 C1.73160474 4.50615298 0.46016898 5.00469099 -0.8125 5.5 C-1.87404297 5.91765625 -1.87404297 5.91765625 -2.95703125 6.34375 C-5 7 -5 7 -8 7 C-8 6.34 -8 5.68 -8 5 C-8.99 4.67 -9.98 4.34 -11 4 C-9.5437455 3.32880451 -8.08492133 2.66318193 -6.625 2 C-5.81289062 1.62875 -5.00078125 1.2575 -4.1640625 0.875 C-2 0 -2 0 0 0 Z " fill="#6D6C77" transform="translate(201,184)"/>
<path d="M0 0 C0.99 0.33 1.98 0.66 3 1 C1.50902342 4.7952131 -0.75700849 6.61042731 -4 9 C-4.66 8.67 -5.32 8.34 -6 8 C-5.66354211 4.85972637 -4.94763914 3.94901705 -2.625 1.6875 C-1.75875 1.130625 -0.8925 0.57375 0 0 Z " fill="#5B5964" transform="translate(241,222)"/>
<path d="M0 0 C0.66 0 1.32 0 2 0 C1.67 1.32 1.34 2.64 1 4 C1.66 4 2.32 4 3 4 C3 6.97 3 9.94 3 13 C2.01 13.495 2.01 13.495 1 14 C-1.20808081 8.80451575 -0.93402724 5.41735797 0 0 Z " fill="#43415C" transform="translate(127,378)"/>
<path d="M0 0 C1.2065625 0.0309375 1.2065625 0.0309375 2.4375 0.0625 C1.05740379 3.39773252 -0.41200652 5.24857951 -3.5625 7.0625 C-4.5525 6.7325 -5.5425 6.4025 -6.5625 6.0625 C-3.03077411 0.07392132 -3.03077411 0.07392132 0 0 Z " fill="#555262" transform="translate(112.5625,376.9375)"/>
<path d="M0 0 C0.33 0.66 0.66 1.32 1 2 C0.67 2.66 0.34 3.32 0 4 C0.66 4 1.32 4 2 4 C1.67 5.32 1.34 6.64 1 8 C0.34 8 -0.32 8 -1 8 C-1.33 8.66 -1.66 9.32 -2 10 C-2 9.34 -2 8.68 -2 8 C-3.65 8.66 -5.3 9.32 -7 10 C-6.02223933 8.51990357 -5.0427506 7.04094856 -4.0625 5.5625 C-3.51722656 4.73878906 -2.97195312 3.91507812 -2.41015625 3.06640625 C-1 1 -1 1 0 0 Z " fill="#6D6C77" transform="translate(192,315)"/>
<path d="M0 0 C0.33 1.32 0.66 2.64 1 4 C1.66 4 2.32 4 3 4 C3 6.31 3 8.62 3 11 C1.68 11.33 0.36 11.66 -1 12 C-2.11658501 7.31034294 -1.80619523 4.46236469 0 0 Z " fill="#696882" transform="translate(205,230)"/>
<path d="M0 0 C-0.54074373 3.78520613 -2.07572746 5.59177555 -5 8 C-5.99 8 -6.98 8 -8 8 C-7.42415568 5.61435923 -6.77772405 3.33317216 -6 1 C-3 0 -3 0 0 0 Z " fill="#555360" transform="translate(309,184)"/>
<path d="M0 0 C0.66 0.33 1.32 0.66 2 1 C2 1.66 2 2.32 2 3 C1.01 3.495 1.01 3.495 0 4 C-0.65555119 6.52733235 -0.65555119 6.52733235 -1 9 C-2.98 9 -4.96 9 -7 9 C-7 8.01 -7 7.02 -7 6 C-5.35666496 4.96210419 -3.68756133 3.96432076 -2 3 C-1.34 2.01 -0.68 1.02 0 0 Z " fill="#6A696E" transform="translate(149,308)"/>
<path d="M0 0 C0.66 0 1.32 0 2 0 C2.22262606 2.08185451 2.42757926 4.16560426 2.625 6.25 C2.74101562 7.41015625 2.85703125 8.5703125 2.9765625 9.765625 C2.99955595 12.93872091 2.69705154 14.38317244 1 17 C0.34 16.34 -0.32 15.68 -1 15 C-0.67 14.01 -0.34 13.02 0 12 C0.068991 9.93854893 0.08467727 7.87498599 0.0625 5.8125 C0.05347656 4.72582031 0.04445312 3.63914062 0.03515625 2.51953125 C0.02355469 1.68808594 0.01195312 0.85664063 0 0 Z " fill="#625D79" transform="translate(131,339)"/>
<path d="M0 0 C0.99 0.66 1.98 1.32 3 2 C1.35 6.29 -0.3 10.58 -2 15 C-2.33 15 -2.66 15 -3 15 C-3.33 11.37 -3.66 7.74 -4 4 C-2.68 4.33 -1.36 4.66 0 5 C0 3.35 0 1.7 0 0 Z " fill="#767685" transform="translate(127,297)"/>
<path d="M0 0 C1.46726798 3.81489674 0.43336419 6.29011622 -1 10 C-2.32 10 -3.64 10 -5 10 C-3.14285714 2.42857143 -3.14285714 2.42857143 0 0 Z " fill="#565361" transform="translate(165,287)"/>
<path d="M0 0 C2.71653543 5.07086614 2.71653543 5.07086614 3 8 C1.75 9.5625 1.75 9.5625 0 11 C-0.556875 11.556875 -1.11375 12.11375 -1.6875 12.6875 C-2.120625 13.120625 -2.55375 13.55375 -3 14 C-2.73958333 12.01432292 -2.47916667 10.02864583 -2.21875 8.04296875 C-1.946767 5.84528294 -1.946767 5.84528294 -2 3 C-1.34 2.01 -0.68 1.02 0 0 Z " fill="#7B7985" transform="translate(167,282)"/>
<path d="M0 0 C0.928125 0.2784375 0.928125 0.2784375 1.875 0.5625 C4.04160178 1.23686176 4.04160178 1.23686176 6 0 C5.61402985 2.79828356 5.19863427 3.8205884 3.0625 5.75 C1 7 1 7 -1 7 C-1.625 5.1875 -1.625 5.1875 -2 3 C-1.34 2.01 -0.68 1.02 0 0 Z " fill="#75737F" transform="translate(95,383)"/>
<path d="M0 0 C0.04241723 2.33294775 0.04092937 4.66702567 0 7 C-1 8 -1 8 -3.5625 8.0625 C-4.366875 8.041875 -5.17125 8.02125 -6 8 C-3.18918919 0 -3.18918919 0 0 0 Z " fill="#64636B" transform="translate(118,319)"/>
<path d="M0 0 C0.33 0 0.66 0 1 0 C1.33 2.97 1.66 5.94 2 9 C2.66 9 3.32 9 4 9 C4 11.64 4 14.28 4 17 C1 13.25 1 13.25 1 11 C0.34 10.67 -0.32 10.34 -1 10 C-0.67 8.68 -0.34 7.36 0 6 C-0.99 5.67 -1.98 5.34 -3 5 C-2.03114628 3.31503702 -1.03013277 1.64821244 0 0 Z " fill="#717083" transform="translate(205,260)"/>
<path d="M0 0 C0.33 0.66 0.66 1.32 1 2 C0.67 2.66 0.34 3.32 0 4 C0.66 4 1.32 4 2 4 C1.625 5.9375 1.625 5.9375 1 8 C0.01 8.495 0.01 8.495 -1 9 C-1.33 8.01 -1.66 7.02 -2 6 C-3.32 7.32 -4.64 8.64 -6 10 C-6.66 9.67 -7.32 9.34 -8 9 C-5.36 6.03 -2.72 3.06 0 0 Z " fill="#797882" transform="translate(235,226)"/>
<path d="M0 0 C0.12375 0.639375 0.2475 1.27875 0.375 1.9375 C0.684375 2.9584375 0.684375 2.9584375 1 4 C1.66 4.33 2.32 4.66 3 5 C1.35 6.32 -0.3 7.64 -2 9 C-2.33 8.01 -2.66 7.02 -3 6 C-4.98 6.99 -4.98 6.99 -7 8 C-6.02133662 6.85373678 -5.04205413 5.70800212 -4.0625 4.5625 C-3.51722656 3.92441406 -2.97195313 3.28632813 -2.41015625 2.62890625 C-1.63204305 1.73008851 -0.84063472 0.84063472 0 0 Z " fill="#6C6A79" transform="translate(287,203)"/>
<path d="M0 0 C-0.33 1.65 -0.66 3.3 -1 5 C-2.32 5.33 -3.64 5.66 -5 6 C-5 6.66 -5 7.32 -5 8 C-5.66 8 -6.32 8 -7 8 C-7.3125 5.6875 -7.3125 5.6875 -7 3 C-4.6167054 1.18116991 -3.04181663 0 0 0 Z " fill="#4E4C5E" transform="translate(170,311)"/>
<path d="M0 0 C0.99 0.33 1.98 0.66 3 1 C2.67 1.33 2.34 1.66 2 2 C1.602507 4.34723966 1.25631277 6.70328548 0.9375 9.0625 C0.67259766 10.99802734 0.67259766 10.99802734 0.40234375 12.97265625 C0.26957031 13.97167969 0.13679687 14.97070312 0 16 C-0.99 16 -1.98 16 -3 16 C-3 14.35 -3 12.7 -3 11 C-2.34 10.67 -1.68 10.34 -1 10 C-1.01160156 9.36191406 -1.02320313 8.72382813 -1.03515625 8.06640625 C-1.04417969 7.24011719 -1.05320313 6.41382813 -1.0625 5.5625 C-1.07410156 4.73878906 -1.08570313 3.91507812 -1.09765625 3.06640625 C-1 1 -1 1 0 0 Z " fill="#56536D" transform="translate(206,303)"/>
<path d="M0 0 C0 4.51236303 -0.80529632 8.04953338 -3 12 C-3 11.34 -3 10.68 -3 10 C-4.65 10.33 -6.3 10.66 -8 11 C-8 10.34 -8 9.68 -8 9 C-7.34 9 -6.68 9 -6 9 C-5.67 8.01 -5.34 7.02 -5 6 C-4.34 6 -3.68 6 -3 6 C-2.814375 5.071875 -2.814375 5.071875 -2.625 4.125 C-2 2 -2 2 0 0 Z " fill="#676676" transform="translate(227,272)"/>
<path d="M0 0 C0 0.66 0 1.32 0 2 C-0.99 2.66 -1.98 3.32 -3 4 C-2.67 4.66 -2.34 5.32 -2 6 C-5.81489674 7.46726798 -8.29011622 6.43336419 -12 5 C-10.66666667 4.33333333 -9.33333333 3.66666667 -8 3 C-6.96875 2.46375 -5.9375 1.9275 -4.875 1.375 C-2 0 -2 0 0 0 Z " fill="#706D7C" transform="translate(167,201)"/>
<path d="M0 0 C0 0.66 0 1.32 0 2 C-0.66 2 -1.32 2 -2 2 C-2.061875 2.763125 -2.12375 3.52625 -2.1875 4.3125 C-3 7 -3 7 -5.5625 8.8125 C-6.366875 9.204375 -7.17125 9.59625 -8 10 C-8 6.80366562 -7.66189865 5.65903784 -6 3 C-2.57142857 0 -2.57142857 0 0 0 Z " fill="#545260" transform="translate(285,180)"/>
<path d="M0 0 C0.33 1.32 0.66 2.64 1 4 C-2 6 -2 6 -5 6 C-5 5.34 -5 4.68 -5 4 C-6.32 3.67 -7.64 3.34 -9 3 C-2.25 0 -2.25 0 0 0 Z " fill="#797880" transform="translate(245,164)"/>
<path d="M0 0 C-1.97420135 2.52259061 -2.96745642 2.9929808 -6.1875 3.6875 C-7.5796875 3.8421875 -7.5796875 3.8421875 -9 4 C-9 2.68 -9 1.36 -9 0 C-5.52176885 -1.15941038 -3.54104422 -0.70820884 0 0 Z " fill="#68666E" transform="translate(254,163)"/>
<path d="M0 0 C1.32 0 2.64 0 4 0 C4 0.66 4 1.32 4 2 C3.34 2.66 2.68 3.32 2 4 C1.83318891 7.08347826 1.83318891 7.08347826 2 10 C1.34 10 0.68 10 0 10 C-1.49106457 7.01787087 -1.11941467 4.28390342 -1 1 C-0.67 0.67 -0.34 0.34 0 0 Z " fill="#484768" transform="translate(207,259)"/>
<path d="M0 0 C0.33 1.65 0.66 3.3 1 5 C-0.32 5.99 -1.64 6.98 -3 8 C-3.33 7.01 -3.66 6.02 -4 5 C-4.99 5 -5.98 5 -7 5 C-2.25 0 -2.25 0 0 0 Z " fill="#61606C" transform="translate(275,219)"/>
<path d="M0 0 C0.66 0 1.32 0 2 0 C3.1875 1.625 3.1875 1.625 4 4 C2.6875 6.9375 2.6875 6.9375 1 10 C0.30092586 12.73572585 0.30092586 12.73572585 0 15 C-0.33 15 -0.66 15 -1 15 C-1 12.36 -1 9.72 -1 7 C-0.34 7 0.32 7 1 7 C0.4740625 5.824375 0.4740625 5.824375 -0.0625 4.625 C-0.371875 3.75875 -0.68125 2.8925 -1 2 C-0.67 1.34 -0.34 0.68 0 0 Z " fill="#7A7888" transform="translate(143,184)"/>
<path d="M0 0 C1.65 0.33 3.3 0.66 5 1 C5 1.66 5 2.32 5 3 C4.34 3 3.68 3 3 3 C2.71125 3.763125 2.4225 4.52625 2.125 5.3125 C1 8 1 8 -1 11 C-0.67 8.69 -0.34 6.38 0 4 C-0.66 3.67 -1.32 3.34 -2 3 C-1.34 2.01 -0.68 1.02 0 0 Z " fill="#6A6A76" transform="translate(173,275)"/>
<path d="M0 0 C1.65 1.65 3.3 3.3 5 5 C3.68 5.99 2.36 6.98 1 8 C0.67 7.01 0.34 6.02 0 5 C-2.01508358 4.26676204 -2.01508358 4.26676204 -4 4 C-2.68 2.68 -1.36 1.36 0 0 Z " fill="#686775" transform="translate(191,251)"/>
<path d="M0 0 C0.99 0 1.98 0 3 0 C3 1.65 3 3.3 3 5 C2.01 5 1.02 5 0 5 C-0.33 5.99 -0.66 6.98 -1 8 C-1.66 8 -2.32 8 -3 8 C-2.45276317 4.62537285 -1.9451 2.91765 0 0 Z " fill="#524F64" transform="translate(251,243)"/>
<path d="M0 0 C0.66 0 1.32 0 2 0 C2 2.64 2 5.28 2 8 C0.35 8.33 -1.3 8.66 -3 9 C-2.67 8.01 -2.34 7.02 -2 6 C-2 6.66 -2 7.32 -2 8 C-1.34 8 -0.68 8 0 8 C-0.37125 7.236875 -0.7425 6.47375 -1.125 5.6875 C-1.41375 4.800625 -1.7025 3.91375 -2 3 C-1.34 2.01 -0.68 1.02 0 0 Z " fill="#686573" transform="translate(131,431)"/>
<path d="M0 0 C0.33 0 0.66 0 1 0 C1.24878997 2.43694274 1.47463404 4.87238389 1.6875 7.3125 C1.79674805 8.34793945 1.79674805 8.34793945 1.90820312 9.40429688 C2.07421875 11.42578125 2.07421875 11.42578125 2 15 C1.01 15.99 0.02 16.98 -1 18 C-0.505 9.09 -0.505 9.09 0 0 Z " fill="#555375" transform="translate(132,260)"/>
<path d="M0 0 C1.29312675 2.5862535 0.84290464 3.76416975 0.25 6.5625 C0.01023438 7.77099609 0.01023438 7.77099609 -0.234375 9.00390625 C-0.61335937 9.99197266 -0.61335937 9.99197266 -1 11 C-1.99 11.33 -2.98 11.66 -4 12 C-4 8.7 -4 5.4 -4 2 C-3.01 3.485 -3.01 3.485 -2 5 C-1.34 3.35 -0.68 1.7 0 0 Z " fill="#5C576D" transform="translate(146,228)"/>
<path d="M0 0 C0 0.66 0 1.32 0 2 C0.99 2.33 1.98 2.66 3 3 C-0.6441774 5.4294516 -2.71241272 5.16179575 -7 5 C-6.34 4.67 -5.68 4.34 -5 4 C-4.67 3.01 -4.34 2.02 -4 1 C-2 0 -2 0 0 0 Z " fill="#615F6D" transform="translate(206,182)"/>
<path d="M0 0 C0 3 0 3 -2.0625 5.5 C-2.701875 6.325 -3.34125 7.15 -4 8 C-3.67 8.99 -3.34 9.98 -3 11 C-3.99 11.66 -4.98 12.32 -6 13 C-6 11.68 -6 10.36 -6 9 C-6.66 8.67 -7.32 8.34 -8 8 C-5.36 5.36 -2.72 2.72 0 0 Z " fill="#84838A" transform="translate(111,374)"/>
<path d="M0 0 C0.66 0 1.32 0 2 0 C2.33 1.32 2.66 2.64 3 4 C3.66 3.67 4.32 3.34 5 3 C5 4.65 5 6.3 5 8 C4.01 8.495 4.01 8.495 3 9 C0.4277953 7.71389765 -0.00974907 6.66606019 -1 4 C-0.625 1.75 -0.625 1.75 0 0 Z " fill="#615E73" transform="translate(231,272)"/>
<path d="M0 0 C0.66 0 1.32 0 2 0 C2 2.97 2 5.94 2 9 C0.68 9 -0.64 9 -2 9 C-1.34 6.03 -0.68 3.06 0 0 Z " fill="#656473" transform="translate(122,304)"/>
<path d="M0 0 C1.231394 3.69418201 0.64432764 6.2056261 0 10 C-1.65 10.66 -3.3 11.32 -5 12 C-4.43244703 8.02712922 -3.17597408 5.3546267 -1 2 C-0.67 1.34 -0.34 0.68 0 0 Z " fill="#3D3B5D" transform="translate(133,279)"/>
<path d="M0 0 C0.33 0.99 0.66 1.98 1 3 C1.99 2.01 2.98 1.02 4 0 C4.99 0.33 5.98 0.66 7 1 C5.35 2.98 3.7 4.96 2 7 C1.67 6.01 1.34 5.02 1 4 C-0.32 4.33 -1.64 4.66 -3 5 C-2.01 3.35 -1.02 1.7 0 0 Z " fill="#706E7C" transform="translate(247,248)"/>
<path d="M0 0 C0.3125 2.3125 0.3125 2.3125 0 5 C-2.5 6.8125 -2.5 6.8125 -5 8 C-5 6.02 -5 4.04 -5 2 C-1.125 0 -1.125 0 0 0 Z " fill="#535162" transform="translate(272,223)"/>
<path d="M0 0 C0.66 0.33 1.32 0.66 2 1 C0.52307692 5.67692308 0.52307692 5.67692308 -2.125 7.3125 C-3.053125 7.6528125 -3.053125 7.6528125 -4 8 C-4.33 7.01 -4.66 6.02 -5 5 C-3.35 3.35 -1.7 1.7 0 0 Z " fill="#4C4958" transform="translate(284,208)"/>
<path d="M0 0 C0.33 0 0.66 0 1 0 C1 2.31 1 4.62 1 7 C0.01 7 -0.98 7 -2 7 C-2.33 8.32 -2.66 9.64 -3 11 C-3.66 11 -4.32 11 -5 11 C-4.67 8.03 -4.34 5.06 -4 2 C-2.515 2.99 -2.515 2.99 -1 4 C-0.67 2.68 -0.34 1.36 0 0 Z " fill="#72717E" transform="translate(153,195)"/>
<path d="M0 0 C0.33 0.99 0.66 1.98 1 3 C0.01 4.485 0.01 4.485 -1 6 C-0.34 6.33 0.32 6.66 1 7 C-0.98 7.99 -0.98 7.99 -3 9 C-3 8.01 -3 7.02 -3 6 C-4.32 6.33 -5.64 6.66 -7 7 C-4.66666667 4.66666667 -2.33333333 2.33333333 0 0 Z " fill="#787780" transform="translate(278,183)"/>
<path d="M0 0 C1.65 0 3.3 0 5 0 C5 0.99 5 1.98 5 3 C1.7 3.33 -1.6 3.66 -5 4 C-5 3.34 -5 2.68 -5 2 C-3.35 2 -1.7 2 0 2 C0 1.34 0 0.68 0 0 Z " fill="#5F5E68" transform="translate(277,151)"/>
<path d="M0 0 C0.33 0 0.66 0 1 0 C1.67682678 4.39937409 2 8.54966502 2 13 C1.34 13 0.68 13 0 13 C-1.25069801 10.49860398 -1.13302467 8.72607309 -1.125 5.9375 C-1.12757812 5.03902344 -1.13015625 4.14054687 -1.1328125 3.21484375 C-1 1 -1 1 0 0 Z " fill="#46425B" transform="translate(129,426)"/>
<path d="M0 0 C0.99 0.33 1.98 0.66 3 1 C3 4.63 3 8.26 3 12 C1.35 12.33 -0.3 12.66 -2 13 C-2.33 11.68 -2.66 10.36 -3 9 C-2.01 9.33 -1.02 9.66 0 10 C0 6.7 0 3.4 0 0 Z " fill="#636277" transform="translate(129,381)"/>
<path d="M0 0 C0.99 0.33 1.98 0.66 3 1 C3 3.31 3 5.62 3 8 C2.01 8.33 1.02 8.66 0 9 C0 6.03 0 3.06 0 0 Z " fill="#4A4864" transform="translate(203,320)"/>
<path d="M0 0 C0.33 0.66 0.66 1.32 1 2 C1.66 2 2.32 2 3 2 C2.25 6.75 2.25 6.75 0 9 C-0.66 8.67 -1.32 8.34 -2 8 C-1.34 5.36 -0.68 2.72 0 0 Z " fill="#575666" transform="translate(172,302)"/>
<path d="M0 0 C1 2 2 4 3 6 C2.01 6.99 1.02 7.98 0 9 C-0.33 8.34 -0.66 7.68 -1 7 C-1.66 7 -2.32 7 -3 7 C-1.125 2.25 -1.125 2.25 0 0 Z " fill="#6E6C79" transform="translate(330,152)"/>
<path d="M0 0 C0.66 0.33 1.32 0.66 2 1 C2.625 3.5625 2.625 3.5625 3 6 C1.68 6 0.36 6 -1 6 C-1 6.66 -1 7.32 -1 8 C-1.66 8 -2.32 8 -3 8 C-2.67 6.35 -2.34 4.7 -2 3 C-1.34 3 -0.68 3 0 3 C0 2.01 0 1.02 0 0 Z " fill="#504E6E" transform="translate(213,294)"/>
<path d="M0 0 C1.5625 1.8125 1.5625 1.8125 3 4 C2.67 4.99 2.34 5.98 2 7 C0.35 6.67 -1.3 6.34 -3 6 C-2.42655063 3.13275314 -2.1385485 2.1385485 0 0 Z " fill="#696676" transform="translate(266,226)"/>
<path d="M0 0 C0.66 0 1.32 0 2 0 C3.25 6.625 3.25 6.625 1 10 C-0.60725635 6.78548731 -0.05748185 3.56387464 0 0 Z " fill="#4B485E" transform="translate(138,197)"/>
<path d="M0 0 C0.66 0.33 1.32 0.66 2 1 C1.34 2.32 0.68 3.64 0 5 C0.99 5.33 1.98 5.66 3 6 C0 8 0 8 -2.6875 7.625 C-3.450625 7.41875 -4.21375 7.2125 -5 7 C-3.35 4.69 -1.7 2.38 0 0 Z " fill="#75737F" transform="translate(309,178)"/>
<path d="M0 0 C0.99 0.33 1.98 0.66 3 1 C2.01 2.485 2.01 2.485 1 4 C0.61500109 5.65549531 0.27206865 7.3222433 0 9 C-0.99 9 -1.98 9 -3 9 C-2.01 6.03 -1.02 3.06 0 0 Z " fill="#44405A" transform="translate(134,350)"/>
<path d="M0 0 C0.33 0 0.66 0 1 0 C1 3.96 1 7.92 1 12 C0.01 12.495 0.01 12.495 -1 13 C-1.33 10.69 -1.66 8.38 -2 6 C-1.34 6 -0.68 6 0 6 C0 4.02 0 2.04 0 0 Z " fill="#434162" transform="translate(132,291)"/>
<path d="M0 0 C1.65 0 3.3 0 5 0 C5.33 0.99 5.66 1.98 6 3 C5.34 3.66 4.68 4.32 4 5 C3.01 4.34 2.02 3.68 1 3 C0.67 3.66 0.34 4.32 0 5 C-0.66 4.67 -1.32 4.34 -2 4 C-1.34 2.68 -0.68 1.36 0 0 Z " fill="#726E85" transform="translate(219,288)"/>
<path d="M0 0 C0.66 0 1.32 0 2 0 C2 1.32 2 2.64 2 4 C1.01 4 0.02 4 -1 4 C-0.67 2.68 -0.34 1.36 0 0 Z M-2 4 C-1.67 5.32 -1.34 6.64 -1 8 C-1.66 8 -2.32 8 -3 8 C-3.66 8.66 -4.32 9.32 -5 10 C-4.42655063 7.13275314 -4.1385485 6.1385485 -2 4 Z " fill="#45425A" transform="translate(220,282)"/>
<path d="M0 0 C-0.33 2.31 -0.66 4.62 -1 7 C-2.66666667 7 -4.33333333 7 -6 7 C-5.16086207 4.48258621 -3.22783875 0 0 0 Z " fill="#535063" transform="translate(239,261)"/>
<path d="M0 0 C1.46726798 3.81489674 0.43336419 6.29011622 -1 10 C-1.99 9.67 -2.98 9.34 -4 9 C-3.34 6.69 -2.68 4.38 -2 2 C-1.34 2 -0.68 2 0 2 C0 1.34 0 0.68 0 0 Z " fill="#787789" transform="translate(141,255)"/>
<path d="M0 0 C-0.33 1.65 -0.66 3.3 -1 5 C-2.32 5.33 -3.64 5.66 -5 6 C-4.625 3.5625 -4.625 3.5625 -4 1 C-2 0 -2 0 0 0 Z " fill="#4B4959" transform="translate(248,252)"/>
<path d="M0 0 C0.66 0 1.32 0 2 0 C1.67 2.31 1.34 4.62 1 7 C0.01 7 -0.98 7 -2 7 C-1.125 1.125 -1.125 1.125 0 0 Z " fill="#575667" transform="translate(333,149)"/>
<path d="M0 0 C0.66 0.66 1.32 1.32 2 2 C2.66 1.67 3.32 1.34 4 1 C4 2.32 4 3.64 4 5 C2 6.75 2 6.75 0 8 C-0.38063221 5.6739143 -0.71269945 3.33944736 -1 1 C-0.67 0.67 -0.34 0.34 0 0 Z " fill="#787686" transform="translate(205,333)"/>
<path d="M0 0 C0.66 0 1.32 0 2 0 C2 1.32 2 2.64 2 4 C2.66 4 3.32 4 4 4 C3.67 6.31 3.34 8.62 3 11 C2.67 11 2.34 11 2 11 C0.80712589 7.12315913 0 4.08378077 0 0 Z " fill="#62617A" transform="translate(135,260)"/>
<path d="M0 0 C4.95 0.99 4.95 0.99 10 2 C8 4 8 4 4.375 4.125 C3.26125 4.08375 2.1475 4.0425 1 4 C0.67 2.68 0.34 1.36 0 0 Z " fill="#807E89" transform="translate(124,212)"/>
<path d="M0 0 C0.66 0 1.32 0 2 0 C1.67 1.65 1.34 3.3 1 5 C-0.32 5.33 -1.64 5.66 -3 6 C-3 4.68 -3 3.36 -3 2 C-2.01 2 -1.02 2 0 2 C0 1.34 0 0.68 0 0 Z " fill="#4E4B5B" transform="translate(291,201)"/>
<path d="M0 0 C1.32 0 2.64 0 4 0 C4 0.99 4 1.98 4 3 C1 5 1 5 -3 5 C-3 4.34 -3 3.68 -3 3 C-2.01 3 -1.02 3 0 3 C0 2.01 0 1.02 0 0 Z " fill="#56545F" transform="translate(189,189)"/>
<path d="M0 0 C-1.175625 0.86625 -1.175625 0.86625 -2.375 1.75 C-4.80047244 3.82897637 -5.85694417 5.09040333 -7 8 C-7.33 6.02 -7.66 4.04 -8 2 C-4.77208445 -0.1519437 -3.71599191 -0.20086443 0 0 Z " fill="#797A85" transform="translate(230,174)"/>
<path d="M0 0 C0.66 0 1.32 0 2 0 C3.60725635 3.21451269 3.05748185 6.43612536 3 10 C2.67 9.01 2.34 8.02 2 7 C1.34 7 0.68 7 0 7 C0 4.69 0 2.38 0 0 Z " fill="#696878" transform="translate(333,142)"/>
<path d="M0 0 C1.98 0.495 1.98 0.495 4 1 C3.67 2.32 3.34 3.64 3 5 C1.68 5.33 0.36 5.66 -1 6 C-0.67 4.02 -0.34 2.04 0 0 Z " fill="#454256" transform="translate(145,336)"/>
<path d="M0 0 C1.13732426 3.40401948 0.83989957 5.77456664 0.0625 9.25 C-0.13214844 10.14203125 -0.32679688 11.0340625 -0.52734375 11.953125 C-0.68332031 12.62859375 -0.83929688 13.3040625 -1 14 C-2.62433191 11.49923002 -3.07333427 10.41017471 -2.5390625 7.421875 C-2.23742187 6.54015625 -1.93578125 5.6584375 -1.625 4.75 C-1.32851562 3.85796875 -1.03203125 2.9659375 -0.7265625 2.046875 C-0.48679688 1.37140625 -0.24703125 0.6959375 0 0 Z " fill="#858494" transform="translate(147,228)"/>
<path d="M0 0 C0 0.99 0 1.98 0 3 C0.66 3.33 1.32 3.66 2 4 C0.35 4.33 -1.3 4.66 -3 5 C-3 4.34 -3 3.68 -3 3 C-3.99 2.67 -4.98 2.34 -6 2 C-2.25 0 -2.25 0 0 0 Z " fill="#757481" transform="translate(285,148)"/>
<path d="M0 0 C0.33 0 0.66 0 1 0 C1 1.65 1 3.3 1 5 C1.99 5 2.98 5 4 5 C3.67 6.98 3.34 8.96 3 11 C0.39665076 8.28817788 0.00543309 7.10866187 -0.1875 3.25 C-0.125625 2.1775 -0.06375 1.105 0 0 Z " fill="#5B586E" transform="translate(128,319)"/>
<path d="M0 0 C0.66 0 1.32 0 2 0 C1.53199289 4.05606165 1.12046792 7.46588679 -1 11 C-1.125 3.375 -1.125 3.375 0 0 Z " fill="#68667A" transform="translate(213,212)"/>
<path d="M0 0 C0 2.31 0 4.62 0 7 C-0.66 7 -1.32 7 -2 7 C-2.33 8.32 -2.66 9.64 -3 11 C-3 9.35 -3 7.7 -3 6 C-2.34 6 -1.68 6 -1 6 C-1 5.34 -1 4.68 -1 4 C-1.99 3.67 -2.98 3.34 -4 3 C-1.125 0 -1.125 0 0 0 Z " fill="#756487" transform="translate(148,208)"/>
<path d="M0 0 C1.485 0.99 1.485 0.99 3 2 C2.67 3.65 2.34 5.3 2 7 C1.01 7 0.02 7 -1 7 C-0.67 4.69 -0.34 2.38 0 0 Z " fill="#666880" transform="translate(215,183)"/>
<path d="M0 0 C0.66 0.66 1.32 1.32 2 2 C2.99 2.33 3.98 2.66 5 3 C4.01 3.99 3.02 4.98 2 6 C2 5.34 2 4.68 2 4 C0.35 4 -1.3 4 -3 4 C-2.01 2.68 -1.02 1.36 0 0 Z " fill="#6C6A76" transform="translate(143,339)"/>
<path d="M0 0 C0.66 0.66 1.32 1.32 2 2 C1.63723355 4.82957829 0.90305236 7.29084291 0 10 C-0.66 10 -1.32 10 -2 10 C-1.34 6.7 -0.68 3.4 0 0 Z " fill="#615E77" transform="translate(130,278)"/>
<path d="M0 0 C1.10844919 3.32534757 0.84454356 5.62182575 0 9 C-0.66 9 -1.32 9 -2 9 C-2 6.69 -2 4.38 -2 2 C-1.34 2 -0.68 2 0 2 C0 1.34 0 0.68 0 0 Z " fill="#4B4862" transform="translate(214,183)"/>
<path d="M0 0 C-1.15173355 2.46800047 -2.04783565 4.04783565 -4 6 C-4.66 4.35 -5.32 2.7 -6 1 C-3 0 -3 0 0 0 Z " fill="#595665" transform="translate(327,164)"/>
<path d="M0 0 C0.33 0.99 0.66 1.98 1 3 C0.67 3.66 0.34 4.32 0 5 C-0.66 5 -1.32 5 -2 5 C-2 5.66 -2 6.32 -2 7 C-2.66 7 -3.32 7 -4 7 C-3.43628586 3.73045798 -2.50037734 2.17424117 0 0 Z " fill="#676574" transform="translate(116,369)"/>
<path d="M0 0 C0.33 0 0.66 0 1 0 C1 1.98 1 3.96 1 6 C0.01 6.33 -0.98 6.66 -2 7 C-2.33 5.35 -2.66 3.7 -3 2 C-2.34 2 -1.68 2 -1 2 C-0.67 1.34 -0.34 0.68 0 0 Z " fill="#474461" transform="translate(205,307)"/>
<path d="M0 0 C-0.33 1.32 -0.66 2.64 -1 4 C-1.33 3.67 -1.66 3.34 -2 3 C-3.66617115 2.95936168 -5.33388095 2.957279 -7 3 C-4.49955934 -0.00052879 -4.2621484 0 0 0 Z " fill="#65666D" transform="translate(313,157)"/>
</svg>
